<?xml version="1.0" standalone="no"?>
<!DOCTYPE svg PUBLIC "-//W3C//DTD SVG 20010904//EN"
 "http://www.w3.org/TR/2001/REC-SVG-20010904/DTD/svg10.dtd">
<svg version="1.0" xmlns="http://www.w3.org/2000/svg"
 width="512.000000pt" height="512.000000pt" viewBox="0 0 512.000000 512.000000"
 preserveAspectRatio="xMidYMid meet">
<metadata>
Created by potrace 1.14, written by Peter Selinger 2001-2017
</metadata>
<g transform="translate(0.000000,512.000000) scale(0.100000,-0.100000)"
fill="#000000" stroke="none">
<path d="M1809 5116 c-2 -2 -23 -6 -46 -10 -65 -8 -211 -67 -278 -111 -87 -57
-205 -179 -254 -262 -70 -118 -100 -201 -126 -348 -14 -79 -4 -242 20 -336 19
-74 20 -72 -12 -64 -184 47 -314 49 -483 8 -36 -8 -71 -20 -77 -25 -7 -6 -13
-8 -13 -4 0 12 -146 -67 -211 -115 -225 -166 -341 -410 -326 -683 13 -222 93
-396 256 -553 l56 -54 -46 -42 c-109 -100 -197 -243 -240 -389 -26 -91 -33
-277 -13 -371 13 -65 51 -172 76 -217 102 -184 275 -327 483 -398 54 -18 80
-24 165 -37 86 -14 250 -4 334 21 65 19 69 18 62 -9 -7 -24 -26 -117 -32 -157
-7 -49 -4 -191 6 -253 46 -289 243 -543 505 -649 96 -39 151 -50 275 -53 105
-3 139 0 215 20 162 41 277 108 394 227 39 40 71 67 71 61 0 -19 121 -132 190
-177 138 -89 261 -128 426 -132 158 -3 281 25 404 95 213 120 354 315 415 576
17 74 16 276 -2 355 -28 127 -31 117 27 100 19 -6 51 -13 70 -16 19 -3 46 -7
60 -9 50 -9 187 -6 252 4 157 26 333 112 449 219 133 123 196 236 248 443 16
66 6 276 -18 358 -43 147 -127 284 -234 383 l-51 46 72 74 c160 164 231 331
237 558 5 220 -59 393 -204 552 -120 131 -307 235 -476 264 -22 4 -49 8 -60
10 -54 10 -238 3 -287 -12 -9 -3 -25 -6 -35 -8 -10 -2 -30 -7 -45 -11 -31 -8
-34 -1 -18 40 24 63 35 317 17 410 -64 341 -342 623 -664 674 -138 22 -297 6
-423 -42 -61 -23 -159 -73 -170 -86 -3 -3 -23 -19 -44 -35 -22 -17 -64 -55
-93 -85 l-53 -56 -53 56 c-157 165 -342 247 -573 255 -67 2 -123 2 -125 0z"/>
</g>
</svg>
