<svg xmlns="http://www.w3.org/2000/svg" viewBox="0 0 293.37 319.45"><defs><style>.cls-1{fill:#991b31;}.cls-2{fill:#eb2050;}.cls-3{fill:#ffd175;}.cls-4{fill:#ffdc7a;}.cls-5{fill:#52c8ef;}.cls-6{fill:#68c38b;}.cls-7{fill:#f8995f;}.cls-8{fill:#f0a2c5;}.cls-9{fill:none;stroke:#991b31;stroke-miterlimit:10;}</style></defs><g id="Layer_2" data-name="Layer 2"><g id="Layer_1-2" data-name="Layer 1"><path class="cls-1" d="M225.12,15.32H68.36s-13.7.2-10.55,10.82C60.15,34,67.3,47.57,73,57.74c0,0,40.87-5.83,74.1-5.83,33,0,67.32,5.2,72.77,7.43,5.86-10.16,13.63-24.59,15.81-33.2C238.4,15.32,225.12,15.32,225.12,15.32Z"/><path class="cls-2" d="M201.06,70.5s7.4-37.7,11.67-56C216.13-.08,204.9,0,204.9,0H88.47S77.24-.08,80.64,14.5c4.27,18.3,11.45,56,11.45,56L146,68.26Z"/><path class="cls-1" d="M113.78,68.3,179.58,71v0L114.18,68.3Z"/><path class="cls-3" d="M113.44,71l64.9-2.68c.53,0,1.06,0,1.59,0l-1,0Z"/><path class="cls-3" d="M146.67,57.74l0,0,0,0Z"/><path class="cls-2" d="M115.08,223h177c2.79-21.8,1.06-42.42-6.29-67.22C268.46,97.19,213,71,213,71l-65.49-2.72h-1.3L80.69,71S25.2,97.19,7.84,155.74C.17,181.61-1.83,198.58,1.65,223H115.08Z"/><path class="cls-2" d="M40.31,296l-.3-.24Z"/><path class="cls-2" d="M44.4,299c-.88-.58-1.73-1.19-2.58-1.8C42.67,297.76,43.53,298.37,44.4,299Z"/><path class="cls-2" d="M3.13,232c0-.14,0-.29-.08-.43C3.08,231.73,3.1,231.88,3.13,232Z"/><path class="cls-4" d="M29.63,285.79c-1.42-1.72-3.11-3.76-4.94-6C26.4,282,28,284,29.38,285.62A65.2,65.2,0,0,0,40,295.79,65.06,65.06,0,0,1,29.63,285.79Z"/><path class="cls-4" d="M1.56,223s.65,3.94,1.49,8.63c-.54-3-1-5.86-1.4-8.63Z"/><path class="cls-4" d="M44.52,299,44.4,299Z"/><path class="cls-4" d="M41.82,297.15,40.31,296Z"/><path class="cls-4" d="M5.8,245.28c-1-4.7-1.92-9.09-2.67-13.26C4,236.94,5.08,242.55,5.8,245.28Z"/><path class="cls-4" d="M55.16,223H1.65c.4,2.77.86,5.64,1.4,8.63,0,.14.05.29.08.43.75,4.17,1.64,8.56,2.67,13.26h0c3.44,12.92,12.07,25.64,18.89,34.48,1.83,2.27,3.52,4.31,4.94,6a65.06,65.06,0,0,0,10.38,10l.3.24,1.51,1.12c.85.61,1.7,1.22,2.58,1.8l.12.08a91.24,91.24,0,0,0,10.64,6Z"/><path class="cls-5" d="M55.16,223V305c19.17,9.19,41.91,12.69,59.92,13.88V223Z"/><path class="cls-6" d="M115.08,223V318.9a231.11,231.11,0,0,0,31.5.06A278.42,278.42,0,0,0,176,317.89V223Z"/><path class="cls-7" d="M292.11,223s0,.07,0,.1,0-.06,0-.1Z"/><path class="cls-7" d="M236.12,223v81.6c10.95-4.66,20.72-10.81,27.66-18.94s19.74-23.83,23.83-40.51a205.92,205.92,0,0,0,4.48-22.05s0-.07,0-.1Z"/><path class="cls-8" d="M176,317.89c17.86-1.54,40.86-5.12,60.16-13.33V223H176Z"/><path class="cls-3" d="M73.25,57.74l0,0L80.88,71l65.49-2.72,1,0h.39L213.17,71c.08-.13,3.1-4.95,7-11.62-5.44-2.23-39.8-7.43-72.76-7.43C114.12,51.91,73.28,57.74,73.25,57.74Z"/><path class="cls-3" d="M201.59,85.83c-12.28-20.13-54.9-17.57-54.9-17.57s-42-2.56-54.24,17.57c0,0-4.83,8.53,3.34,16.36,4.61,4.42,11.18,3.63,14.8,2.72,6.13-1.53,13.28-4.6,31.15-27.74a226.56,226.56,0,0,1-9.62,35s-5.63,1.29-4.5,7.89c1,5.74,8.09,4.43,8.09,4.43s3.78-.64,4.12-5.45a6.28,6.28,0,0,0-2.13-5.45S144,95.06,147,82l.21-1.15.28,1.15c2.48,11,8.83,31.55,8.83,31.55a6.28,6.28,0,0,0-2.13,5.45c.34,4.81,4.12,5.45,4.12,5.45s7.12,1.31,8.09-4.43c1.13-6.6-4.78-7.51-4.78-7.51-3.07-8.17-9.34-35.38-9.34-35.38,17.87,23.14,25,26.21,31.15,27.74,3.62.91,10.19,1.7,14.8-2.72C206.42,94.36,201.59,85.83,201.59,85.83Zm-83.78,8c-3.41,2.51-10.21,8.22-16.33,4.52-6.94-4.18-2.67-10.61-2.67-10.61,9-12.07,38.39-14.38,38.39-14.38S124.12,89.19,117.81,93.83ZM192,98.35c-6.13,3.7-12.92-2-16.33-4.52-6.31-4.64-19.4-20.47-19.4-20.47s29.43,2.31,38.4,14.38C194.7,87.74,199,94.17,192,98.35Z"/><line class="cls-9" x1="111.32" y1="52.9" x2="105.45" y2="21.75"/><line class="cls-9" x1="182.05" y1="52.9" x2="187.92" y2="21.75"/><line class="cls-9" x1="146.69" y1="51.67" x2="146.69" y2="21.82"/></g></g></svg>