<svg width="170" height="170" viewBox="0 0 170 170" fill="none" xmlns="http://www.w3.org/2000/svg">
<g clip-path="url(#clip0_630_486)">
<path d="M85 170C131.944 170 170 131.944 170 85C170 38.0558 131.944 0 85 0C38.0558 0 0 38.0558 0 85C0 131.944 38.0558 170 85 170Z" fill="#FCF7CF"/>
<path d="M111.856 20.1341L114.821 12.9641C105.369 9.05253 95.2396 7.04181 85.0107 7.04688V14.7986C94.2233 14.7918 103.347 16.605 111.856 20.1341Z" fill="#F5AA55"/>
<path d="M85.0109 14.7986V7.04691C74.7744 7.03772 64.6367 9.04854 55.1787 12.9641L58.1653 20.1342C66.6751 16.605 75.7983 14.7918 85.0109 14.7986Z" fill="#DF1B47"/>
<path d="M35.3576 35.3579L29.8766 29.877C22.6376 37.1186 16.8913 45.7115 12.9639 55.1678L20.1339 58.1655C23.6622 49.6374 28.8351 41.8875 35.3576 35.3579Z" fill="#429DD4"/>
<path d="M58.1655 20.1341L55.2013 12.9641C45.7331 16.8877 37.1285 22.6342 29.877 29.8769L35.3579 35.3578C41.8875 28.8354 49.6374 23.6624 58.1655 20.1341Z" fill="#76BC7D"/>
<path d="M149.888 111.857L157.047 114.821C160.959 105.37 162.966 95.2399 162.953 85.0112H155.201C155.215 94.2223 153.409 103.345 149.888 111.857Z" fill="#F5AA55"/>
<path d="M134.642 35.3578L140.123 29.8769C132.881 22.6379 124.288 16.8915 114.832 12.9641L111.856 20.1341C120.377 23.665 128.119 28.8378 134.642 35.3578Z" fill="#429DD4"/>
<path d="M149.888 58.1654L157.047 55.2012C153.127 45.7433 147.384 37.1496 140.145 29.9104L134.664 35.3914C141.183 41.9111 146.356 49.6493 149.888 58.1654Z" fill="#76BC7D"/>
<path d="M155.201 85.0112H162.953C162.963 74.7734 160.949 64.6346 157.024 55.179L149.888 58.1655C153.409 66.6769 155.215 75.8001 155.201 85.0112Z" fill="#DF1B47"/>
<path d="M20.1341 58.1656L12.9641 55.2014C9.05141 64.6525 7.04065 74.7823 7.04689 85.0113H14.7986C14.7918 75.7987 16.605 66.6755 20.1341 58.1656Z" fill="#F5AA55"/>
<path d="M111.856 149.888L114.821 157.047C124.279 153.128 132.872 147.385 140.111 140.146L134.63 134.665C128.111 141.183 120.373 146.356 111.856 149.888Z" fill="#76BC7D"/>
<path d="M149.888 111.857C146.356 120.373 141.183 128.111 134.664 134.631L140.145 140.112C147.384 132.873 153.127 124.279 157.047 114.821L149.888 111.857Z" fill="#429DD4"/>
<path d="M58.1654 149.888L55.2012 157.047C64.6515 160.961 74.7823 162.968 85.011 162.953V155.201C75.7999 155.215 66.6768 153.41 58.1654 149.888Z" fill="#F5AA55"/>
<path d="M85.0107 155.201V162.953C95.2484 162.963 105.387 160.948 114.843 157.025L111.856 149.888C103.345 153.41 94.2218 155.215 85.0107 155.201Z" fill="#DF1B47"/>
<path d="M35.3579 134.642L29.877 140.123C37.1161 147.362 45.7098 153.105 55.1678 157.025L58.1655 149.888C49.6356 146.353 41.8855 141.173 35.3579 134.642Z" fill="#429DD4"/>
<path d="M14.7986 85.0112H7.0469C7.03889 95.2476 9.04966 105.385 12.9641 114.843L20.1341 111.857C16.605 103.347 14.7918 94.2238 14.7986 85.0112Z" fill="#DF1B47"/>
<path d="M20.1339 111.857L12.9639 114.821C16.8913 124.277 22.6376 132.87 29.8766 140.112L35.3576 134.631C28.8388 128.111 23.666 120.373 20.1339 111.857Z" fill="#76BC7D"/>
<path d="M76.9027 51.28V59.52H50.3427V51.28H76.9027ZM49.7027 88.8V79.44H56.1027V89.04C56.1027 97.36 55.6227 106.96 52.3427 114.56C51.1427 113.2 48.5027 111.2 46.8227 110.24C49.3027 103.84 49.7027 95.68 49.7027 88.8ZM70.9827 107.36V79.36H77.2227V107.36H70.9827ZM48.3427 75.44V67.04H78.0227V75.44H67.5427V120.96H59.5427V75.44H48.3427ZM95.5427 92.72H87.9427V98.08H95.5427V92.72ZM111.543 98.08V92.72H103.703V98.08H111.543ZM103.703 110.88H111.543V105.44H103.703V110.88ZM87.9427 105.44V110.88H95.5427V105.44H87.9427ZM79.7027 120.96V85.2H120.183V120.96H111.543V118.32H87.9427V120.96H79.7027ZM108.423 74.72V68.88H91.2227V74.72H108.423ZM82.6627 62H117.463V81.6H82.6627V62ZM79.2227 49.92H120.503V57.84H79.2227V49.92Z" fill="#424242"/>
</g>
<defs>
<clipPath id="clip0_630_486">
<rect width="170" height="170" fill="white"/>
</clipPath>
</defs>
</svg>
