<svg xmlns="http://www.w3.org/2000/svg" viewBox="0 0 151.98 151.98"><defs><style>.cls-1{fill:#fcf7cf;}.cls-2{fill:#f5aa55;}.cls-3{fill:#df1b47;}.cls-4{fill:#429dd4;}.cls-5{fill:#76bc7d;}</style></defs><g id="Layer_2" data-name="Layer 2"><g id="Layer_1-2" data-name="Layer 1"><circle class="cls-1" cx="75.99" cy="75.99" r="75.99"/><path class="cls-2" d="M100,18l2.65-6.41A69.6,69.6,0,0,0,76,6.3v6.93A62.53,62.53,0,0,1,100,18Z"/><path class="cls-3" d="M76,13.23V6.3a69.56,69.56,0,0,0-26.67,5.29L52,18A62.53,62.53,0,0,1,76,13.23Z"/><path class="cls-4" d="M31.61,31.61l-4.9-4.9A69.91,69.91,0,0,0,11.59,49.32L18,52A62.85,62.85,0,0,1,31.61,31.61Z"/><path class="cls-5" d="M52,18l-2.65-6.41A69.91,69.91,0,0,0,26.71,26.71l4.9,4.9A62.85,62.85,0,0,1,52,18Z"/><path class="cls-2" d="M134,100l6.4,2.65A69.42,69.42,0,0,0,145.68,76h-6.93A62.53,62.53,0,0,1,134,100Z"/><path class="cls-4" d="M120.37,31.61l4.9-4.9a69.91,69.91,0,0,0-22.61-15.12L100,18A62.85,62.85,0,0,1,120.37,31.61Z"/><path class="cls-5" d="M134,52l6.4-2.65a69.72,69.72,0,0,0-15.11-22.61l-4.9,4.9A62.85,62.85,0,0,1,134,52Z"/><path class="cls-3" d="M138.75,76h6.93a69.38,69.38,0,0,0-5.3-26.67L134,52A62.53,62.53,0,0,1,138.75,76Z"/><path class="cls-2" d="M18,52l-6.41-2.65A69.56,69.56,0,0,0,6.3,76h6.93A62.53,62.53,0,0,1,18,52Z"/><path class="cls-5" d="M100,134l2.65,6.4a69.72,69.72,0,0,0,22.61-15.11l-4.9-4.9A62.85,62.85,0,0,1,100,134Z"/><path class="cls-4" d="M134,100a62.85,62.85,0,0,1-13.61,20.36l4.9,4.9a69.72,69.72,0,0,0,15.11-22.61Z"/><path class="cls-2" d="M52,134l-2.65,6.4A69.38,69.38,0,0,0,76,145.68v-6.93A62.53,62.53,0,0,1,52,134Z"/><path class="cls-3" d="M76,138.75v6.93a69.42,69.42,0,0,0,26.67-5.3L100,134A62.53,62.53,0,0,1,76,138.75Z"/><path class="cls-4" d="M31.61,120.37l-4.9,4.9a69.72,69.72,0,0,0,22.61,15.11L52,134A62.85,62.85,0,0,1,31.61,120.37Z"/><path class="cls-3" d="M13.23,76H6.3a69.6,69.6,0,0,0,5.29,26.67L18,100A62.53,62.53,0,0,1,13.23,76Z"/><path class="cls-5" d="M18,100l-6.41,2.65a69.91,69.91,0,0,0,15.12,22.61l4.9-4.9A62.85,62.85,0,0,1,18,100Z"/></g></g></svg>