<svg width="1920" height="150" viewBox="0 0 1920 150" fill="none" xmlns="http://www.w3.org/2000/svg">
<path d="M0.0230057 7.25305C0.0230057 7.25305 -3.21696 8.69304 67.2022 6.27306C121.752 4.40108 215.07 5.68107 276.61 10.245C295.019 11.601 437.068 8.26905 455.428 6.89706C562.486 -1.10288 605.076 10.277 720.174 5.69707C832.283 1.2011 1014.71 19.237 1139.29 8.03705C1241.94 -1.18688 1459.29 2.50909 1470.67 5.29307L1559.88 8.03705C1572.31 8.03705 1656.88 3.63708 1717.24 1.5691C1757.55 0.201106 1807.24 5.76906 1834.89 2.15709C1870.18 -2.45087 1920 1.75709 1920 1.75709V150H0.0230057V7.25305Z" fill="url(#paint0_linear_630_482)"/>
<defs>
<linearGradient id="paint0_linear_630_482" x1="960.012" y1="150" x2="960.012" y2="0.00110864" gradientUnits="userSpaceOnUse">
<stop stop-color="#60B47F"/>
<stop offset="1" stop-color="#8BD38D"/>
</linearGradient>
</defs>
</svg>
