<svg xmlns="http://www.w3.org/2000/svg" xmlns:xlink="http://www.w3.org/1999/xlink" viewBox="0 0 717.45 350.04"><defs><style>.cls-1{fill:#fff;}.cls-2{fill:none;stroke:#f6d8a4;stroke-miterlimit:10;stroke-width:3px;}.cls-3{fill:url(#linear-gradient);}.cls-4{fill:url(#linear-gradient-2);}.cls-5{fill:url(#linear-gradient-3);}.cls-6{fill:url(#linear-gradient-4);}.cls-7{fill:url(#linear-gradient-5);}.cls-8{fill:url(#linear-gradient-6);}.cls-9{fill:url(#linear-gradient-7);}.cls-10{fill:url(#linear-gradient-8);}.cls-11{fill:url(#linear-gradient-9);}.cls-12{fill:url(#linear-gradient-10);}</style><linearGradient id="linear-gradient" x1="695.23" y1="18.64" x2="703.4" y2="18.64" gradientUnits="userSpaceOnUse"><stop offset="0" stop-color="#b17f4a"/><stop offset="1" stop-color="#b3724e"/></linearGradient><linearGradient id="linear-gradient-2" x1="691.4" y1="7.91" x2="707.23" y2="7.91" gradientUnits="userSpaceOnUse"><stop offset="0" stop-color="#b17f4a"/><stop offset="1" stop-color="#936037"/></linearGradient><linearGradient id="linear-gradient-3" x1="697.11" y1="434.81" x2="705.28" y2="434.81" gradientTransform="matrix(1, 0, 0, -1, -1.87, 766.04)" xlink:href="#linear-gradient"/><linearGradient id="linear-gradient-4" x1="693.28" y1="424.09" x2="709.11" y2="424.09" gradientTransform="matrix(1, 0, 0, -1, -1.87, 766.04)" xlink:href="#linear-gradient-2"/><linearGradient id="linear-gradient-5" x1="681.19" y1="175.11" x2="717.45" y2="175.11" gradientUnits="userSpaceOnUse"><stop offset="0" stop-color="#e8d162"/><stop offset="1" stop-color="#c3a722"/></linearGradient><linearGradient id="linear-gradient-6" x1="14.04" y1="18.81" x2="22.21" y2="18.81" xlink:href="#linear-gradient"/><linearGradient id="linear-gradient-7" x1="10.21" y1="8.09" x2="26.04" y2="8.09" xlink:href="#linear-gradient-2"/><linearGradient id="linear-gradient-8" x1="15.92" y1="434.64" x2="24.09" y2="434.64" gradientTransform="matrix(1, 0, 0, -1, -1.87, 766.04)" xlink:href="#linear-gradient"/><linearGradient id="linear-gradient-9" x1="12.09" y1="423.91" x2="27.92" y2="423.91" gradientTransform="matrix(1, 0, 0, -1, -1.87, 766.04)" xlink:href="#linear-gradient-2"/><linearGradient id="linear-gradient-10" x1="0" y1="175.28" x2="36.26" y2="175.28" xlink:href="#linear-gradient-5"/></defs><g id="Layer_2" data-name="Layer 2"><g id="Layer_1-2" data-name="Layer 1"><rect class="cls-1" x="36.26" y="28.96" width="644.94" height="291.83"/><polygon class="cls-2" points="75.7 53.09 641.75 53.09 641.75 97.51 619.53 97.51 619.53 75.3 662.43 75.3 662.43 276.75 620.3 276.75 620.3 254.53 640.21 254.53 640.21 296.66 75.7 296.66 75.7 253.77 97.92 253.77 97.92 276.75 55.02 276.75 55.02 76.07 97.15 76.07 97.15 96.75 75.7 96.75 75.7 53.09"/><rect class="cls-3" x="695.23" y="14.04" width="8.17" height="9.19"/><circle class="cls-4" cx="699.32" cy="7.91" r="7.91"/><rect class="cls-5" x="695.23" y="326.64" width="8.17" height="9.19"/><circle class="cls-6" cx="699.32" cy="341.96" r="7.91"/><rect class="cls-7" x="681.19" y="20.64" width="36.26" height="308.94" rx="18.13"/><rect class="cls-8" x="14.04" y="14.21" width="8.17" height="9.19"/><circle class="cls-9" cx="18.13" cy="8.09" r="7.91"/><rect class="cls-10" x="14.04" y="326.81" width="8.17" height="9.19"/><circle class="cls-11" cx="18.13" cy="342.13" r="7.91"/><rect class="cls-12" y="20.81" width="36.26" height="308.94" rx="18.13"/></g></g></svg>