<svg xmlns="http://www.w3.org/2000/svg" viewBox="0 0 292.24 179.68"><defs><style>.cls-1{fill:#807166;}.cls-2{fill:#1b6540;}.cls-3{fill:#77b197;}.cls-4{fill:#438c4f;}</style></defs><g id="Layer_2" data-name="Layer 2"><g id="Layer_1-2" data-name="Layer 1"><path class="cls-1" d="M0,178c2.51.47,4.87.92,7.18,1.22s4.51.36,6.81.42A74.78,74.78,0,0,0,29.3,178c2-.35,5.28-1.12,12.05-2.7l10.08-2.65,5.8-1.67c2-.57,4.07-1.17,6.15-1.84l6.35-2c2.14-.69,4.27-1.44,6.42-2.17,4.3-1.4,8.51-3,12.58-4.51,2-.75,4-1.57,5.89-2.31s3.75-1.45,5.48-2.22l5-2.13c1.55-.66,3-1.29,4.29-1.92l6.19-2.91,2.25-1.16,1.89-1,2.23-1.15,1.4-.73,1.53-.9c2.15-1.29,4.78-2.64,7.56-4.62l2.15-1.46,1.12-.75,1.07-.82c1.43-1.11,3-2.24,4.46-3.45a164,164,0,0,0,18-16.85,168.38,168.38,0,0,0,14.42-18.06c.66-1,1.32-1.88,1.9-2.77l1.63-2.55,1.46-2.28,1.22-2.07c.76-1.3,1.42-2.42,2-3.39s1-1.8,1.33-2.47c.72-1.36,1.4-2.63,2-3.89s1.09-2.48,1.57-3.66l.69-1.74q.28-.87.57-1.71c.36-1.14.7-2.25,1-3.35.62-2.2,1-4.42,1.4-6.68s.57-4.66.82-7.21l-3.91,6c-1.28,1.88-2.38,3.73-3.57,5.6-.59.93-1.17,1.89-1.75,2.87l-.85,1.51-.92,1.54c-.61,1-1.23,2.15-1.85,3.32l-2,3.64L175,81.17l-1.9,3.22c-.37.61-.76,1.27-1.17,2l-1.4,2.17L168.94,91c-.55.85-1.18,1.71-1.81,2.63a159.8,159.8,0,0,1-13.74,17.22,157.17,157.17,0,0,1-17.12,16.07c-1.44,1.15-2.88,2.22-4.24,3.28q-.51.41-1,.78t-1,.69L128,133c-2.49,1.8-5,3.11-7,4.32l-1.44.85-1.34.7-2.13,1.11-1.82.94L112.09,142l-6,2.81c-1.26.61-2.67,1.23-4.18,1.87l-4.82,2.06c-1.69.75-3.51,1.42-5.37,2.17s-3.78,1.52-5.77,2.26c-4,1.44-8.12,3-12.35,4.42l-6.3,2.12-6.24,2c-2,.66-4.06,1.25-6,1.81l-5.69,1.64-9.88,2.61c-6.6,1.54-9.78,2.31-11.74,2.67-5.78,1.26-10.27,2.31-14.51,3.62-2.12.58-4.18,1.23-6.33,2S2.49,177.26,0,178Z"/><path class="cls-1" d="M137.46,131a65.34,65.34,0,0,0,14.07.41,74.63,74.63,0,0,0,15.11-2.89c2-.58,5.2-1.48,11.8-3.73,2.21-.73,5.15-1.81,8.32-3,1.59-.63,3.23-1.3,4.87-2s3.27-1.53,4.75-2.29c3-1.54,5.55-2.89,7.42-3.75s3-1.29,3-1.29,1-.39,2.54-.86a36.62,36.62,0,0,1,6.54-1.22c2.73-.32,6-.47,9.27-.94,1.64-.26,3.27-.49,4.78-.85.76-.17,1.5-.31,2.21-.5l2-.56a68.08,68.08,0,0,0,11.11-4.26c1.4-.69,2.57-1.36,3.6-1.89l2.49-1.51A42.35,42.35,0,0,0,263.16,89a43.33,43.33,0,0,0,6.45-12.69A102.67,102.67,0,0,1,259.1,85c-3.48,2.53-7,5.17-11.85,8.11L245,94.43c-.92.47-2,1.06-3.2,1.67A62.31,62.31,0,0,1,232,99.85l-1.79.49c-.62.17-1.27.28-1.94.43-1.33.33-2.75.52-4.19.75-2.87.43-6.06.59-9.09.94a44.84,44.84,0,0,0-7.88,1.52c-1,.3-1.77.57-2.3.77s-.82.3-.82.3-1.4.51-3.49,1.48-4.84,2.39-7.7,3.85c-1.44.73-2.9,1.46-4.39,2.11s-3.05,1.3-4.55,1.9c-3,1.17-5.85,2.21-8,2.93-6.39,2.19-9.54,3.08-11.45,3.67-5.66,1.69-10.05,3.18-14.17,4.79S142.29,129.15,137.46,131Z"/><path class="cls-1" d="M222.85,107.16c1.46-2.46,2.21-3.87,1.53-5.29-.37-.77-1.52-3.06-2.44-5.23s-1.67-4.17-1.67-4.17-.71-2-1.36-4.27-1.22-4.76-1.43-5.59c-.38-1.53-1.86-2.14-4.54-3.11-2.24,1.76-3.39,3-3.09,4.72.16.93.78,3.7,1.53,6.18s1.55,4.71,1.55,4.71.77,2.23,1.79,4.61,2.27,4.93,2.74,5.75C218.32,107,220,107.21,222.85,107.16Z"/><path class="cls-1" d="M95.39,158a16.9,16.9,0,0,0,1.37,4.73,9.4,9.4,0,0,0,3.3,3.39l1.89,1.09c.4.22.84.49,1.33.73l1.57.74,1.72.8c.6.26,1.23.48,1.87.72l1.93.73c.65.23,1.32.41,2,.61l1.94.57c.63.17,1.27.29,1.87.43,1.21.25,2.31.54,3.27.65l3.13.45,3.16.25c1,.11,2.1.07,3.33.09.62,0,1.26,0,1.92,0l2-.13c.68,0,1.37-.08,2.06-.16l2-.28c.67-.1,1.34-.17,2-.3l1.86-.4,1.69-.37c.53-.12,1-.29,1.46-.42l2.08-.64a9.3,9.3,0,0,0,4-2.58,16.15,16.15,0,0,0,2.39-4.31,27.91,27.91,0,0,0-4.64-.95,9,9,0,0,0-4.13.43l-1.79.51c-.38.1-.79.25-1.24.35l-1.46.31-1.59.34c-.55.11-1.12.17-1.7.25l-1.76.25c-.59.07-1.19.09-1.77.14l-1.74.12c-.57,0-1.13,0-1.66,0-1.07,0-2,0-2.88-.07l-2.73-.19-2.71-.42c-.83-.09-1.78-.35-2.82-.57-.52-.12-1.07-.22-1.61-.37l-1.67-.51c-.57-.17-1.15-.32-1.71-.52l-1.65-.63c-.55-.21-1.1-.4-1.61-.62l-1.47-.69-1.35-.62c-.42-.2-.79-.43-1.14-.62l-1.63-.89a9.06,9.06,0,0,0-3.93-1.33A27.29,27.29,0,0,0,95.39,158Z"/><path class="cls-1" d="M172.4,94.22c-4.63-2.29-8.49-4.18-12.61-5.88s-8.51-3.24-14.14-5c-1.9-.6-5-1.54-11.33-3.85-2.36-.9-6.32-2.44-9.6-3.93-1.66-.71-3.13-1.44-4.22-1.94l-1.73-.86L117.31,72l-3.53-1.91c-2.74-1.57-6-3.56-8.29-5.12a102.4,102.4,0,0,1-13.4-10.67c-4.19-3.95-7.37-7.12-10.48-10.16s-6.15-5.94-9.55-9.83a50.91,50.91,0,0,0,5,13.27A51.77,51.77,0,0,0,86.71,60,107.46,107.46,0,0,0,101.1,71.51C103.5,73.19,107,75.3,110,77c1.49.79,2.8,1.52,3.76,2l1.55.77,1.83.92c1.14.53,2.69,1.32,4.43,2.07,3.45,1.59,7.59,3.2,10.06,4.12,6.58,2.4,9.81,3.35,11.78,4a78.38,78.38,0,0,0,15,3.08A108,108,0,0,0,172.4,94.22Z"/><path class="cls-1" d="M106.54,69.31a6.27,6.27,0,0,0,4.71,2.35,7.65,7.65,0,0,0,5.14-1.86,26,26,0,0,0,4-4.14,45.34,45.34,0,0,0,4.26-6.76c1.25-2.35,2.22-4.64,2.93-6.32l1.1-2.79s1.69-4.38,3.16-9.26,2.77-10.27,3.15-12.07c.69-3.33-.24-5.53-2.17-8.72-3,2.28-4.66,3.8-5.44,7-.42,1.71-1.66,6.9-3.06,11.55S121.35,47,121.35,47l-1,2.57c-.66,1.54-1.56,3.62-2.66,5.66a38.35,38.35,0,0,1-3.5,5.58,21.22,21.22,0,0,1-2.78,3,9.64,9.64,0,0,0-2,2.45A8.58,8.58,0,0,1,106.54,69.31Z"/><path class="cls-2" d="M132.14.07c-.87-.06-1.7-.07-2.51-.07l2.13,20.25Z"/><path class="cls-2" d="M135.49.46c-.81-.12-1.59-.22-2.35-.29l-.39,20.5Z"/><path class="cls-2" d="M113.79,5.34c-.47.32-1,.67-1.44,1L125.74,21Z"/><path class="cls-2" d="M138.81,1.05c-.78-.16-1.54-.31-2.28-.44l-2.75,20.33Z"/><path class="cls-2" d="M117,3.35c-.79.43-1.58.92-2.38,1.44l12.94,16.93Z"/><path class="cls-2" d="M120.19,1.83c-.76.31-1.53.66-2.3,1l10.79,18.77Z"/><path class="cls-2" d="M124.53.51a22.31,22.31,0,0,0-3.4,1l9.12,21.31Z"/><path class="cls-2" d="M151.83,9.3c-.61-.72-1.28-1.42-2-2.1L137.3,23.33Z"/><path class="cls-2" d="M154.44,12.78c-.59-.89-1.25-1.8-2-2.71L139.7,22.41Z"/><polygon class="cls-2" points="132.23 24.49 132.21 24.49 132.22 24.61 132.23 24.49"/><path class="cls-2" d="M142.69,2.25a18.63,18.63,0,0,0-2.87-1L134.2,23.47Z"/><path class="cls-2" d="M108,9.81a.41.41,0,0,0,0,.64l19.83,14.83.07,0L109.11,8.9Z"/><path class="cls-2" d="M156.48,16.23q-.61-1.2-1.47-2.58l-14.83,9.69Z"/><path class="cls-2" d="M146.29,4.24a20.66,20.66,0,0,0-2.7-1.57L135.83,22.1Z"/><path class="cls-2" d="M149.13,6.51a25,25,0,0,0-2-1.66L137.07,22Z"/><path class="cls-2" d="M111.55,7h0c-.55.41-1.1.84-1.67,1.29l14.22,12.43Z"/><path class="cls-2" d="M128.62,0a28,28,0,0,0-3.1.31L130.84,21Z"/><path class="cls-2" d="M157.61,18.77c-.16-.46-.4-1-.68-1.63l-20.68,9c.57-.12,1.17-.26,1.8-.45l18.62-5.93C157.49,19.56,157.9,19.57,157.61,18.77Z"/><path class="cls-3" d="M128.5,24.6l-.43.4-4-4.32L109.89,8.25l-.78.65,18.8,16.43a6.41,6.41,0,0,0,1.76.8Z"/><path class="cls-3" d="M128.8,24.32l-.25.24,1.3,1.14-2.28-4L114.63,4.79l-.84.55L125.74,21Z"/><path class="cls-3" d="M129.85,25.7l-1.3-1.14-.05,0,1.17,1.53.5.13Z"/><path class="cls-3" d="M121.11,1.43l-.92.39h0c.31-.13.63-.25.94-.36Z"/><path class="cls-3" d="M131.4,26.39l-.09-.88-.34.09-.72-2.82L121.13,1.47c-.31.11-.63.23-.94.36l8.49,19.82Z"/><path class="cls-3" d="M132.68,24.5h-.45v.12l.18,1.75,1.38-5.42L136.53.61l-1-.15-2.74,20.21Z"/><path class="cls-3" d="M132.42,26.55h.27l-.27-.07Z"/><path class="cls-3" d="M132.21,24.49h-.49l.22.86-.54.14.39.89-.27.11.44,0,.26-1.91Z"/><path class="cls-3" d="M131.68,24.33l.08-4.08L129.63,0l-1,0,2.22,21Z"/><path class="cls-3" d="M131.4,25.48l-.09,0,.09.88,0,.09h.07l.27-.11Z"/><path class="cls-3" d="M132.37,26.47l0-.11-.18-1.75L132,26.52l.46,0v-.07Z"/><path class="cls-3" d="M133,26.38l1.16-2.91,5.62-22.19c-.17,0-.32-.1-.49-.13l-.52-.1-5,19.89Z"/><path class="cls-3" d="M133,26.38l.74-5.44-1.38,5.42,0,.12.27.07H133Z"/><polygon class="cls-3" points="132.42 26.48 132.4 26.36 132.38 26.47 132.42 26.48"/><path class="cls-3" d="M133.58,25.94l2.25-3.84,7.76-19.43q-.43-.22-.9-.42L134.2,23.47Z"/><path class="cls-3" d="M133.22,26.54l.36-.6.62-2.47L133,26.38l0,.17Z"/><path class="cls-3" d="M133,26.55l0-.17-.07.17Z"/><path class="cls-3" d="M135,25.59l2.33-2.26L149.86,7.2c-.24-.23-.48-.47-.73-.69L137.07,22Z"/><path class="cls-3" d="M135.81,25.25l1.06-.46-.24-.37,3.07-2,12.76-12.34c-.21-.26-.41-.52-.63-.77l-14.53,14Z"/><polygon class="cls-3" points="135.81 25.25 137.3 23.34 134.97 25.59 134.95 25.63 135.81 25.25"/><path class="cls-3" d="M156.48,16.23l-16.3,7.11-3,1.95L137,25l-1.32,1.28.56-.12,20.68-9Z"/><path class="cls-3" d="M134.51,26.46l0,0,0,0Z"/><path class="cls-3" d="M135.81,25.25l-.89,1.15.77-.11L137,25l-.14-.22Z"/><path class="cls-3" d="M135,25.63l-.47.8,0,0,.41-.06.89-1.15Z"/><path class="cls-3" d="M131.27,25.17,130.84,21,125.52.33c-.33.06-.66.11-1,.18l5.72,22.27Z"/><polygon class="cls-3" points="130.25 22.78 130.97 25.59 131.31 25.5 131.27 25.17 130.25 22.78"/><polygon class="cls-3" points="131.94 25.34 131.72 24.48 131.68 24.48 131.68 24.33 130.84 21.05 131.27 25.17 131.4 25.48 131.94 25.34"/><polygon class="cls-3" points="131.27 25.17 131.31 25.5 131.4 25.48 131.27 25.17"/><path class="cls-3" d="M130.59,26.34h0l.1,0,0-.08Z"/><path class="cls-3" d="M130.16,25.12l-1.48-3.47L117.89,2.88c-.29.16-.59.3-.88.47l10.56,18.37Z"/><polygon class="cls-3" points="130.59 26.35 130.59 26.35 130.59 26.34 130.59 26.35"/><polygon class="cls-3" points="130.66 26.29 130.16 25.12 127.56 21.72 129.85 25.7 130.59 26.34 130.66 26.29"/><path class="cls-3" d="M129.85,25.7l.32.56.42.09h0Z"/><path class="cls-3" d="M131.4,26.39l-2.72-4.74,1.48,3.47.75,1-.25.19,0,.08.71.1Z"/><polygon class="cls-3" points="130.91 26.1 130.16 25.12 130.66 26.29 130.91 26.1"/><path class="cls-3" d="M131.45,26.48l0-.09v.08Z"/><path class="cls-3" d="M124.11,20.68l4.21,3.68L125.74,21,112.35,6.37l-.79.59h0Z"/><polygon class="cls-3" points="124.11 20.68 128.07 25 128.5 24.6 128.32 24.36 124.11 20.68"/><polygon class="cls-3" points="128.8 24.32 125.74 20.98 128.32 24.36 128.55 24.56 128.8 24.32"/><polygon class="cls-3" points="128.32 24.36 128.5 24.6 128.55 24.56 128.32 24.36"/><path class="cls-3" d="M132.21,24.49h0l.52-3.82.39-20.5-1-.1-.38,20.18Z"/><polygon class="cls-3" points="132.75 20.68 132.23 24.49 132.68 24.5 132.75 20.68"/><polygon class="cls-3" points="132.21 24.49 131.76 20.25 131.68 24.33 131.72 24.48 132.21 24.49"/><polygon class="cls-3" points="131.72 24.48 131.68 24.33 131.68 24.48 131.72 24.48"/><path class="cls-3" d="M134.07,26.5h.08l-.06,0Z"/><path class="cls-3" d="M134.59,25.2,137.07,22,147.12,4.85c-.27-.21-.54-.42-.83-.61L135.83,22.1Z"/><path class="cls-3" d="M133.8,26.22l.79-1,1.24-3.1-2.25,3.84-.16.6.65,0,0-.06Z"/><path class="cls-3" d="M133.42,26.54l.16-.6-.36.6A1.34,1.34,0,0,0,133.42,26.54Z"/><path class="cls-3" d="M134.12,26.35l0,.09.06,0h0Z"/><polygon class="cls-3" points="134.92 25.64 134.97 25.59 137.07 22.01 134.59 25.2 134.3 25.91 134.92 25.64"/><polygon class="cls-3" points="134.09 26.44 134.12 26.35 133.99 26.05 134.3 25.91 134.59 25.2 133.8 26.21 134.09 26.44"/><polygon class="cls-3" points="134.95 25.63 134.97 25.59 134.92 25.64 134.95 25.63"/><path class="cls-3" d="M134.92,25.64l-.62.27-.18.44.06.14.28,0,0,0-.18-.19Z"/><polygon class="cls-3" points="133.99 26.05 134.12 26.35 134.3 25.91 133.99 26.05"/><polygon class="cls-3" points="134.3 26.24 134.48 26.43 134.95 25.63 134.92 25.64 134.3 26.24"/><path class="cls-3" d="M137.54,24.5l2.64-1.16L155,13.65q-.27-.44-.57-.87L139.7,22.41Z"/><polygon class="cls-3" points="139.7 22.41 136.63 24.41 136.87 24.79 137.54 24.5 139.7 22.41"/><polygon class="cls-3" points="137.01 25.01 137.2 25.29 140.18 23.34 137.54 24.5 137.01 25.01"/><polygon class="cls-3" points="136.87 24.79 137.01 25.01 137.54 24.5 136.87 24.79"/><path class="cls-2" d="M189.23,34.13c-.91-.06-1.78-.08-2.64-.08l2.24,21.35Z"/><path class="cls-2" d="M192.77,34.53c-.85-.13-1.68-.23-2.48-.3l-.41,21.62Z"/><path class="cls-2" d="M169.9,39.68c-.5.34-1,.71-1.52,1.09l14.11,15.4Z"/><path class="cls-2" d="M196.27,35.16c-.82-.18-1.63-.33-2.4-.46L191,56.12Z"/><path class="cls-2" d="M173.28,37.58c-.82.46-1.66,1-2.5,1.52L184.41,57Z"/><path class="cls-2" d="M176.64,36c-.81.32-1.61.7-2.42,1.11l11.36,19.78Z"/><path class="cls-2" d="M181.21,34.58a24.76,24.76,0,0,0-3.58,1l9.61,22.47Z"/><path class="cls-2" d="M210,43.85c-.64-.75-1.34-1.49-2.08-2.21l-13.23,17Z"/><path class="cls-2" d="M212.75,47.52c-.62-.94-1.32-1.89-2.09-2.85l-13.45,13Z"/><polygon class="cls-2" points="189.34 59.87 189.31 59.87 189.32 59.99 189.34 59.87"/><path class="cls-2" d="M200.36,36.42a19.26,19.26,0,0,0-3-1l-5.92,23.4Z"/><path class="cls-2" d="M163.79,44.4a.43.43,0,0,0,0,.67L184.7,60.7l.07,0L165,43.43Z"/><path class="cls-2" d="M214.89,51.16c-.43-.84-.94-1.75-1.54-2.72L197.71,58.66Z"/><path class="cls-2" d="M204.15,38.52a22.84,22.84,0,0,0-2.84-1.65l-8.19,20.48Z"/><path class="cls-2" d="M207.15,40.91c-.67-.61-1.38-1.19-2.12-1.74l-10.6,18.08Z"/><path class="cls-2" d="M167.53,41.4v0c-.58.44-1.16.89-1.76,1.37l15,13.1Z"/><path class="cls-2" d="M185.53,34.08a26.25,26.25,0,0,0-3.27.32l5.6,21.84Z"/><path class="cls-2" d="M216.09,53.83c-.17-.48-.42-1.06-.72-1.71l-21.8,9.52c.6-.13,1.23-.27,1.9-.47l19.62-6.26C216,54.67,216.39,54.68,216.09,53.83Z"/><path class="cls-3" d="M185.4,60l-.46.42-4.17-4.55-15-13.1-.82.68,19.81,17.32a6.62,6.62,0,0,0,1.86.84Z"/><path class="cls-3" d="M185.72,59.69l-.27.25,1.37,1.2L184.41,57,170.78,39.1l-.88.58,12.59,16.49Z"/><path class="cls-3" d="M186.82,61.14l-1.37-1.2,0,0,1.23,1.61.53.14Z"/><path class="cls-3" d="M177.61,35.56l-1,.41h0c.33-.14.66-.26,1-.38Z"/><path class="cls-3" d="M188.46,61.87l-.1-.93L188,61l-.76-3L177.63,35.6c-.33.12-.66.24-1,.38l8.94,20.89Z"/><path class="cls-3" d="M189.8,59.88h-.47V60l.19,1.85L191,56.12l2.91-21.42c-.38-.07-.74-.11-1.1-.17l-2.89,21.32Z"/><path class="cls-3" d="M189.53,62h.29l-.29-.07Z"/><path class="cls-3" d="M189.3,59.87h-.51l.23.9-.56.15.4.94-.28.12.46,0,.28-2Z"/><path class="cls-3" d="M188.75,59.7l.08-4.3-2.24-21.35c-.36,0-.71,0-1.06,0l2.33,22.16Z"/><path class="cls-3" d="M188.46,60.91l-.1,0,.1.93,0,.09h.07l.28-.12Z"/><path class="cls-3" d="M189.48,62l0-.12L189.32,60,189,62l.49,0V62Z"/><path class="cls-3" d="M190.18,61.86l1.23-3.06,5.92-23.4-.52-.14-.54-.1-5.31,21Z"/><path class="cls-3" d="M190.18,61.86l.78-5.74-1.45,5.72,0,.13.29.07h.29Z"/><polygon class="cls-3" points="189.53 61.97 189.51 61.84 189.48 61.96 189.53 61.97"/><path class="cls-3" d="M190.75,61.4l2.37-4,8.19-20.48c-.31-.16-.63-.31-.95-.45l-9,22.38Z"/><path class="cls-3" d="M190.38,62l.37-.63.66-2.6-1.23,3.06,0,.18Z"/><path class="cls-3" d="M190.16,62l0-.18-.07.18Z"/><path class="cls-3" d="M192.22,61l2.46-2.38,13.23-17-.76-.73L194.43,57.25Z"/><path class="cls-3" d="M193.11,60.67l1.11-.49-.25-.39,3.24-2.12,13.45-13c-.22-.27-.44-.55-.67-.82l-15.31,14.8Z"/><polygon class="cls-3" points="193.11 60.67 194.68 58.65 192.22 61.03 192.2 61.07 193.11 60.67"/><path class="cls-3" d="M214.89,51.16l-17.18,7.5-3.14,2.05-.2-.3L193,61.76l.59-.12,21.8-9.52C215.22,51.82,215.06,51.49,214.89,51.16Z"/><path class="cls-3" d="M191.74,61.94l0,0,0,0Z"/><path class="cls-3" d="M193.11,60.67l-1,1.21.82-.12,1.39-1.35-.15-.23Z"/><path class="cls-3" d="M192.2,61.07l-.5.84,0,0,.42-.06,1-1.21Z"/><path class="cls-3" d="M188.32,60.59l-.46-4.35-5.6-21.84-1,.18,6,23.49Z"/><polygon class="cls-3" points="187.24 58.07 188 61.03 188.36 60.94 188.32 60.59 187.24 58.07"/><polygon class="cls-3" points="189.02 60.76 188.79 59.86 188.75 59.86 188.75 59.7 187.86 56.24 188.32 60.59 188.46 60.91 189.02 60.76"/><polygon class="cls-3" points="188.32 60.59 188.36 60.94 188.46 60.91 188.32 60.59"/><path class="cls-3" d="M187.6,61.82h0l.1,0,0-.09Z"/><path class="cls-3" d="M187.15,60.54l-1.57-3.67L174.22,37.09l-.94.49L184.41,57Z"/><polygon class="cls-3" points="187.6 61.83 187.61 61.83 187.6 61.82 187.6 61.83"/><polygon class="cls-3" points="187.68 61.76 187.15 60.54 184.41 56.95 186.82 61.14 187.6 61.82 187.68 61.76"/><path class="cls-3" d="M186.82,61.14l.34.59a3.12,3.12,0,0,0,.44.09h0Z"/><path class="cls-3" d="M188.46,61.87l-2.88-5,1.57,3.67.79,1-.26.2,0,.09.75.11Z"/><polygon class="cls-3" points="187.94 61.56 187.15 60.54 187.68 61.76 187.94 61.56"/><path class="cls-3" d="M188.51,62l0-.09V62Z"/><path class="cls-3" d="M180.77,55.85l4.44,3.88-2.72-3.56-14.11-15.4-.84.61v0Z"/><polygon class="cls-3" points="180.77 55.85 184.94 60.4 185.4 59.98 185.21 59.73 180.77 55.85"/><polygon class="cls-3" points="185.72 59.69 182.49 56.17 185.21 59.73 185.45 59.94 185.72 59.69"/><polygon class="cls-3" points="185.21 59.73 185.4 59.98 185.45 59.94 185.21 59.73"/><path class="cls-3" d="M189.3,59.87h0l.55-4,.41-21.62c-.35,0-.71-.08-1.06-.1l-.4,21.27Z"/><polygon class="cls-3" points="189.88 55.85 189.34 59.87 189.8 59.88 189.88 55.85"/><polygon class="cls-3" points="189.31 59.87 188.83 55.4 188.75 59.7 188.79 59.86 189.31 59.87"/><polygon class="cls-3" points="188.79 59.86 188.75 59.7 188.75 59.86 188.79 59.86"/><path class="cls-3" d="M191.27,62h.08l-.06,0Z"/><path class="cls-3" d="M191.81,60.61l2.62-3.36L205,39.17c-.29-.22-.58-.45-.88-.65l-11,18.83Z"/><path class="cls-3" d="M191,61.69l.83-1.08,1.31-3.26-2.37,4-.16.63.68-.05,0,0Z"/><path class="cls-3" d="M190.59,62l.16-.63-.37.63Z"/><path class="cls-3" d="M191.33,61.83l0,.1.06,0h0Z"/><polygon class="cls-3" points="192.16 61.08 192.22 61.03 194.43 57.25 191.81 60.62 191.51 61.37 192.16 61.08"/><polygon class="cls-3" points="191.29 61.93 191.33 61.83 191.19 61.51 191.51 61.37 191.81 60.62 190.98 61.69 191.29 61.93"/><polygon class="cls-3" points="192.2 61.07 192.22 61.03 192.16 61.08 192.2 61.07"/><path class="cls-3" d="M192.16,61.08l-.65.28-.18.47.06.14.29,0,0,0-.19-.2Z"/><polygon class="cls-3" points="191.19 61.51 191.33 61.83 191.51 61.37 191.19 61.51"/><polygon class="cls-3" points="191.51 61.71 191.7 61.91 192.2 61.07 192.16 61.08 191.51 61.71"/><path class="cls-3" d="M194.93,59.87l2.78-1.21,15.64-10.22-.6-.92L197.21,57.67Z"/><polygon class="cls-3" points="197.21 57.67 193.97 59.79 194.22 60.18 194.93 59.87 197.21 57.67"/><polygon class="cls-3" points="194.37 60.41 194.57 60.71 197.71 58.66 194.93 59.87 194.37 60.41"/><polygon class="cls-3" points="194.22 60.18 194.37 60.41 194.93 59.87 194.22 60.18"/><path class="cls-2" d="M269.77,55.34c-.85-.18-1.67-.32-2.48-.44l-.87,20.34Z"/><path class="cls-2" d="M273,56.22c-.78-.24-1.55-.45-2.29-.64l-3.41,20.23Z"/><path class="cls-2" d="M250.85,57.85c-.52.25-1,.52-1.58.8l11.08,16.43Z"/><path class="cls-2" d="M276.22,57.29,274,56.52l-5.72,19.7Z"/><path class="cls-2" d="M254.32,56.35c-.84.31-1.7.68-2.56,1.08l10.29,18.65Z"/><path class="cls-2" d="M257.69,55.32c-.8.19-1.61.43-2.43.7l7.9,20.15Z"/><path class="cls-2" d="M262.18,54.65a24.24,24.24,0,0,0-3.51.45l5.88,22.43Z"/><path class="cls-2" d="M287.88,67.37c-.5-.8-1.05-1.59-1.64-2.36l-14.79,14.1Z"/><path class="cls-2" d="M290,71.19c-.45-1-1-2-1.56-3L274,78.55Z"/><polygon class="cls-2" points="266.26 79.51 266.23 79.5 266.23 79.62 266.26 79.51"/><path class="cls-2" d="M279.88,59.05a18,18,0,0,0-2.7-1.38l-8.82,21.12Z"/><path class="cls-2" d="M244.45,61.42a.41.41,0,0,0-.08.63L261.8,79.64l.06.06-16.17-19Z"/><path class="cls-2" d="M291.46,74.91c-.29-.85-.64-1.78-1.07-2.77l-16.1,7.41Z"/><path class="cls-2" d="M283.15,61.55a22,22,0,0,0-2.44-1.95L270.17,77.67Z"/><path class="cls-2" d="M285.63,64.21c-.55-.67-1.14-1.31-1.75-1.93L271.41,77.76Z"/><path class="cls-2" d="M248.38,59.13h0c-.61.33-1.22.67-1.84,1l12.22,14.39Z"/><path class="cls-2" d="M266.3,54.78a23.69,23.69,0,0,0-3.12-.15l2.21,21.26Z"/><path class="cls-2" d="M292.2,77.59c-.09-.48-.24-1.06-.43-1.71L270,81.76a18.12,18.12,0,0,0,1.84-.18l19.29-3.12C292,78.35,292.37,78.42,292.2,77.59Z"/><path class="cls-3" d="M262.55,79.06l-.49.33-3.28-4.85L246.56,60.15l-.87.53,16.17,19a6.24,6.24,0,0,0,1.63,1Z"/><path class="cls-3" d="M262.89,78.83l-.29.2,1.12,1.32-1.67-4.27L251.76,57.43c-.31.14-.61.27-.91.42l9.5,17.23Z"/><path class="cls-3" d="M263.72,80.35,262.6,79l-.05,0,.94,1.69a4.15,4.15,0,0,0,.47.2Z"/><path class="cls-3" d="M258.66,55.06l-1,.25h0c.33-.08.66-.16,1-.22Z"/><path class="cls-3" d="M265.16,81.26l0-.89-.34,0-.3-2.88L258.67,55.1c-.32.06-.65.14-1,.22l5.47,20.85Z"/><path class="cls-3" d="M266.7,79.58l-.44-.07,0,.11-.08,1.76,2.16-5.16L274,56.52l-1-.3-5.7,19.59Z"/><path class="cls-3" d="M266.14,81.57l.27,0-.26-.1Z"/><path class="cls-3" d="M266.23,79.5l-.48-.08.09.88-.55.06.25.94-.28.08.43.1.54-1.86Z"/><path class="cls-3" d="M265.74,79.27l.68-4,.87-20.34-1-.12-.91,21.11Z"/><path class="cls-3" d="M265.29,80.36h-.1l0,.89,0,.1.07,0,.28-.08Z"/><path class="cls-3" d="M266.11,81.49l0-.11.08-1.76-.54,1.86.45.09v-.06Z"/><path class="cls-3" d="M266.78,81.49l1.58-2.7,8.82-21.12-.46-.2-.5-.18-7.91,18.93Z"/><path class="cls-3" d="M266.78,81.49l1.53-5.27-2.16,5.16v.13l.26.1.28,0Z"/><polygon class="cls-3" points="266.15 81.5 266.15 81.38 266.11 81.49 266.15 81.5"/><path class="cls-3" d="M267.37,81.14l2.8-3.47L280.71,59.6c-.27-.19-.55-.37-.83-.55L268.36,78.79Z"/><path class="cls-3" d="M266.93,81.69l.44-.55,1-2.35-1.58,2.7,0,.17Z"/><path class="cls-3" d="M266.73,81.66l0-.17-.09.16Z"/><path class="cls-3" d="M268.81,81l2.64-1.89L286.24,65c-.2-.27-.4-.54-.61-.8L271.41,77.76Z"/><path class="cls-3" d="M269.69,80.79l1.11-.3-.18-.41L274,78.55l14.44-10.32c-.17-.29-.33-.58-.51-.86L271.45,79.11Z"/><polygon class="cls-3" points="269.69 80.79 271.45 79.11 268.81 81 268.78 81.03 269.69 80.79"/><path class="cls-3" d="M291.46,74.91l-17.17,4.64L271.05,81l-.14-.31-1.5,1.07.58,0,21.78-5.88C291.68,75.57,291.57,75.25,291.46,74.91Z"/><path class="cls-3" d="M268.22,81.79l0,0,0,0Z"/><path class="cls-3" d="M269.69,80.79l-1.06,1h.78l1.5-1.07-.11-.23Z"/><path class="cls-3" d="M268.78,81l-.58.72,0,0h.41l1.06-1Z"/><path class="cls-3" d="M265.21,80l.18-4.15-2.21-21.26c-.34,0-.67,0-1,0l2.37,22.88Z"/><polygon class="cls-3" points="264.55 77.53 264.85 80.41 265.19 80.38 265.21 80.04 264.55 77.53"/><polygon class="cls-3" points="265.85 80.3 265.75 79.42 265.71 79.41 265.74 79.27 265.39 75.89 265.21 80.04 265.29 80.36 265.85 80.3"/><polygon class="cls-3" points="265.21 80.04 265.19 80.38 265.29 80.36 265.21 80.04"/><path class="cls-3" d="M264.36,81.1h0l.09,0,0-.09Z"/><path class="cls-3" d="M264.12,79.83l-1-3.66L255.26,56c-.31.11-.63.21-.94.33l7.73,19.73Z"/><polygon class="cls-3" points="264.36 81.1 264.37 81.1 264.36 81.1 264.36 81.1"/><polygon class="cls-3" points="264.44 81.05 264.12 79.83 262.05 76.08 263.72 80.35 264.36 81.1 264.44 81.05"/><path class="cls-3" d="M263.72,80.35l.24.6.4.15h0Z"/><path class="cls-3" d="M265.16,81.26l-2-5.09,1,3.66.59,1.07-.27.15,0,.09.69.21Z"/><polygon class="cls-3" points="264.71 80.9 264.12 79.83 264.44 81.05 264.71 80.9"/><path class="cls-3" d="M265.19,81.36l0-.1v.09Z"/><path class="cls-3" d="M258.78,74.54l3.63,4.26-2.06-3.72L249.27,58.65l-.87.47h0Z"/><polygon class="cls-3" points="258.78 74.54 262.06 79.39 262.55 79.06 262.41 78.8 258.78 74.54"/><polygon class="cls-3" points="262.89 78.83 260.36 75.08 262.41 78.8 262.6 79.03 262.89 78.83"/><polygon class="cls-3" points="262.41 78.8 262.55 79.06 262.6 79.03 262.41 78.8"/><path class="cls-3" d="M266.23,79.5h0l1.07-3.7,3.41-20.23-1-.24-3.35,19.9Z"/><polygon class="cls-3" points="267.33 75.81 266.26 79.51 266.7 79.58 267.33 75.81"/><polygon class="cls-3" points="266.23 79.5 266.42 75.24 265.74 79.27 265.75 79.42 266.23 79.5"/><polygon class="cls-3" points="265.75 79.42 265.74 79.27 265.71 79.41 265.75 79.42"/><path class="cls-3" d="M267.78,81.76h.08l-.05-.06Z"/><path class="cls-3" d="M268.48,80.55l2.93-2.79,12.47-15.48c-.24-.25-.48-.5-.73-.73l-13,16.12Z"/><path class="cls-3" d="M267.55,81.44l.93-.89,1.69-2.88-2.8,3.47-.24.57.65.05,0-.05Z"/><path class="cls-3" d="M267.13,81.71l.24-.57-.44.55Z"/><path class="cls-3" d="M267.86,81.63l-.05.08.05.06h0Z"/><polygon class="cls-3" points="268.75 81.04 268.81 81 271.41 77.76 268.48 80.56 268.1 81.22 268.75 81.04"/><polygon class="cls-3" points="267.81 81.71 267.86 81.63 267.77 81.31 268.1 81.22 268.48 80.56 267.55 81.44 267.81 81.71"/><polygon class="cls-3" points="268.78 81.03 268.81 81 268.75 81.04 268.78 81.03"/><path class="cls-3" d="M268.75,81l-.65.18-.24.41,0,.14.28,0,0,0-.15-.21Z"/><polygon class="cls-3" points="267.77 81.31 267.86 81.63 268.1 81.22 267.77 81.31"/><polygon class="cls-3" points="268.05 81.54 268.2 81.75 268.78 81.03 268.75 81.04 268.05 81.54"/><path class="cls-3" d="M271.51,80.3l2.78-.75,16.1-7.41-.44-1-16,7.36Z"/><polygon class="cls-3" points="273.95 78.55 270.62 80.08 270.81 80.49 271.51 80.3 273.95 78.55"/><polygon class="cls-3" points="270.91 80.72 271.06 81.03 274.29 79.55 271.51 80.3 270.91 80.72"/><polygon class="cls-3" points="270.81 80.49 270.91 80.72 271.51 80.3 270.81 80.49"/><path class="cls-2" d="M128.3,143.47c-.75.11-1.47.25-2.16.41l5.6,16.91Z"/><path class="cls-2" d="M131.24,143.17c-.72.05-1.41.12-2.07.2l3.49,17.6Z"/><path class="cls-2" d="M113.6,151.4c-.34.36-.69.75-1,1.15l14.17,10Z"/><path class="cls-2" d="M134.19,143.06c-.7,0-1.38,0-2,.06L133.59,161Z"/><path class="cls-2" d="M116,149.09c-.59.52-1.18,1.09-1.76,1.68l14.21,12.06Z"/><path class="cls-2" d="M118.42,147.2c-.6.41-1.19.85-1.77,1.33l12.71,14Z"/><path class="cls-2" d="M121.88,145.26a21.67,21.67,0,0,0-2.73,1.46l11.77,16.51Z"/><path class="cls-2" d="M146.85,147.68c-.66-.49-1.36-1-2.08-1.42l-7.72,16.13Z"/><path class="cls-2" d="M149.73,150.17c-.67-.65-1.4-1.3-2.2-1.94l-8.6,12.92Z"/><polygon class="cls-2" points="132.93 164.32 132.91 164.33 132.94 164.43 132.93 164.32"/><path class="cls-2" d="M137.72,143.36a16.4,16.4,0,0,0-2.63-.28l-.66,20Z"/><path class="cls-2" d="M109.48,156.3a.37.37,0,0,0,.14.55l19.7,9,.07,0-19.13-10.53C110,155.64,109.75,156,109.48,156.3Z"/><path class="cls-2" d="M152.11,152.74c-.49-.6-1.07-1.25-1.73-1.93l-10.87,11.05Z"/><path class="cls-2" d="M141.17,144.39a19.19,19.19,0,0,0-2.6-.83l-3,18.05Z"/><path class="cls-2" d="M144,145.8a22.77,22.77,0,0,0-2-1L136.6,161.3Z"/><path class="cls-2" d="M112,153.21v0c-.4.46-.79.93-1.19,1.42l14.47,8Z"/><path class="cls-2" d="M125.29,144.09a22.59,22.59,0,0,0-2.6.84l8.41,16.71Z"/><path class="cls-2" d="M153.55,154.7a15.11,15.11,0,0,0-.88-1.26l-16,11.57c.47-.21.95-.44,1.46-.72l14.8-8.54C153.6,155.4,154,155.33,153.55,154.7Z"/><path class="cls-3" d="M129.77,165.11l-.3.42-4.19-2.95-14.47-8c-.18.23-.36.47-.55.7l19.13,10.53a5.23,5.23,0,0,0,1.66.36Z"/><path class="cls-3" d="M130,164.82l-.18.25,1.33.73-2.69-3-14.21-12.06-.62.63,13.13,11.13Z"/><path class="cls-3" d="M131.12,165.8l-1.33-.73,0,0,1.28,1.09.45,0Z"/><path class="cls-3" d="M119.13,146.69l-.71.51h0c.24-.17.48-.33.73-.48Z"/><path class="cls-3" d="M132.58,166.1l-.25-.74-.27.14-1.14-2.27-11.77-16.51c-.25.15-.49.31-.73.48l10.94,15.36Z"/><path class="cls-3" d="M133.32,164.25l-.39.07v.11l.49,1.46.16-4.89-1.44-17.88-.91,0,1.42,17.8Z"/><path class="cls-3" d="M133.48,166.05l.23-.05h-.25Z"/><path class="cls-3" d="M132.91,164.33l-.42.08.35.69-.43.22.49.69-.2.15.38,0-.14-1.68Z"/><path class="cls-3" d="M132.43,164.29l-.69-3.5-5.6-16.91c-.29.07-.57.13-.85.21l5.81,17.55Z"/><path class="cls-3" d="M132.41,165.32l-.08,0,.25.74.06.07h.06l.2-.15Z"/><path class="cls-3" d="M133.42,166v-.1l-.49-1.46.14,1.68.4-.06,0-.06Z"/><path class="cls-3" d="M134,165.79l.46-2.7.66-20-.45,0h-.45l-.6,17.94Z"/><path class="cls-3" d="M134,165.79l-.38-4.79-.16,4.89,0,.1h.25l.24-.06Z"/><polygon class="cls-3" points="133.46 165.99 133.43 165.89 133.42 165.99 133.46 165.99"/><path class="cls-3" d="M134.35,165.31l1.21-3.7,3-18.05-.85-.2-3.29,19.73Z"/><path class="cls-3" d="M134.16,165.9l.19-.59.08-2.22-.46,2.7,0,.15Z"/><path class="cls-3" d="M134,165.94l0-.15,0,.15Z"/><path class="cls-3" d="M135.48,164.75l1.57-2.36,7.72-16.13-.75-.46-7.42,15.5Z"/><path class="cls-3" d="M136.14,164.31l.81-.6-.27-.27,2.25-2.29,8.6-12.92-.68-.55-9.8,14.71Z"/><polygon class="cls-3" points="136.13 164.31 137.05 162.39 135.48 164.75 135.47 164.79 136.13 164.31"/><path class="cls-3" d="M152.11,152.74l-12.6,9.12-2.18,2.22-.21-.21-.9,1.34.46-.2,16-11.57C152.5,153.22,152.31,153,152.11,152.74Z"/><path class="cls-3" d="M135.25,165.58l0,0,0,0Z"/><path class="cls-3" d="M136.14,164.31l-.56,1.15.64-.25.9-1.34-.17-.16Z"/><path class="cls-3" d="M135.47,164.79l-.25.77,0,0,.33-.12.56-1.15Z"/><path class="cls-3" d="M132.24,165.08l-1.14-3.44-8.41-16.71c-.27.11-.55.21-.81.33l9,18Z"/><polygon class="cls-3" points="130.92 163.23 132.06 165.5 132.33 165.36 132.24 165.08 130.92 163.23"/><polygon class="cls-3" points="132.84 165.1 132.49 164.41 132.46 164.42 132.43 164.29 131.1 161.64 132.24 165.08 132.41 165.32 132.84 165.1"/><polygon class="cls-3" points="132.24 165.08 132.33 165.36 132.41 165.32 132.24 165.08"/><path class="cls-3" d="M131.87,166.21h.1l0-.06Z"/><path class="cls-3" d="M131.28,165.25l-1.92-2.69-12.71-14-.67.56,12.45,13.74Z"/><polygon class="cls-3" points="131.87 166.22 131.88 166.22 131.88 166.21 131.87 166.22"/><polygon class="cls-3" points="131.93 166.15 131.28 165.25 128.43 162.83 131.12 165.8 131.88 166.21 131.93 166.15"/><path class="cls-3" d="M131.12,165.8l.38.42h.37Z"/><path class="cls-3" d="M132.58,166.1l-3.22-3.54,1.92,2.69.82.7-.17.2,0,.06c.2,0,.41,0,.63,0Z"/><polygon class="cls-3" points="132.1 165.95 131.28 165.25 131.93 166.15 132.1 165.95"/><path class="cls-3" d="M132.64,166.17l-.06-.07,0,.07Z"/><path class="cls-3" d="M125.28,162.58l4.29,2.36-2.84-2.41-14.17-10-.56.64v0Z"/><polygon class="cls-3" points="125.28 162.58 129.47 165.53 129.76 165.11 129.57 164.94 125.28 162.58"/><polygon class="cls-3" points="129.97 164.82 126.73 162.53 129.57 164.94 129.79 165.07 129.97 164.82"/><polygon class="cls-3" points="129.57 164.94 129.76 165.11 129.79 165.07 129.57 164.94"/><path class="cls-3" d="M132.91,164.33h0l-.27-3.35-3.49-17.6-.87.1,3.44,17.32Z"/><polygon class="cls-3" points="132.66 160.97 132.93 164.32 133.32 164.25 132.66 160.97"/><polygon class="cls-3" points="132.91 164.33 131.74 160.79 132.43 164.29 132.49 164.41 132.91 164.33"/><polygon class="cls-3" points="132.49 164.41 132.43 164.29 132.46 164.42 132.49 164.41"/><path class="cls-3" d="M134.88,165.7l.06,0-.06,0Z"/><path class="cls-3" d="M135.08,164.49l1.52-3.19L142,144.76l-.82-.37-5.61,17.22Z"/><path class="cls-3" d="M134.59,165.51l.49-1,.48-2.88-1.21,3.7,0,.55.55-.16v0Z"/><path class="cls-3" d="M134.33,165.86l0-.55-.19.59Z"/><path class="cls-3" d="M134.9,165.56l0,.09.06,0h0Z"/><polygon class="cls-3" points="135.44 164.81 135.48 164.75 136.6 161.3 135.08 164.49 134.97 165.15 135.44 164.81"/><polygon class="cls-3" points="134.88 165.65 134.9 165.56 134.72 165.33 134.97 165.15 135.08 164.49 134.59 165.51 134.88 165.65"/><polygon class="cls-3" points="135.47 164.79 135.48 164.75 135.44 164.81 135.47 164.79"/><path class="cls-3" d="M135.44,164.81l-.47.34-.07.41.07.11.23-.07,0,0-.19-.13Z"/><polygon class="cls-3" points="134.72 165.33 134.9 165.56 134.97 165.15 134.72 165.33"/><polygon class="cls-3" points="135.03 165.43 135.22 165.56 135.47 164.79 135.44 164.81 135.03 165.43"/><path class="cls-3" d="M137.47,163.34l2-1.48,10.87-11.05-.65-.64-10.8,11Z"/><polygon class="cls-3" points="138.93 161.15 136.68 163.44 136.95 163.71 137.47 163.34 138.93 161.15"/><polygon class="cls-3" points="137.12 163.87 137.33 164.08 139.51 161.86 137.47 163.34 137.12 163.87"/><polygon class="cls-3" points="136.95 163.71 137.12 163.87 137.47 163.34 136.95 163.71"/><path class="cls-2" d="M83.2,126.27c-.76.42-1.47.86-2.15,1.31l12.85,15.8Z"/><path class="cls-2" d="M86.21,124.76q-1.11.51-2.13,1L95,143.19Z"/><path class="cls-2" d="M70.71,140.7c-.22.54-.44,1.09-.65,1.65l19.2,4.93Z"/><path class="cls-2" d="M89.32,123.44c-.74.29-1.46.59-2.15.89L96,142.86Z"/><path class="cls-2" d="M72.31,137.28c-.42.79-.82,1.63-1.2,2.5l20.08,7.12Z"/><path class="cls-2" d="M74.15,134.26c-.47.69-.92,1.4-1.35,2.15l19.28,9.83Z"/><path class="cls-2" d="M77.06,130.79a24.42,24.42,0,0,0-2.32,2.66L94,146.33Z"/><path class="cls-2" d="M104.73,123.24c-.9-.26-1.84-.48-2.8-.67l-1.7,20.37Z"/><path class="cls-2" d="M108.82,124.73c-1-.42-2-.82-3.14-1.18l-4,17.3Z"/><polygon class="cls-2" points="96.61 146.67 96.59 146.69 96.66 146.78 96.61 146.67"/><path class="cls-2" d="M93.22,122.33a18.31,18.31,0,0,0-2.93.76l7.41,21.66Z"/><path class="cls-2" d="M68.3,147.62a.41.41,0,0,0,.36.53l24.7,1.58h.08l-24.71-3.5C68.58,146.7,68.44,147.14,68.3,147.62Z"/><path class="cls-2" d="M112.41,126.51c-.78-.44-1.66-.9-2.64-1.36l-7.13,16.23Z"/><path class="cls-2" d="M97.33,122a23.29,23.29,0,0,0-3.12.16l4.11,20.52Z"/><path class="cls-2" d="M101,122.38c-.85-.14-1.72-.23-2.59-.29l1,19.86Z"/><path class="cls-2" d="M69.71,143.3v0c-.23.65-.46,1.31-.69,2l18.69,2.65Z"/><path class="cls-2" d="M80.23,128.15a23.89,23.89,0,0,0-2.43,2l15.76,14.44Z"/><path class="cls-2" d="M114.74,128c-.38-.3-.88-.63-1.45-1L100.9,145.89c.41-.42.83-.86,1.26-1.36l12.35-15.14C115.07,128.75,115.42,128.53,114.74,128Z"/><path class="cls-3" d="M93.55,148.8l-.15.57-5.68-1.45L69,145.27l-.3,1,24.71,3.5a6.17,6.17,0,0,0,1.92-.3Z"/><path class="cls-3" d="M93.65,148.41l-.09.33,1.71.25-4.08-2.09-20.08-7.12c-.13.31-.27.61-.4.92l18.55,6.58Z"/><path class="cls-3" d="M95.27,149l-1.71-.25v.06l1.81.64c.16,0,.32-.1.49-.16Z"/><path class="cls-3" d="M74.7,133.43l-.55.83h0l.59-.81Z"/><path class="cls-3" d="M97,148.72l-.56-.69-.23.26-2.14-2L74.74,133.45l-.59.81,17.93,12Z"/><path class="cls-3" d="M97,146.44l-.38.23,0,.11,1.12,1.37L96,142.86l-8.8-18.53-1,.43L95,143.19Z"/><path class="cls-3" d="M97.89,148.29l.23-.14-.27.09Z"/><path class="cls-3" d="M96.59,146.69l-.41.26.65.59-.37.42.81.53-.17.24.39-.2-.83-1.75Z"/><path class="cls-3" d="M96.07,146.84l-2.17-3.46-12.85-15.8-.82.57,13.33,16.4Z"/><path class="cls-3" d="M96.46,148l-.07.07.56.69.09,0,.06,0,.17-.24Z"/><path class="cls-3" d="M97.81,148.26l0-.11-1.12-1.37.83,1.75c.13-.08.27-.15.4-.24l0,0Z"/><path class="cls-3" d="M98.32,147.82l-.62-3.07-7.41-21.66-.48.16-.49.19L96,142.86Z"/><path class="cls-3" d="M98.32,147.82l-2.35-5,1.81,5.29.07.09.27-.09a1.88,1.88,0,0,0,.23-.16Z"/><polygon class="cls-3" points="97.85 148.24 97.78 148.15 97.81 148.26 97.85 148.24"/><path class="cls-3" d="M98.53,147.15l-.21-4.44-4.11-20.52c-.33,0-.66.08-1,.14l4.48,22.42Z"/><path class="cls-3" d="M98.56,147.86l0-.71-.83-2.4.62,3.07.07.15Z"/><path class="cls-3" d="M98.39,148l-.07-.15,0,.17Z"/><path class="cls-3" d="M99.51,146.1l.72-3.16,1.7-20.37c-.33-.07-.65-.14-1-.19L99.31,142Z"/><path class="cls-3" d="M100,145.36l.63-1-.41-.18,1.48-3.36,4-17.3-1-.31-4.5,19.7Z"/><polygon class="cls-3" points="100.03 145.35 100.23 142.94 99.51 146.1 99.51 146.14 100.03 145.35"/><path class="cls-3" d="M112.41,126.51l-9.77,14.87-1.43,3.25-.31-.14-.41,1.8.41-.4L113.29,127Z"/><path class="cls-3" d="M99.6,147.08h0v0Z"/><path class="cls-3" d="M100,145.36l-.13,1.45c.2-.17.39-.33.59-.52l.41-1.8-.24-.1Z"/><path class="cls-3" d="M99.51,146.14l0,.93h0l.3-.27.13-1.45Z"/><path class="cls-3" d="M96.18,147.77l-2.62-3.22L77.8,130.11l-.74.68,17,15.54Z"/><polygon class="cls-3" points="94.02 146.33 96.16 148.29 96.39 148.03 96.18 147.77 94.02 146.33"/><polygon class="cls-3" points="96.83 147.54 96.18 146.95 96.14 146.97 96.07 146.84 93.56 144.55 96.18 147.77 96.46 147.96 96.83 147.54"/><polygon class="cls-3" points="96.18 147.77 96.39 148.03 96.46 147.96 96.18 147.77"/><path class="cls-3" d="M96.25,149.12h0l.09,0-.07-.05Z"/><path class="cls-3" d="M95.22,148.33l-3.14-2.09L72.8,136.41c-.16.29-.33.57-.49.87l18.88,9.62Z"/><polygon class="cls-3" points="96.25 149.13 96.25 149.13 96.25 149.12 96.25 149.13"/><polygon class="cls-3" points="96.28 149.04 95.22 148.34 91.19 146.9 95.27 148.99 96.25 149.12 96.28 149.04"/><path class="cls-3" d="M95.27,149l.58.29.4-.15h0Z"/><path class="cls-3" d="M97,148.72l-4.87-2.48,3.14,2.09,1.16.42-.1.29.07.05c.21-.09.43-.19.65-.31Z"/><polygon class="cls-3" points="96.38 148.75 95.22 148.34 96.28 149.04 96.38 148.75"/><path class="cls-3" d="M97,148.76l-.09,0,0,.06Z"/><path class="cls-3" d="M87.72,147.92l5.55.78-4-1.42-19.2-4.93c-.11.31-.23.61-.34.93v0Z"/><polygon class="cls-3" points="87.72 147.92 93.4 149.38 93.55 148.8 93.27 148.7 87.72 147.92"/><polygon class="cls-3" points="93.65 148.41 89.25 147.28 93.27 148.7 93.56 148.74 93.65 148.41"/><polygon class="cls-3" points="93.27 148.7 93.55 148.8 93.56 148.74 93.27 148.7"/><path class="cls-3" d="M96.59,146.69l0,0L95,143.19,84.08,125.81c-.29.15-.6.3-.88.46l10.7,17.11Z"/><polygon class="cls-3" points="94.96 143.19 96.61 146.67 96.99 146.44 94.96 143.19"/><polygon class="cls-3" points="96.59 146.69 93.9 143.38 96.07 146.84 96.18 146.95 96.59 146.69"/><polygon class="cls-3" points="96.18 146.95 96.07 146.84 96.14 146.97 96.18 146.95"/><path class="cls-3" d="M99.24,147.35a.18.18,0,0,0,.07,0h-.08Z"/><path class="cls-3" d="M99,146l.34-4-1-19.86-1-.06,1,20.68Z"/><path class="cls-3" d="M98.86,147.27,99,146l-.65-3.27.21,4.44.2.59q.26-.18.51-.39v0Z"/><path class="cls-3" d="M98.73,147.74l-.2-.59,0,.71Z"/><path class="cls-3" d="M99.21,147.2l0,.1h.08l0,0Z"/><polygon class="cls-3" points="99.49 146.17 99.51 146.1 99.31 141.95 98.97 145.98 99.12 146.73 99.49 146.17"/><polygon class="cls-3" points="99.23 147.3 99.22 147.2 98.93 147.02 99.12 146.73 98.97 145.98 98.86 147.26 99.23 147.3"/><polygon class="cls-3" points="99.51 146.14 99.51 146.1 99.49 146.17 99.51 146.14"/><path class="cls-3" d="M99.49,146.17l-.37.56.09.47.13.08.22-.17v0L99.3,147Z"/><polygon class="cls-3" points="98.93 147.02 99.22 147.2 99.12 146.73 98.93 147.02"/><polygon class="cls-3" points="99.3 147.01 99.55 147.07 99.51 146.14 99.49 146.17 99.3 147.01"/><path class="cls-3" d="M101.06,143.78l1.58-2.4,7.13-16.23-1-.42-7.09,16.12Z"/><polygon class="cls-3" points="101.73 140.85 100.25 144.21 100.66 144.39 101.06 143.78 101.73 140.85"/><polygon class="cls-3" points="100.9 144.49 101.21 144.63 102.64 141.38 101.06 143.78 100.9 144.49"/><polygon class="cls-3" points="100.66 144.39 100.9 144.49 101.06 143.78 100.66 144.39"/><path class="cls-2" d="M100,34.75q-.87-.48-1.71-.87l-5.2,14.65Z"/><path class="cls-2" d="M102.14,36.12c-.51-.35-1-.67-1.53-1l-7,14Z"/><path class="cls-2" d="M85.58,32.34l-1.33.23,4.41,14.48Z"/><path class="cls-2" d="M104.23,37.62c-.48-.37-1-.72-1.42-1l-8.6,13.1Z"/><path class="cls-2" d="M88.45,32c-.68,0-1.38.12-2.11.22l3.33,15.92Z"/><path class="cls-2" d="M91.15,32c-.63,0-1.28-.05-1.93,0l1.24,16.48Z"/><path class="cls-2" d="M94.57,32.54a18.24,18.24,0,0,0-2.66-.45l-.74,17.69Z"/><path class="cls-2" d="M110.48,47.59c-.18-.69-.41-1.39-.66-2.09l-14,7Z"/><path class="cls-2" d="M111.14,50.85c-.12-.8-.27-1.65-.48-2.51L97.81,52.63Z"/><polygon class="cls-2" points="91.98 51.61 91.96 51.6 91.93 51.68 91.98 51.61"/><path class="cls-2" d="M106.51,39.73a13.31,13.31,0,0,0-1.66-1.61L93.67,51.55Z"/><path class="cls-2" d="M80.12,33.51a.31.31,0,0,0-.2.45L88.69,50.7l0,.06L81.19,33.25Z"/><path class="cls-2" d="M111.4,53.9c0-.68-.07-1.44-.16-2.26L97.83,53.43Z"/><path class="cls-2" d="M108.34,42.28a17.07,17.07,0,0,0-1.35-2L95.24,51.14Z"/><path class="cls-2" d="M109.55,44.78c-.25-.61-.54-1.21-.84-1.8L96.13,51.49Z"/><path class="cls-2" d="M83.5,32.72h0c-.51.1-1,.21-1.57.34l5.7,13.24Z"/><path class="cls-2" d="M97.55,33.56a20.13,20.13,0,0,0-2.24-.81l-3.16,16Z"/><path class="cls-2" d="M111.35,56a12.64,12.64,0,0,0,.06-1.34l-17.22-.59c.44.1.89.2,1.39.28l14.78,2.05C111,56.53,111.28,56.67,111.35,56Z"/><path class="cls-3" d="M89.37,50.45l-.43.13-1.3-4.28-5.7-13.24-.75.19,7.53,17.51a4.93,4.93,0,0,0,1,1.13Z"/><path class="cls-3" d="M89.67,50.36l-.25.08.52,1.21-.27-3.49L86.34,32.24l-.76.1,3.08,14.71Z"/><path class="cls-3" d="M89.94,51.65l-.52-1.21h0l.3,1.44.31.26Z"/><path class="cls-3" d="M91.92,32.05l-.77,0h0c.26,0,.51,0,.76.06Z"/><path class="cls-3" d="M90.78,52.64,91,52l-.26,0,.42-2.17.74-17.69c-.25,0-.5-.05-.76-.06l-.69,16.45Z"/><path class="cls-3" d="M92.28,51.76l-.3-.15,0,.07L91.48,53l2.73-3.28,8.6-13.1-.67-.45-8.55,13Z"/><path class="cls-3" d="M91.43,53.08l.19.1L91.45,53Z"/><path class="cls-3" d="M92,51.6l-.33-.17-.13.66L91.08,52l0,.74h-.22l.29.16.81-1.23Z"/><path class="cls-3" d="M91.65,51.32l1.4-2.79,5.2-14.65-.7-.32-5.4,15.21Z"/><path class="cls-3" d="M91.08,52H91l-.23.64v.08l0,0h.22Z"/><path class="cls-3" d="M91.42,53l.06-.07.45-1.27-.81,1.23a3.07,3.07,0,0,0,.31.17l0,0Z"/><path class="cls-3" d="M91.91,53.17l1.76-1.62,11.18-13.43-.29-.26c-.11-.08-.22-.15-.33-.24l-10,12.05Z"/><path class="cls-3" d="M91.91,53.17l2.3-3.5L91.48,53l0,.09.17.14.19.09Z"/><polygon class="cls-3" points="91.45 53.04 91.48 52.95 91.42 53.02 91.45 53.04"/><path class="cls-3" d="M92.43,53.05l2.81-1.91L107,40.32c-.15-.2-.31-.4-.48-.59L93.67,51.55Z"/><path class="cls-3" d="M92,53.35l.45-.3,1.24-1.5-1.76,1.62-.07.11Z"/><path class="cls-3" d="M91.84,53.28l.07-.11-.1.1Z"/><path class="cls-3" d="M93.5,53.27l2.35-.79,14-7-.27-.72L96.13,51.49Z"/><path class="cls-3" d="M94.19,53.31l.89,0L95,53l2.78-.37,12.85-4.29c-.06-.25-.11-.5-.18-.75L95.85,52.48Z"/><polygon class="cls-3" points="94.19 53.31 95.85 52.48 93.5 53.27 93.47 53.28 94.19 53.31"/><path class="cls-3" d="M111.4,53.9l-13.57-.47-2.69.36,0-.25L93.77,54l.42.11,17.22.59C111.41,54.44,111.41,54.17,111.4,53.9Z"/><path class="cls-3" d="M92.9,53.71v0l0,0Z"/><path class="cls-3" d="M94.19,53.31l-1,.5.57.17,1.33-.44,0-.2Z"/><path class="cls-3" d="M93.47,53.28l-.58.4v0a2.64,2.64,0,0,0,.3.1l1-.5Z"/><path class="cls-3" d="M91.09,51.76l1.06-3,3.16-16-.74-.21-3.4,17.24Z"/><polygon class="cls-3" points="91.17 49.78 90.75 51.95 91.01 52 91.09 51.76 91.17 49.78"/><polygon class="cls-3" points="91.5 52.09 91.63 51.43 91.6 51.41 91.65 51.32 92.15 48.77 91.09 51.76 91.08 52.01 91.5 52.09"/><polygon class="cls-3" points="91.09 51.76 91.01 52 91.08 52.01 91.09 51.76"/><path class="cls-3" d="M90.24,52.34h0l.06,0v-.06Z"/><path class="cls-3" d="M90.34,51.36l.12-2.88L89.22,32l-.77,0,1.22,16.14Z"/><polygon class="cls-3" points="90.23 52.34 90.24 52.35 90.24 52.34 90.23 52.34"/><polygon class="cls-3" points="90.3 52.33 90.34 51.36 89.67 48.16 89.94 51.65 90.24 52.34 90.3 52.33"/><path class="cls-3" d="M89.94,51.65l0,.5.25.19h0Z"/><path class="cls-3" d="M90.78,52.64l-.32-4.16-.12,2.88.2.92-.24,0v.06c.14.1.29.21.46.31Z"/><polygon class="cls-3" points="90.54 52.28 90.34 51.36 90.3 52.33 90.54 52.28"/><path class="cls-3" d="M90.78,52.72v-.08l0,.06Z"/><path class="cls-3" d="M87.64,46.3l1.69,3.93-.67-3.18L84.25,32.57l-.74.15h0Z"/><polygon class="cls-3" points="87.64 46.3 88.94 50.58 89.37 50.45 89.33 50.23 87.64 46.3"/><polygon class="cls-3" points="89.67 50.36 88.66 47.05 89.33 50.23 89.42 50.44 89.67 50.36"/><polygon class="cls-3" points="89.33 50.23 89.37 50.45 89.42 50.44 89.33 50.23"/><path class="cls-3" d="M92,51.6h0l1.61-2.46,7-14-.65-.4L93.05,48.53Z"/><polygon class="cls-3" points="93.59 49.15 91.98 51.61 92.28 51.76 93.59 49.15"/><polygon class="cls-3" points="91.96 51.6 93.05 48.53 91.65 51.32 91.63 51.43 91.96 51.6"/><polygon class="cls-3" points="91.63 51.43 91.65 51.32 91.6 51.41 91.63 51.43"/><path class="cls-3" d="M92.58,53.59l.06,0,0,0Z"/><path class="cls-3" d="M93.37,52.87l2.76-1.38L108.71,43c-.13-.23-.24-.47-.37-.7l-13.1,8.86Z"/><path class="cls-3" d="M92.49,53.31l.88-.44,1.87-1.73-2.81,1.91-.31.36.46.18,0,0Z"/><path class="cls-3" d="M92.12,53.41l.31-.36-.45.3Z"/><path class="cls-3" d="M92.67,53.51l-.06.05,0,0h0Z"/><polygon class="cls-3" points="93.45 53.28 93.5 53.27 96.13 51.49 93.37 52.87 92.94 53.27 93.45 53.28"/><polygon class="cls-3" points="92.61 53.56 92.67 53.51 92.68 53.26 92.94 53.27 93.37 52.87 92.49 53.31 92.61 53.56"/><polygon class="cls-3" points="93.47 53.28 93.5 53.27 93.45 53.28 93.47 53.28"/><path class="cls-3" d="M93.45,53.28h-.51l-.27.24v.11l.2.08,0,0-.06-.19Z"/><polygon class="cls-3" points="92.68 53.26 92.67 53.51 92.94 53.27 92.68 53.26"/><polygon class="cls-3" points="92.83 53.49 92.89 53.68 93.47 53.28 93.45 53.28 92.83 53.49"/><path class="cls-3" d="M95.63,53.36l2.2.07,13.41-1.79c0-.26-.06-.52-.1-.79L97.81,52.63Z"/><polygon class="cls-3" points="97.81 52.63 95.03 53 95.08 53.34 95.63 53.36 97.81 52.63"/><polygon class="cls-3" points="95.1 53.54 95.14 53.79 97.83 53.43 95.63 53.36 95.1 53.54"/><polygon class="cls-3" points="95.08 53.34 95.1 53.54 95.63 53.36 95.08 53.34"/><path class="cls-4" d="M63.69,18.51c-.77.39-1.5.8-2.2,1.23L73.72,36Z"/><path class="cls-4" d="M66.76,17.12c-.75.31-1.48.63-2.17,1l10.2,17.79Z"/><path class="cls-4" d="M50.65,32.44c-.24.53-.48,1.08-.71,1.63l19,5.66Z"/><path class="cls-4" d="M69.92,15.92c-.76.26-1.49.53-2.18.8L75.8,35.57Z"/><path class="cls-4" d="M52.38,29.09c-.45.77-.88,1.6-1.29,2.45l19.79,7.89Z"/><path class="cls-4" d="M54.34,26.14c-.5.67-1,1.36-1.43,2.09L71.79,38.8Z"/><path class="cls-4" d="M57.38,22.79A22.64,22.64,0,0,0,55,25.36L73.73,39Z"/><path class="cls-4" d="M85.32,16.32c-.89-.3-1.82-.56-2.77-.79L80.06,35.82Z"/><path class="cls-4" d="M89.35,18c-1-.46-2-.9-3.09-1.3L81.64,33.79Z"/><polygon class="cls-2" points="76.3 39.41 76.28 39.43 76.35 39.52 76.3 39.41"/><path class="cls-4" d="M73.86,15a19.32,19.32,0,0,0-3,.64l6.57,21.93Z"/><path class="cls-4" d="M48,39.26a.41.41,0,0,0,.34.54l24.63,2.55H73L48.46,37.9C48.29,38.35,48.13,38.79,48,39.26Z"/><path class="cls-4" d="M92.87,19.88c-.76-.47-1.62-1-2.58-1.46L82.53,34.35Z"/><path class="cls-4" d="M78,14.82a20.35,20.35,0,0,0-3.12,0l3.31,20.66Z"/><path class="cls-4" d="M81.57,15.31A24.11,24.11,0,0,0,79,14.92l.18,19.88Z"/><path class="cls-4" d="M49.56,35v0c-.26.64-.51,1.29-.76,2l18.57,3.36Z"/><path class="cls-4" d="M60.65,20.27a27.21,27.21,0,0,0-2.51,1.86l15.2,15Z"/><path class="cls-4" d="M95.14,21.47c-.37-.3-.86-.66-1.41-1L80.62,38.79c.43-.39.86-.82,1.31-1.3L94.86,22.83C95.44,22.22,95.8,22,95.14,21.47Z"/><path class="cls-3" d="M73.16,41.42,73,42l-5.62-1.68L48.8,37c-.12.31-.23.64-.34.95L73,42.35A6.08,6.08,0,0,0,75,42.13Z"/><path class="cls-3" d="M73.27,41l-.1.33,1.71.31-4-2.24L51.09,31.54c-.15.3-.3.59-.44.9l18.28,7.29Z"/><path class="cls-3" d="M74.88,41.67l-1.71-.31v.06l1.79.71c.15,0,.32-.08.49-.14Z"/><path class="cls-3" d="M54.92,25.33l-.59.81h0c.2-.26.4-.53.62-.78Z"/><path class="cls-3" d="M76.56,41.47,76,40.76l-.24.25-2.06-2L55,25.36c-.22.25-.42.52-.62.78L71.79,38.8Z"/><path class="cls-3" d="M76.69,39.19l-.39.22,0,.11,1.06,1.41L75.8,35.57,67.74,16.72l-1,.4,8,18.75Z"/><path class="cls-3" d="M77.52,41.08l.24-.13-.28.08Z"/><path class="cls-3" d="M76.28,39.43l-.42.24.63.62-.39.4.79.57-.17.23.39-.19-.76-1.78Z"/><path class="cls-3" d="M75.75,39.56l-2-3.54L61.49,19.74l-.84.53,12.69,16.9Z"/><path class="cls-3" d="M76.1,40.69l-.07.07.53.71.09.05.07,0,.17-.23Z"/><path class="cls-3" d="M77.44,41l0-.11-1.06-1.41.76,1.78.41-.22,0,0Z"/><path class="cls-3" d="M78,40.62l-.49-3.09L70.9,15.6l-.49.14-.49.18L75.8,35.57Z"/><path class="cls-3" d="M78,40.62l-2.16-5,1.61,5.36.07.1.28-.08L78,40.8Z"/><polygon class="cls-3" points="77.48 41.03 77.41 40.93 77.44 41.04 77.48 41.03"/><path class="cls-3" d="M78.2,40l0-4.45L74.85,14.86l-1,.1,3.61,22.57Z"/><path class="cls-3" d="M78.21,40.67V40l-.73-2.44L78,40.62l.07.16Z"/><path class="cls-3" d="M78,40.78,78,40.62l0,.18Z"/><path class="cls-3" d="M79.22,39l.84-3.13,2.49-20.29c-.32-.08-.64-.16-1-.22L79.18,34.8Z"/><path class="cls-3" d="M79.77,38.23l.67-.94-.4-.2,1.6-3.3,4.62-17.13c-.31-.12-.62-.24-.94-.34l-5.26,19.5Z"/><polygon class="cls-3" points="79.77 38.23 80.06 35.82 79.22 38.95 79.22 39 79.77 38.23"/><path class="cls-3" d="M92.87,19.88,82.53,34.35,81,37.55l-.31-.15-.48,1.78.43-.39L93.73,20.43Z"/><path class="cls-3" d="M79.27,39.93h0v0Z"/><path class="cls-3" d="M79.77,38.23l-.18,1.45c.2-.16.4-.32.6-.5l.48-1.78-.23-.11Z"/><path class="cls-3" d="M79.22,39v.92h0l.32-.25.18-1.45Z"/><path class="cls-3" d="M75.83,40.49l-2.49-3.32-15.2-15c-.25.22-.51.43-.76.66L73.73,39Z"/><polygon class="cls-3" points="73.72 38.97 75.79 41.01 76.03 40.76 75.83 40.49 73.72 38.97"/><polygon class="cls-3" points="76.48 40.29 75.86 39.67 75.82 39.69 75.75 39.56 73.34 37.17 75.83 40.49 76.1 40.69 76.48 40.29"/><polygon class="cls-3" points="75.83 40.49 76.03 40.76 76.1 40.69 75.83 40.49"/><path class="cls-3" d="M75.84,41.85h0l.1,0-.07-.05Z"/><path class="cls-3" d="M74.85,41,71.79,38.8,52.91,28.23c-.18.28-.36.56-.53.86l18.5,10.34Z"/><polygon class="cls-3" points="75.84 41.85 75.85 41.85 75.84 41.85 75.84 41.85"/><polygon class="cls-3" points="75.88 41.76 74.85 41.02 70.88 39.44 74.88 41.67 75.84 41.85 75.88 41.76"/><path class="cls-3" d="M74.88,41.67l.56.32.4-.14h0Z"/><path class="cls-3" d="M76.56,41.47,71.79,38.8,74.85,41l1.14.46-.11.28.07.05.66-.27Z"/><polygon class="cls-3" points="75.99 41.48 74.85 41.02 75.88 41.76 75.99 41.48"/><path class="cls-3" d="M76.65,41.52l-.09-.05,0,.07Z"/><path class="cls-3" d="M67.37,40.31l5.51,1-3.95-1.58-19-5.66c-.13.3-.25.6-.38.91v0Z"/><polygon class="cls-3" points="67.37 40.31 72.99 41.99 73.16 41.42 72.88 41.31 67.37 40.31"/><polygon class="cls-3" points="73.27 41.03 68.93 39.73 72.88 41.31 73.17 41.36 73.27 41.03"/><polygon class="cls-3" points="72.88 41.31 73.16 41.42 73.17 41.36 72.88 41.31"/><path class="cls-3" d="M76.28,39.43l0,0-1.51-3.54L64.59,18.08c-.3.14-.61.28-.9.43L73.72,36Z"/><polygon class="cls-3" points="74.79 35.87 76.3 39.41 76.69 39.19 74.79 35.87"/><polygon class="cls-3" points="76.28 39.43 73.72 36.02 75.75 39.56 75.86 39.67 76.28 39.43"/><polygon class="cls-3" points="75.86 39.67 75.75 39.56 75.82 39.69 75.86 39.67"/><path class="cls-3" d="M78.91,40.19l.06,0H78.9Z"/><path class="cls-3" d="M78.69,38.81l.49-4L79,14.92c-.34,0-.68-.08-1-.1l.19,20.7Z"/><path class="cls-3" d="M78.53,40.09l.16-1.28-.53-3.29,0,4.45.18.59.53-.37v0Z"/><path class="cls-3" d="M78.38,40.56,78.2,40v.7Z"/><path class="cls-3" d="M78.88,40l0,.1H79l0,0Z"/><polygon class="cls-3" points="79.2 39.02 79.22 38.95 79.18 34.8 78.69 38.81 78.81 39.57 79.2 39.02"/><polygon class="cls-3" points="78.9 40.14 78.88 40.04 78.61 39.85 78.81 39.57 78.69 38.81 78.53 40.09 78.9 40.14"/><polygon class="cls-3" points="79.22 39 79.22 38.95 79.2 39.02 79.22 39"/><path class="cls-3" d="M79.2,39l-.39.55.07.47.12.09.23-.16v0L79,39.85Z"/><polygon class="cls-3" points="78.61 39.85 78.88 40.04 78.81 39.57 78.61 39.85"/><polygon class="cls-3" points="78.97 39.85 79.23 39.92 79.22 39 79.2 39.02 78.97 39.85"/><path class="cls-3" d="M80.86,36.69l1.67-2.34,7.76-15.93L89.35,18,81.64,33.79Z"/><polygon class="cls-3" points="81.64 33.79 80.04 37.09 80.44 37.29 80.86 36.69 81.64 33.79"/><polygon class="cls-3" points="80.67 37.4 80.98 37.55 82.53 34.35 80.86 36.69 80.67 37.4"/><polygon class="cls-3" points="80.44 37.29 80.67 37.4 80.86 36.69 80.44 37.29"/><path class="cls-4" d="M156.15,68.79c-.75.43-1.45.88-2.13,1.33l13,15.64Z"/><path class="cls-4" d="M159.15,67.24c-.74.35-1.44.7-2.12,1.07l11.09,17.25Z"/><path class="cls-4" d="M143.84,83.37c-.21.53-.42,1.09-.62,1.66l19.25,4.69Z"/><path class="cls-4" d="M162.24,65.88c-.74.3-1.45.6-2.14.91l9,18.42Z"/><path class="cls-4" d="M145.4,79.93c-.41.79-.79,1.64-1.17,2.52l20.17,6.87Z"/><path class="cls-4" d="M147.2,76.89q-.69,1-1.32,2.16l19.4,9.59Z"/><path class="cls-4" d="M150.07,73.38a24.46,24.46,0,0,0-2.29,2.69l19.44,12.64Z"/><path class="cls-4" d="M177.64,65.49c-.9-.25-1.84-.46-2.8-.64l-1.45,20.39Z"/><path class="cls-4" d="M181.75,66.93q-1.47-.62-3.15-1.14l-3.74,17.35Z"/><polygon class="cls-2" points="169.82 89.02 169.79 89.04 169.87 89.13 169.82 89.02"/><path class="cls-4" d="M166.13,64.72a17.81,17.81,0,0,0-2.92.8l7.68,21.56Z"/><path class="cls-4" d="M141.51,90.31a.42.42,0,0,0,.37.53l24.72,1.28h.09l-24.76-3.19Z"/><path class="cls-4" d="M185.37,68.67c-.78-.44-1.67-.89-2.66-1.33l-6.93,16.31Z"/><path class="cls-4" d="M170.23,64.37a21.56,21.56,0,0,0-3.11.2L171.47,85Z"/><path class="cls-4" d="M173.85,64.68c-.85-.13-1.72-.21-2.59-.26l1.19,19.85Z"/><path class="cls-4" d="M142.88,86h0c-.22.65-.44,1.31-.66,2l18.72,2.41Z"/><path class="cls-4" d="M153.2,70.7a24.85,24.85,0,0,0-2.4,2l15.94,14.25Z"/><path class="cls-4" d="M187.72,70.14c-.39-.28-.89-.61-1.47-1l-12.16,19c.41-.41.82-.86,1.25-1.37L187.5,71.52C188.06,70.87,188.4,70.65,187.72,70.14Z"/><path class="cls-3" d="M166.78,91.19l-.14.57-5.7-1.39L142.22,88c-.1.31-.19.65-.29,1l24.76,3.19a6,6,0,0,0,1.91-.31Z"/><path class="cls-3" d="M166.87,90.79l-.08.34,1.72.22-4.11-2-20.17-6.87c-.13.3-.26.6-.39.92l18.63,6.35Z"/><path class="cls-3" d="M168.51,91.35l-1.72-.22v.06l1.82.62.49-.17Z"/><path class="cls-3" d="M147.75,76.05l-.55.84h0c.19-.28.38-.55.58-.82Z"/><path class="cls-3" d="M170.18,91.06l-.57-.68-.23.26-2.16-1.93L147.78,76.07c-.2.27-.39.54-.58.82l18.08,11.75Z"/><path class="cls-3" d="M170.19,88.78l-.37.24.05.11L171,90.48l-1.88-5.27-9-18.42-.95.45,9,18.32Z"/><path class="cls-3" d="M171.12,90.63l.23-.15-.27.1Z"/><path class="cls-3" d="M169.79,89l-.41.26.66.59-.36.42.81.52-.16.25.39-.22-.85-1.73Z"/><path class="cls-3" d="M169.27,89.2l-2.21-3.44L154,70.12l-.82.58,13.54,16.24Z"/><path class="cls-3" d="M169.68,90.31l-.07.07.57.68.09,0,.06,0,.16-.25Z"/><path class="cls-3" d="M171,90.59l0-.11-1.13-1.35.85,1.73.4-.23,0,0Z"/><path class="cls-3" d="M171.54,90.14l-.65-3.06-7.68-21.56-.49.16c-.16.07-.31.14-.48.2l6.88,19.33Z"/><path class="cls-3" d="M171.54,90.14l-2.42-4.93L171,90.48l.08.1.27-.1.22-.16Z"/><polygon class="cls-3" points="171.08 90.58 171 90.48 171.04 90.59 171.08 90.58"/><path class="cls-3" d="M171.74,89.48,171.47,85l-4.35-20.47c-.33.05-.66.09-1,.15l4.76,22.36Z"/><path class="cls-3" d="M171.78,90.18l0-.7-.85-2.4.65,3.06.07.16Z"/><path class="cls-3" d="M171.61,90.3l-.07-.16,0,.18Z"/><path class="cls-3" d="M172.7,88.41l.69-3.17,1.45-20.39-1-.17-1.4,19.59Z"/><path class="cls-3" d="M173.21,87.66l.63-1-.41-.18,1.43-3.37,3.74-17.35-1-.3-4.25,19.75Z"/><polygon class="cls-3" points="173.22 87.66 173.39 85.24 172.7 88.41 172.71 88.46 173.22 87.66"/><path class="cls-3" d="M185.37,68.67l-9.59,15-1.39,3.27-.31-.13-.39,1.8.4-.41,12.16-19Z"/><path class="cls-3" d="M172.81,89.39h-.05v.05Z"/><path class="cls-3" d="M173.21,87.66l-.1,1.46.58-.53.39-1.8-.24-.1Z"/><path class="cls-3" d="M172.71,88.46l0,.92h.05l.3-.27.1-1.46Z"/><path class="cls-3" d="M169.4,90.12l-2.66-3.18L150.8,72.69c-.25.23-.5.45-.73.69l17.15,15.33Z"/><polygon class="cls-3" points="167.22 88.71 169.38 90.64 169.61 90.38 169.4 90.12 167.22 88.71"/><polygon class="cls-3" points="170.04 89.89 169.38 89.3 169.35 89.32 169.27 89.2 166.74 86.94 169.4 90.12 169.68 90.31 170.04 89.89"/><polygon class="cls-3" points="169.4 90.12 169.61 90.38 169.68 90.31 169.4 90.12"/><path class="cls-3" d="M169.48,91.48h0l.09,0-.07,0Z"/><path class="cls-3" d="M168.45,90.7l-3.17-2.06-19.4-9.59-.48.88,19,9.39Z"/><polygon class="cls-3" points="169.48 91.48 169.49 91.48 169.48 91.48 169.48 91.48"/><polygon class="cls-3" points="169.51 91.39 168.45 90.7 164.4 89.32 168.51 91.35 169.48 91.48 169.51 91.39"/><path class="cls-3" d="M168.51,91.35l.58.29.39-.16h0Z"/><path class="cls-3" d="M170.18,91.06l-4.9-2.42,3.17,2.06,1.16.4-.1.29.07,0c.21-.09.43-.2.65-.31Z"/><polygon class="cls-3" points="169.61 91.1 168.45 90.7 169.51 91.39 169.61 91.1"/><path class="cls-3" d="M170.27,91.11l-.09,0,0,.07Z"/><path class="cls-3" d="M160.94,90.37l5.56.72-4-1.37L143.22,85c-.12.3-.23.61-.34.93h0Z"/><polygon class="cls-3" points="160.94 90.38 166.64 91.76 166.78 91.19 166.5 91.09 160.94 90.38"/><polygon class="cls-3" points="166.87 90.79 162.47 89.72 166.5 91.09 166.79 91.13 166.87 90.79"/><polygon class="cls-3" points="166.5 91.09 166.78 91.19 166.79 91.13 166.5 91.09"/><path class="cls-3" d="M169.79,89l0,0-1.7-3.46L157,68.31c-.29.16-.6.31-.88.48l10.91,17Z"/><polygon class="cls-3" points="168.13 85.56 169.82 89.02 170.19 88.78 168.13 85.56"/><polygon class="cls-3" points="169.79 89.04 167.06 85.76 169.27 89.2 169.38 89.3 169.79 89.04"/><polygon class="cls-3" points="169.38 89.3 169.27 89.2 169.35 89.32 169.38 89.3"/><path class="cls-3" d="M172.46,89.67l.06,0h-.07Z"/><path class="cls-3" d="M172.17,88.3l.28-4-1.19-19.85-1,0L171.47,85Z"/><path class="cls-3" d="M172.08,89.59l.09-1.29-.7-3.26.27,4.44.21.59.51-.4v-.06Z"/><path class="cls-3" d="M172,90.07l-.21-.59,0,.7Z"/><path class="cls-3" d="M172.43,89.52l0,.09h.07l0,0Z"/><polygon class="cls-3" points="172.69 88.48 172.7 88.41 172.45 84.27 172.17 88.3 172.33 89.05 172.69 88.48"/><polygon class="cls-3" points="172.45 89.61 172.43 89.52 172.14 89.34 172.33 89.05 172.17 88.3 172.07 89.59 172.45 89.61"/><polygon class="cls-3" points="172.71 88.46 172.7 88.41 172.69 88.48 172.71 88.46"/><path class="cls-3" d="M172.69,88.48l-.36.57.1.47.12.08.21-.17v-.05l-.25,0Z"/><polygon class="cls-3" points="172.14 89.34 172.43 89.52 172.33 89.05 172.14 89.34"/><polygon class="cls-3" points="172.51 89.33 172.76 89.38 172.71 88.46 172.69 88.48 172.51 89.33"/><path class="cls-3" d="M174.23,86.07l1.55-2.42,6.93-16.31-1-.41-6.89,16.21Z"/><polygon class="cls-3" points="174.86 83.14 173.43 86.51 173.84 86.69 174.23 86.07 174.86 83.14"/><polygon class="cls-3" points="174.08 86.79 174.39 86.92 175.78 83.65 174.23 86.07 174.08 86.79"/><polygon class="cls-3" points="173.84 86.69 174.08 86.79 174.23 86.07 173.84 86.69"/><path class="cls-4" d="M214.36,59.54c-.77,0-1.51-.07-2.24-.06L214,77.54Z"/><path class="cls-4" d="M217.35,59.88c-.72-.11-1.42-.19-2.1-.26l-.34,18.3Z"/><path class="cls-4" d="M198,64.24c-.43.29-.86.6-1.29.92l11.94,13Z"/><path class="cls-4" d="M220.31,60.41c-.69-.15-1.37-.28-2-.39l-2.46,18.13Z"/><path class="cls-4" d="M200.86,62.46c-.7.39-1.4.82-2.12,1.29l11.54,15.1Z"/><path class="cls-4" d="M203.7,61.1c-.68.28-1.36.6-2,.95l9.62,16.74Z"/><path class="cls-4" d="M207.57,59.93a21.3,21.3,0,0,0-3,.85l8.13,19Z"/><path class="cls-4" d="M231.92,67.77a25.54,25.54,0,0,0-1.76-1.87L219,80.29Z"/><path class="cls-4" d="M234.25,70.87c-.52-.79-1.11-1.6-1.76-2.41l-11.38,11Z"/><polygon class="cls-2" points="214.44 81.32 214.42 81.32 214.43 81.43 214.44 81.32"/><path class="cls-4" d="M223.77,61.48a16.73,16.73,0,0,0-2.56-.86l-5,19.79Z"/><path class="cls-4" d="M192.83,68.23a.36.36,0,0,0,0,.57L210.52,82l.06,0L193.82,67.41C193.49,67.68,193.16,67.94,192.83,68.23Z"/><path class="cls-4" d="M236.07,74c-.36-.71-.8-1.48-1.31-2.3L221.53,80.3Z"/><path class="cls-4" d="M227,63.25a19,19,0,0,0-2.4-1.39l-6.93,17.33Z"/><path class="cls-4" d="M229.52,65.28c-.57-.52-1.17-1-1.8-1.48l-9,15.31Z"/><path class="cls-4" d="M196,65.69h0c-.49.37-1,.75-1.48,1.16l12.67,11.08Z"/><path class="cls-4" d="M211.22,59.5a24.75,24.75,0,0,0-2.77.27l4.75,18.48Z"/><path class="cls-4" d="M237.08,76.21a14.49,14.49,0,0,0-.61-1.44l-18.44,8c.51-.11,1-.23,1.6-.4l16.61-5.29C237,76.92,237.34,76.93,237.08,76.21Z"/><path class="cls-3" d="M211.12,81.42l-.39.35-3.54-3.85L194.52,66.84l-.7.57,16.76,14.66a5.58,5.58,0,0,0,1.58.71Z"/><path class="cls-3" d="M211.38,81.17l-.23.21,1.17,1-2-3.55-11.54-15.1-.74.49,10.65,14Z"/><path class="cls-3" d="M212.32,82.4l-1.17-1,0,0,1,1.36.45.12Z"/><path class="cls-3" d="M204.52,60.75l-.82.35h0l.84-.32Z"/><path class="cls-3" d="M213.7,83l-.08-.78-.3.08-.65-2.51-8.13-19-.84.32,7.57,17.69Z"/><path class="cls-3" d="M214.84,81.33h-.4v.11l.16,1.56,1.23-4.84L218.28,60l-.93-.14-2.44,18Z"/><path class="cls-3" d="M214.61,83.16h.24l-.24-.06Z"/><path class="cls-3" d="M214.42,81.32H214l.2.77-.48.12.34.8-.23.1.39,0,.23-1.7Z"/><path class="cls-3" d="M214,81.18l.07-3.64-1.9-18.06-.9,0,2,18.75Z"/><path class="cls-3" d="M213.7,82.2l-.08,0,.08.78.05.08h.06L214,83Z"/><path class="cls-3" d="M214.57,83.09l0-.1-.16-1.56-.23,1.7.41,0V83.1Z"/><path class="cls-3" d="M215.16,83l1-2.6,5-19.79c-.15,0-.29-.09-.44-.12l-.46-.09-4.49,17.74Z"/><path class="cls-3" d="M215.16,83l.66-4.86L214.59,83l0,.11.24.06h.25Z"/><polygon class="cls-3" points="214.61 83.1 214.59 82.99 214.57 83.09 214.61 83.1"/><path class="cls-3" d="M215.64,82.61l2-3.42,6.93-17.33-.81-.38L216.2,80.41Z"/><path class="cls-3" d="M215.32,83.15l.32-.54.56-2.2-1,2.6,0,.15Z"/><path class="cls-3" d="M215.14,83.16l0-.15-.06.15Z"/><path class="cls-3" d="M216.89,82.3l2.08-2L230.16,65.9c-.21-.21-.42-.42-.64-.62L218.76,79.11Z"/><path class="cls-3" d="M217.64,82l.94-.41-.21-.34,2.74-1.79,11.38-11c-.19-.23-.37-.46-.57-.69L219,80.29Z"/><polygon class="cls-3" points="217.64 82 218.97 80.29 216.89 82.3 216.87 82.34 217.64 82"/><path class="cls-3" d="M236.07,74,221.53,80.3,218.87,82l-.16-.26-1.18,1.14.5-.1,18.44-8C236.35,74.51,236.22,74.24,236.07,74Z"/><path class="cls-3" d="M216.48,83.08l0,0,0,0Z"/><path class="cls-3" d="M217.64,82l-.8,1c.22,0,.45-.06.69-.11l1.18-1.14-.13-.19Z"/><path class="cls-3" d="M216.87,82.34l-.42.71,0,0,.36,0,.8-1Z"/><path class="cls-3" d="M213.59,81.93l-.39-3.68-4.75-18.48-.88.16,5.1,19.87Z"/><polygon class="cls-3" points="212.67 79.8 213.32 82.31 213.62 82.23 213.59 81.93 212.67 79.8"/><polygon class="cls-3" points="214.18 82.08 213.99 81.31 213.95 81.31 213.95 81.18 213.2 78.25 213.59 81.93 213.7 82.2 214.18 82.08"/><polygon class="cls-3" points="213.59 81.93 213.62 82.23 213.7 82.2 213.59 81.93"/><path class="cls-3" d="M213,83h0l.09,0,0-.07Z"/><path class="cls-3" d="M212.6,81.89l-1.33-3.1-9.62-16.74-.79.41,9.42,16.39Z"/><polygon class="cls-3" points="212.97 82.98 212.98 82.98 212.98 82.97 212.97 82.98"/><polygon class="cls-3" points="213.04 82.92 212.6 81.89 210.28 78.85 212.32 82.4 212.98 82.97 213.04 82.92"/><path class="cls-3" d="M212.32,82.4l.29.5L213,83h0Z"/><path class="cls-3" d="M213.7,83l-2.43-4.22,1.33,3.1.66.87-.22.17,0,.07.64.09Z"/><polygon class="cls-3" points="213.26 82.76 212.6 81.89 213.04 82.92 213.26 82.76"/><path class="cls-3" d="M213.75,83.09,213.7,83v.08Z"/><path class="cls-3" d="M207.19,77.92,211,81.21l-2.31-3-11.94-13-.71.52h0Z"/><polygon class="cls-3" points="207.19 77.92 210.73 81.77 211.12 81.42 210.96 81.21 207.19 77.92"/><polygon class="cls-3" points="211.38 81.17 208.65 78.19 210.96 81.21 211.15 81.38 211.38 81.17"/><polygon class="cls-3" points="210.96 81.21 211.12 81.42 211.15 81.38 210.96 81.21"/><path class="cls-3" d="M214.42,81.32h0l.47-3.4.34-18.3-.89-.08-.34,18Z"/><polygon class="cls-3" points="214.91 77.92 214.44 81.32 214.84 81.33 214.91 77.92"/><polygon class="cls-3" points="214.42 81.32 214.02 77.54 213.95 81.18 213.99 81.31 214.42 81.32"/><polygon class="cls-3" points="213.99 81.31 213.95 81.18 213.95 81.31 213.99 81.31"/><path class="cls-3" d="M216.08,83.11h.07l-.05,0Z"/><path class="cls-3" d="M216.54,82l2.22-2.84,9-15.31c-.24-.18-.48-.37-.74-.55l-9.33,15.94Z"/><path class="cls-3" d="M215.84,82.86l.7-.91,1.11-2.76-2,3.42-.14.54.58,0,0,0Z"/><path class="cls-3" d="M215.5,83.15l.14-.54-.32.54Z"/><path class="cls-3" d="M216.13,83l0,.08.05,0h0Z"/><polygon class="cls-3" points="216.84 82.35 216.89 82.3 218.76 79.11 216.54 81.95 216.29 82.59 216.84 82.35"/><polygon class="cls-3" points="216.1 83.06 216.13 82.98 216.01 82.71 216.29 82.59 216.54 81.95 215.84 82.86 216.1 83.06"/><polygon class="cls-3" points="216.87 82.34 216.89 82.3 216.84 82.35 216.87 82.34"/><path class="cls-3" d="M216.84,82.35l-.55.24-.16.39.05.12.25,0,0,0-.16-.17Z"/><polygon class="cls-3" points="216.01 82.71 216.13 82.98 216.29 82.59 216.01 82.71"/><polygon class="cls-3" points="216.29 82.88 216.45 83.05 216.87 82.34 216.84 82.35 216.29 82.88"/><path class="cls-3" d="M219.18,81.33l2.35-1,13.23-8.65-.51-.78-13.14,8.59Z"/><polygon class="cls-3" points="221.11 79.46 218.37 81.25 218.58 81.59 219.18 81.33 221.11 79.46"/><polygon class="cls-3" points="218.71 81.78 218.87 82.03 221.53 80.3 219.18 81.33 218.71 81.78"/><polygon class="cls-3" points="218.58 81.59 218.71 81.78 219.18 81.33 218.58 81.59"/><path class="cls-4" d="M167.84,142.94c-.72-.59-1.44-1.13-2.16-1.63l-10.75,19.13Z"/><path class="cls-4" d="M170.55,145.37c-.63-.61-1.26-1.18-1.89-1.72l-13.13,17.79Z"/><path class="cls-4" d="M148.43,136.13c-.62,0-1.26,0-1.91,0l2.66,21.19Z"/><path class="cls-4" d="M173.1,148c-.58-.63-1.16-1.23-1.73-1.8l-15.1,16.15Z"/><path class="cls-4" d="M152.5,136.38c-1-.11-2-.17-3-.21l.81,23Z"/><path class="cls-4" d="M156.25,137c-.87-.2-1.77-.37-2.68-.5l-2.23,23.22Z"/><path class="cls-4" d="M160.88,138.58a25.12,25.12,0,0,0-3.59-1.28L152,161.73Z"/><path class="cls-4" d="M179.4,163.33c-.09-1-.24-2-.43-3.07l-21.09,6.35Z"/><path class="cls-4" d="M179.53,168c0-1.15,0-2.36-.06-3.61l-18.91,2.88Z"/><polygon class="cls-2" points="152.7 164.47 152.67 164.45 152.61 164.56 152.7 164.47"/><path class="cls-4" d="M175.76,151.43a19.42,19.42,0,0,0-1.92-2.63l-18.78,16Z"/><path class="cls-4" d="M140.54,136.45a.43.43,0,0,0-.38.57l8.18,25.4,0,.08-6.28-26.16C141.58,136.37,141.08,136.4,140.54,136.45Z"/><path class="cls-4" d="M179.16,172.32c.14-.95.25-2,.32-3.18l-19.08-.73Z"/><path class="cls-4" d="M177.69,155.43a23.42,23.42,0,0,0-1.4-3.06l-18.94,12.24Z"/><path class="cls-4" d="M178.77,159.2c-.2-.91-.45-1.82-.74-2.71L158.5,165.3Z"/><path class="cls-4" d="M145.44,136.16h0c-.74,0-1.5.05-2.28.1L147.93,156Z"/><path class="cls-4" d="M164.78,140.71a28.71,28.71,0,0,0-2.92-1.67l-8.24,21.53Z"/><path class="cls-4" d="M178.58,175.26c.14-.5.28-1.13.41-1.85l-23.81-5c.58.25,1.19.5,1.86.73l20.07,6.39C178,175.88,178.33,176.14,178.58,175.26Z"/><path class="cls-3" d="M149.35,162.23l-.63.08-.79-6.27-4.75-19.78-1.09.08,6.28,26.16a6.6,6.6,0,0,0,1,1.81Z"/><path class="cls-3" d="M149.79,162.18l-.38,0,.44,1.81.47-4.92-.81-23-1.08,0,.75,21.2Z"/><path class="cls-3" d="M149.85,164l-.44-1.81h-.06l.07,2.08.36.43Z"/><path class="cls-3" d="M157.3,137.26l-1.05-.23h0c.35.09.7.17,1,.27Z"/><path class="cls-3" d="M150.78,165.62l.47-.84-.35-.13,1.12-2.92,5.27-24.43c-.34-.1-.69-.18-1-.27l-4.91,22.72Z"/><path class="cls-3" d="M153.08,164.75l-.38-.28-.09.09-.93,1.66,4.59-3.91,15.1-16.15c-.28-.28-.55-.53-.82-.79l-15,16.07Z"/><path class="cls-3" d="M151.58,166.39l.24.18-.21-.24Z"/><path class="cls-3" d="M152.67,164.45l-.42-.31-.34.89-.56-.21-.22,1-.3-.06.36.3,1.42-1.52Z"/><path class="cls-3" d="M152.31,164l2.62-3.55,10.75-19.13q-.45-.31-.9-.6l-11.16,19.86Z"/><path class="cls-3" d="M151.35,164.82l-.1,0-.47.84v.1l.06.06.3.06Z"/><path class="cls-3" d="M151.58,166.3l.1-.08.93-1.66-1.42,1.52c.13.1.25.21.39.31l0-.06Z"/><path class="cls-3" d="M152.23,166.63l2.83-1.83,18.78-16c-.12-.14-.22-.29-.35-.43l-.39-.41-16.83,14.35Z"/><path class="cls-3" d="M152.23,166.63l4-4.32-4.59,3.91-.07.11.21.24.24.17Z"/><polygon class="cls-3" points="151.62 166.33 151.68 166.22 151.59 166.3 151.62 166.33"/><path class="cls-3" d="M153,166.58l4.38-2,18.94-12.24c-.17-.32-.34-.63-.53-.94l-20.7,13.37Z"/><path class="cls-3" d="M152.28,166.89l.69-.31,2.09-1.78-2.83,1.83-.13.13Z"/><path class="cls-3" d="M152.1,166.76l.13-.13-.17.11Z"/><path class="cls-3" d="M154.42,167.14l3.46-.53L179,160.26c-.06-.36-.12-.71-.2-1.06l-20.27,6.1Z"/><path class="cls-3" d="M155.37,167.37l1.22.25,0-.48,3.95.15,18.91-2.88c0-.36,0-.72-.07-1.08l-21.52,3.28Z"/><polygon class="cls-3" points="155.37 167.37 157.88 166.61 154.42 167.14 154.38 167.16 155.37 167.37"/><path class="cls-3" d="M179.16,172.32l-18.76-3.91-3.84-.14,0-.37-2,.3.56.25,23.81,5C179.05,173.07,179.11,172.71,179.16,172.32Z"/><path class="cls-3" d="M153.47,167.62v-.05l-.05,0Z"/><path class="cls-3" d="M155.37,167.37l-1.51.45c.25.13.49.26.76.38l2-.3v-.28Z"/><path class="cls-3" d="M154.37,167.16l-.9.41v.05l.39.2,1.51-.45Z"/><path class="cls-3" d="M151.43,164.47l2.19-3.9L161.86,139c-.32-.16-.65-.32-1-.46L152,161.73Z"/><polygon class="cls-3" points="152.02 161.73 150.9 164.65 151.25 164.78 151.43 164.47 152.02 161.73"/><polygon class="cls-3" points="151.91 165.03 152.25 164.14 152.22 164.11 152.31 163.99 153.62 160.57 151.43 164.47 151.35 164.82 151.91 165.03"/><polygon class="cls-3" points="151.43 164.47 151.25 164.78 151.35 164.82 151.43 164.47"/><path class="cls-3" d="M150.1,165.07h0l.07.08,0-.09Z"/><path class="cls-3" d="M150.48,163.73l.86-4,2.23-23.22c-.36-.05-.71-.11-1.07-.15l-2.18,22.74Z"/><polygon class="cls-3" points="150.09 165.07 150.1 165.08 150.1 165.07 150.09 165.07"/><polygon class="cls-3" points="150.19 165.07 150.48 163.73 150.32 159.12 149.85 164.04 150.1 165.07 150.19 165.07"/><path class="cls-3" d="M149.85,164l-.07.7.31.33h0Z"/><path class="cls-3" d="M150.78,165.62l.56-5.87-.86,4,.05,1.33h-.34l0,.09c.18.17.36.35.57.53Z"/><polygon class="cls-3" points="150.53 165.06 150.48 163.73 150.19 165.07 150.53 165.06"/><path class="cls-3" d="M150.77,165.72v-.1l0,.07Z"/><path class="cls-3" d="M147.93,156l1.41,5.87-.16-4.58-2.66-21.19-1.06,0h0Z"/><polygon class="cls-3" points="147.93 156.04 148.72 162.31 149.35 162.23 149.34 161.91 147.93 156.04"/><polygon class="cls-3" points="149.79 162.18 149.18 157.33 149.34 161.91 149.41 162.23 149.79 162.18"/><polygon class="cls-3" points="149.34 161.91 149.35 162.23 149.41 162.23 149.34 161.91"/><path class="cls-3" d="M152.67,164.45l0,0,2.83-3,13.13-17.79c-.27-.24-.55-.49-.82-.71l-12.91,17.5Z"/><polygon class="cls-3" points="155.53 161.44 152.7 164.47 153.08 164.75 155.53 161.44"/><polygon class="cls-3" points="152.67 164.45 154.93 160.44 152.31 163.99 152.25 164.14 152.67 164.45"/><polygon class="cls-3" points="152.25 164.14 152.31 163.99 152.22 164.11 152.25 164.14"/><path class="cls-3" d="M153.06,167.37l.07,0,0-.08Z"/><path class="cls-3" d="M154.32,166.56l4.18-1.26L178,156.49c-.11-.36-.21-.71-.34-1.06l-20.34,9.18Z"/><path class="cls-3" d="M153,167l1.33-.4,3-1.95-4.38,2-.51.43.6.36.05,0Z"/><path class="cls-3" d="M152.46,167l.51-.43-.69.31Z"/><path class="cls-3" d="M153.2,167.28l-.09.06,0,.08,0,0Z"/><polygon class="cls-3" points="154.34 167.15 154.42 167.14 158.5 165.3 154.32 166.56 153.63 167 154.34 167.15"/><polygon class="cls-3" points="153.11 167.34 153.2 167.28 153.27 166.93 153.63 167 154.32 166.56 153 166.96 153.11 167.34"/><polygon class="cls-3" points="154.38 167.16 154.42 167.14 154.34 167.15 154.38 167.16"/><path class="cls-3" d="M154.34,167.15l-.71-.14-.43.27,0,.16.25.15.05,0-.05-.28Z"/><polygon class="cls-3" points="153.27 166.93 153.2 167.28 153.63 167 153.27 166.93"/><polygon class="cls-3" points="153.42 167.29 153.47 167.57 154.38 167.16 154.34 167.15 153.42 167.29"/><path class="cls-3" d="M157.36,167.78l3,.63,19.08.73c0-.36,0-.74.05-1.12l-19-.73Z"/><polygon class="cls-3" points="160.56 167.29 156.61 167.14 156.59 167.62 157.36 167.78 160.56 167.29"/><polygon class="cls-3" points="156.58 167.9 156.56 168.27 160.4 168.41 157.36 167.78 156.58 167.9"/><polygon class="cls-3" points="156.59 167.62 156.58 167.9 157.36 167.78 156.59 167.62"/></g></g></svg>