<svg xmlns="http://www.w3.org/2000/svg" viewBox="0 0 278.06 134.54"><defs><style>.cls-1{fill:#807166;}.cls-2{fill:#1b6540;}.cls-3{fill:#77b197;}.cls-4{fill:#438c4f;}</style></defs><g id="Layer_2" data-name="Layer 2"><g id="Layer_1-2" data-name="Layer 1"><path class="cls-1" d="M278.06,130.42c-5.07-1-9.24-1.83-13.67-2.48-2.2-.32-4.47-.56-6.93-.78s-5.1-.34-8.08-.45c-2-.06-5.29-.17-12.11-.48-13.56-.67-36.52-2.23-55.62-5.32-4.78-.74-9.26-1.68-13.26-2.65-2-.57-3.87-1-5.6-1.65l-2.52-.83-2.3-.87c-1.47-.54-2.78-1.1-3.92-1.6s-2.15-.9-2.94-1.3l-2.48-1.17-.54-.26-1.52-.8-2.42-1.26-3.16-1.8a155,155,0,0,1-17.68-12,221.59,221.59,0,0,1-20.24-18C96.6,70.18,90.63,63.55,85.86,57.85c-5.82-7-9.22-11.42-11-13.74C67.64,34.68,62.72,29.94,55.07,23c3.5,9.7,6.32,16.15,13.57,25.84,1.81,2.38,5.26,6.95,11.21,14.06,4.88,5.84,11,12.64,17.67,19.35a229.83,229.83,0,0,0,21,18.62,162.77,162.77,0,0,0,18.58,12.61l3.35,1.9,2.57,1.34,1.62.84.57.27,2.65,1.26c.84.42,1.9.88,3.14,1.4s2.62,1.14,4.21,1.71l2.47.94,2.72.91c1.87.66,3.93,1.17,6.07,1.79,4.31,1,9,2,13.94,2.81,19.66,3.19,42.76,4.76,56.51,5.41,6.9.31,10.23.41,12.27.45,3,.08,5.71,0,8.21-.12s4.81-.39,7.05-.73A91.59,91.59,0,0,0,278.06,130.42Z"/><path class="cls-1" d="M160.61,115.3a35,35,0,0,1-3.6.74l-1.71.27-1.68.18c-1.1.14-2.2.22-3.28.33l-3.25.31c-4.37.42-8.93,1-14.74,1.88-2,.3-5.18.8-11.88,1.49-2.61.23-7,.61-10.68.66a50.25,50.25,0,0,1-6.54-.26s-.61-.07-1.59-.22a31.5,31.5,0,0,1-3.78-.79,37,37,0,0,1-8.65-3.69,64.34,64.34,0,0,1-8.59-6.12c-2.16-1.82-3.71-3.22-4.75-4.2-4.21-4-7.48-7.1-10.71-10.07s-6.4-5.76-10.11-9.35A62.87,62.87,0,0,0,60.72,99.4a56.08,56.08,0,0,0,9.82,12.15c1.1,1.07,2.75,2.58,5.08,4.54a69.6,69.6,0,0,0,9.67,6.9,43.85,43.85,0,0,0,10.57,4.48,41.8,41.8,0,0,0,4.64.94c1.18.17,1.89.24,1.89.24a58.12,58.12,0,0,0,7.48.35c4,0,8.63-.42,11.36-.7,7-.72,10.28-1.25,12.32-1.59a65.86,65.86,0,0,0,14.95-4c1.06-.44,2.1-.89,3.13-1.42s2-1,3.05-1.64l1.51-.91c.5-.33,1-.69,1.5-1A30.3,30.3,0,0,0,160.61,115.3Z"/><path class="cls-1" d="M80.9,119.37c-3.45-1.87-5.7-2.79-9.21-2.24-1.91.29-7.59,1.26-12.72,1.54a65.76,65.76,0,0,1-6.77.08c-.89,0-1.62-.09-2.13-.13l-.79-.06-.78-.1c-.49-.06-1.21-.14-2.07-.29a43.51,43.51,0,0,1-6.38-1.56,37.76,37.76,0,0,1-6.53-2.86,34.34,34.34,0,0,1-3.93-2.62,12,12,0,0,0-3.69-2,18.75,18.75,0,0,0-2.12-.6l-2.56-.66c-.29,3.88.4,6.76,3.52,9.35a36.23,36.23,0,0,0,4.91,3.35,44.67,44.67,0,0,0,8,3.48,49.63,49.63,0,0,0,7.57,1.81c1,.18,1.85.27,2.44.34l.91.1.91.08c.58,0,1.41.12,2.42.16a72,72,0,0,0,7.58,0A115.23,115.23,0,0,0,73,124.81C76.63,124.12,78.41,122.39,80.9,119.37Z"/><path class="cls-1" d="M203.55,130.42c2-2.37,3-4.19,2.33-6.52a77.75,77.75,0,0,0-3-8.27c-1.38-3.28-2.83-6.16-2.83-6.16s-1.4-2.91-3.14-6A77,77,0,0,0,192.19,96c-1.44-2-3.46-2.31-6.58-2.15-.64,3.11-1,4.79.18,6.62.67,1,2.61,4,4.24,6.85s3,5.59,3,5.59,1.32,2.72,2.6,5.78,2.48,6.43,2.82,7.54C199.14,128.29,200.7,129,203.55,130.42Z"/><path class="cls-1" d="M103.55,85.47a22.18,22.18,0,0,0,5.54-.67A13,13,0,0,0,113.84,82l1.85-1.76c.8-.74,1.69-1.69,2.65-2.75l1.51-1.64c.51-.57,1-1.19,1.51-1.8l1.54-1.88c.51-.63,1-1.3,1.46-1.94l1.41-1.92c.45-.63.85-1.27,1.25-1.88.79-1.22,1.56-2.31,2.1-3.31L131,59.88l1.72-3.31c.55-1,1.06-2.23,1.67-3.55.3-.66.63-1.34.92-2.06l.86-2.22c.29-.75.61-1.5.87-2.27s.51-1.54.76-2.3.51-1.51.72-2.25.39-1.46.57-2.15c.38-1.38.71-2.64.9-3.71s.39-1.93.51-2.5a13,13,0,0,0-.17-5.53,21.68,21.68,0,0,0-2.39-5,30.26,30.26,0,0,0-3.29,4.33,13.37,13.37,0,0,0-1.81,4.77c-.12.52-.29,1.3-.5,2.27s-.49,2.12-.84,3.37c-.16.63-.34,1.29-.52,2s-.44,1.35-.66,2-.45,1.39-.68,2.1-.53,1.39-.79,2.07-.53,1.37-.78,2-.57,1.28-.84,1.89c-.55,1.2-1,2.34-1.51,3.24l-1.55,3-1.73,2.93c-.5.91-1.22,1.9-1.94,3-.37.55-.73,1.14-1.15,1.71l-1.29,1.74c-.44.59-.87,1.2-1.33,1.78L115.32,69c-.47.56-.92,1.13-1.38,1.65l-1.37,1.49c-.88,1-1.68,1.84-2.41,2.51l-1.65,1.64a13.38,13.38,0,0,0-3.06,4.09A29.15,29.15,0,0,0,103.55,85.47Z"/><path class="cls-1" d="M124.89,65.34a11.91,11.91,0,0,0,2.46,2.53,3.35,3.35,0,0,0,2.55.56,45.1,45.1,0,0,0,6.7-2c1.33-.5,2.57-1.06,3.48-1.49l1.48-.73,1.45-.77c.88-.49,2.06-1.16,3.25-2a44.41,44.41,0,0,0,5.53-4.27,3.37,3.37,0,0,0,1-2.39,11.68,11.68,0,0,0-.61-3.47,19.7,19.7,0,0,0-3.41-.61,3,3,0,0,0-2.2.64,55.73,55.73,0,0,1-4.67,3.54c-1,.68-2,1.25-2.72,1.67l-1.22.67-1.25.59c-.77.35-1.81.82-2.94,1.23a51.68,51.68,0,0,1-5.61,1.71,3,3,0,0,0-1.81,1.42A21.81,21.81,0,0,0,124.89,65.34Z"/><path class="cls-2" d="M171.72,76.23c-.74.53-1.43,1.08-2.09,1.63l15.32,15Z"/><path class="cls-2" d="M174.7,74.29c-.73.45-1.44.9-2.11,1.35L186,92.57Z"/><path class="cls-2" d="M160.34,92.82c-.17.59-.33,1.2-.48,1.81l20.69,2.89Z"/><path class="cls-2" d="M177.8,72.55c-.74.39-1.46.78-2.15,1.17l11.4,18.38Z"/><path class="cls-2" d="M161.62,89.05c-.35.88-.67,1.81-1,2.76l21.88,5.09Z"/><path class="cls-2" d="M163.19,85.67A25.54,25.54,0,0,0,162,88.08l21.35,8Z"/><path class="cls-2" d="M165.82,81.69a26.88,26.88,0,0,0-2.12,3.06L185.42,96Z"/><path class="cls-2" d="M193.91,70.52c-1-.17-2-.3-3-.38l.62,21.54Z"/><path class="cls-2" d="M198.38,71.59c-1.08-.32-2.22-.62-3.43-.87l-2.09,18.59Z"/><polygon class="cls-2" points="188.18 96.02 188.16 96.04 188.25 96.13 188.18 96.02"/><path class="cls-2" d="M181.75,70.92a19.53,19.53,0,0,0-3,1.14L189.1,93.87Z"/><path class="cls-2" d="M158.63,100.35a.43.43,0,0,0,.44.51l26.07-1.25h.09l-26.31-.74C158.82,99.36,158.72,99.84,158.63,100.35Z"/><path class="cls-2" d="M202.35,73c-.87-.37-1.84-.75-2.92-1.11l-5.56,17.84Z"/><path class="cls-2" d="M186,70.12a22.35,22.35,0,0,0-3.24.54l6.72,21Z"/><path class="cls-2" d="M189.85,70.06c-.91,0-1.82,0-2.74,0l3.34,20.69Z"/><path class="cls-2" d="M159.61,95.66v0c-.17.71-.33,1.42-.49,2.17l19.9.56Z"/><path class="cls-2" d="M168.83,78.55a26.92,26.92,0,0,0-2.32,2.34l18.23,13.27Z"/><path class="cls-2" d="M205,74.33c-.44-.26-1-.55-1.64-.86L192.58,94.69c.38-.48.77-1,1.16-1.57L204.89,75.8C205.4,75.06,205.74,74.79,205,74.33Z"/><path class="cls-3" d="M185.22,98.61l-.08.62L179,98.37l-19.9-.56c-.07.34-.13.7-.2,1l26.31.74a6.32,6.32,0,0,0,2-.53Z"/><path class="cls-3" d="M185.28,98.19l-.05.36,1.82,0-4.52-1.7-21.88-5.09c-.1.34-.21.67-.31,1l20.21,4.7Z"/><path class="cls-3" d="M187.05,98.6l-1.82,0v.06l2,.46.5-.23Z"/><path class="cls-3" d="M163.66,84.73l-.48.94h0c.16-.31.34-.61.51-.92Z"/><path class="cls-3" d="M188.78,98.12l-.67-.65-.21.29L185.42,96,163.7,84.75c-.17.31-.35.61-.51.92L183.38,96.1Z"/><path class="cls-3" d="M188.55,95.73l-.37.29.07.1,1.33,1.31-2.53-5.33-11.4-18.38-1,.57L186,92.57Z"/><path class="cls-3" d="M189.72,97.56l.22-.17-.27.13Z"/><path class="cls-3" d="M188.16,96l-.4.32.75.54-.34.48.91.47-.14.27.38-.26-1.07-1.74Z"/><path class="cls-3" d="M187.63,96.26,185,92.89l-15.32-15c-.28.23-.54.46-.8.69l15.91,15.61Z"/><path class="cls-3" d="M188.17,97.38l-.06.09.67.65.1,0,.06,0,.14-.27Z"/><path class="cls-3" d="M189.63,97.54l0-.11-1.33-1.31,1.07,1.74.4-.3-.05,0Z"/><path class="cls-3" d="M190.1,97l-1-3.14L178.78,72.06l-.49.22-.49.27,9.25,19.55Z"/><path class="cls-3" d="M190.1,97l-3-4.91,2.53,5.33.09.09.27-.13.22-.19Z"/><polygon class="cls-3" points="189.67 97.52 189.58 97.43 189.63 97.54 189.67 97.52"/><path class="cls-3" d="M190.25,96.3l-.75-4.64-6.72-21c-.35.08-.69.16-1,.26l7.35,23Z"/><path class="cls-3" d="M190.36,97l-.11-.73-1.15-2.43,1,3.14.1.16Z"/><path class="cls-3" d="M190.2,97.17l-.1-.16.06.19Z"/><path class="cls-3" d="M191.15,95.08l.38-3.4-.62-21.54-1.06-.08.6,20.69Z"/><path class="cls-3" d="M191.6,94.24l.55-1.09-.44-.14,1.15-3.7L195,70.72l-1-.2-2.38,21.16Z"/><polygon class="cls-3" points="191.6 94.23 191.53 91.68 191.15 95.08 191.15 95.12 191.6 94.23"/><path class="cls-3" d="M202.35,73l-8.48,16.73-1.11,3.58-.34-.11-.22,1.93.38-.47,10.75-21.22Z"/><path class="cls-3" d="M191.36,96.09h-.05v0Z"/><path class="cls-3" d="M191.6,94.24l.05,1.53.55-.61.22-1.93-.27-.08Z"/><path class="cls-3" d="M191.15,95.12l.16,1h.05l.29-.32-.05-1.53Z"/><path class="cls-3" d="M187.86,97.22l-3.12-3.06L166.51,80.89c-.23.26-.47.53-.69.8L185.42,96Z"/><polygon class="cls-3" points="185.42 95.96 187.9 97.76 188.11 97.47 187.86 97.22 185.42 95.96"/><polygon class="cls-3" points="188.51 96.9 187.76 96.36 187.72 96.38 187.63 96.26 184.74 94.16 187.86 97.22 188.17 97.38 188.51 96.9"/><polygon class="cls-3" points="187.86 97.22 188.11 97.47 188.17 97.38 187.86 97.22"/><path class="cls-3" d="M188.09,98.63h0l.09,0-.08,0Z"/><path class="cls-3" d="M186.92,97.92l-3.54-1.82-21.35-8c-.14.32-.28.64-.41,1l20.91,7.85Z"/><polygon class="cls-3" points="188.09 98.63 188.1 98.63 188.09 98.63 188.09 98.63"/><polygon class="cls-3" points="188.11 98.54 186.93 97.92 182.53 96.9 187.05 98.6 188.09 98.63 188.11 98.54"/><path class="cls-3" d="M187.05,98.6l.65.24.39-.21h0Z"/><path class="cls-3" d="M188.78,98.12l-5.4-2,3.54,1.82,1.27.3-.08.32.08,0c.21-.12.43-.25.65-.4Z"/><polygon class="cls-3" points="188.19 98.22 186.93 97.92 188.11 98.54 188.19 98.22"/><path class="cls-3" d="M188.88,98.16l-.1,0,.06.06Z"/><path class="cls-3" d="M179,98.37l5.9.17-4.37-1-20.69-2.89c-.09.33-.17.67-.25,1v0Z"/><polygon class="cls-3" points="179.01 98.37 185.13 99.23 185.22 98.61 184.92 98.54 179.01 98.37"/><polygon class="cls-3" points="185.28 98.19 180.55 97.52 184.92 98.54 185.23 98.55 185.28 98.19"/><polygon class="cls-3" points="184.92 98.54 185.22 98.61 185.23 98.55 184.92 98.54"/><path class="cls-3" d="M188.16,96l0,0L186,92.57,172.59,75.64c-.29.2-.59.39-.87.59L185,92.89Z"/><polygon class="cls-3" points="186.04 92.57 188.18 96.02 188.55 95.73 186.04 92.57"/><polygon class="cls-3" points="188.16 96.04 184.95 92.89 187.63 96.26 187.76 96.36 188.16 96.04"/><polygon class="cls-3" points="187.76 96.36 187.63 96.26 187.72 96.38 187.76 96.36"/><path class="cls-3" d="M191,96.42l.06-.06H191Z"/><path class="cls-3" d="M190.57,95l-.12-4.27-3.34-20.69c-.37,0-.73,0-1.09.06l3.48,21.54Z"/><path class="cls-3" d="M190.61,96.37l0-1.35-1.07-3.36.75,4.64.28.59.49-.47,0-.06Z"/><path class="cls-3" d="M190.53,96.89l-.28-.59.11.73Z"/><path class="cls-3" d="M191,96.27l0,.09h.08l0,0Z"/><polygon class="cls-3" points="191.14 95.15 191.15 95.08 190.45 90.75 190.57 95.02 190.82 95.79 191.14 95.15"/><polygon class="cls-3" points="191 96.36 190.97 96.27 190.66 96.11 190.82 95.79 190.57 95.02 190.61 96.37 191 96.36"/><polygon class="cls-3" points="191.15 95.12 191.15 95.08 191.14 95.15 191.15 95.12"/><path class="cls-3" d="M191.14,95.15l-.32.64.15.48.14.06a1.94,1.94,0,0,0,.21-.2v0l-.27,0Z"/><polygon class="cls-3" points="190.66 96.11 190.97 96.27 190.82 95.79 190.66 96.11"/><polygon class="cls-3" points="191.04 96.06 191.31 96.09 191.15 95.12 191.14 95.15 191.04 96.06"/><path class="cls-3" d="M192.5,92.46l1.37-2.7,5.56-17.84-1.05-.33-5.52,17.72Z"/><polygon class="cls-3" points="192.86 89.31 191.71 93.01 192.15 93.15 192.5 92.46 192.86 89.31"/><polygon class="cls-3" points="192.41 93.23 192.76 93.34 193.87 89.76 192.5 92.46 192.41 93.23"/><polygon class="cls-3" points="192.15 93.15 192.41 93.23 192.5 92.46 192.15 93.15"/><path class="cls-2" d="M54.05,5.09c-.9.23-1.75.49-2.57.77l9.15,20.25Z"/><path class="cls-2" d="M57.59,4.35c-.87.15-1.7.31-2.49.5l6.69,21.37Z"/><path class="cls-2" d="M37.26,16.75c-.37.49-.74,1-1.11,1.55L54.78,28.91Z"/><path class="cls-2" d="M61.16,3.84c-.85.1-1.67.2-2.47.32l4.23,22Z"/><path class="cls-2" d="M39.83,13.6c-.65.71-1.28,1.48-1.91,2.29l19,13.17Z"/><path class="cls-2" d="M42.54,10.94c-.67.59-1.33,1.21-2,1.88L58,28.61Z"/><path class="cls-2" d="M46.48,8.11a26.5,26.5,0,0,0-3.12,2.14L60,29.25Z"/><path class="cls-2" d="M77.21,8c-.86-.53-1.78-1-2.72-1.5l-7.17,21Z"/><path class="cls-2" d="M81.07,10.7c-.91-.72-1.89-1.43-2.95-2.13L69.44,25.66Z"/><polygon class="cls-2" points="62.58 30.35 62.55 30.36 62.6 30.47 62.58 30.35"/><path class="cls-2" d="M65.51,3.77a19.58,19.58,0,0,0-3.25,0l2,24.89Z"/><path class="cls-2" d="M32.92,23.34a.46.46,0,0,0,.24.66l25.23,8.65.09,0L33.74,22C33.46,22.46,33.2,22.88,32.92,23.34Z"/><path class="cls-2" d="M84.32,13.59c-.68-.69-1.48-1.42-2.38-2.17L70.24,26.47Z"/><path class="cls-2" d="M69.85,4.61a24.21,24.21,0,0,0-3.28-.7L65.4,26.65Z"/><path class="cls-2" d="M73.51,6c-.84-.38-1.72-.72-2.61-1L66.63,26.14Z"/><path class="cls-2" d="M35.54,19.2v0c-.41.61-.83,1.24-1.24,1.9L53,29.14Z"/><path class="cls-2" d="M50.47,6.23a25.5,25.5,0,0,0-3,1.37L60,27.25Z"/><path class="cls-2" d="M86.35,15.83c-.32-.41-.75-.91-1.25-1.45L67.24,30.73c.53-.32,1.09-.66,1.67-1.07L85.74,17.21C86.5,16.7,86.92,16.57,86.35,15.83Z"/><path class="cls-3" d="M58.83,31.72l-.3.56L53,29.14l-18.7-8.06c-.19.3-.38.63-.57.94L58.48,32.68a6.45,6.45,0,0,0,2.06.23Z"/><path class="cls-3" d="M59,31.33l-.18.33,1.71.74-3.68-3.34-19-13.17c-.22.29-.44.56-.66.86L54.78,28.91Z"/><path class="cls-3" d="M60.57,32.4l-1.71-.74,0,.06,1.71,1.19.56,0Z"/><path class="cls-3" d="M43.33,10.22l-.8.72h0l.82-.69Z"/><path class="cls-3" d="M62.39,32.59l-.4-.88-.31.21L60,29.25l-16.62-19-.82.69L58,28.61Z"/><path class="cls-3" d="M63,30.2l-.45.15,0,.12.8,1.76-.48-6.08-4.23-22-1.1.19,4.2,21.87Z"/><path class="cls-3" d="M63.48,32.41l.28-.08-.31,0Z"/><path class="cls-3" d="M62.55,30.35l-.5.16.52.81-.49.33.69.8-.23.2.46-.11-.4-2.07Z"/><path class="cls-3" d="M62,30.37l-1.33-4.26L51.48,5.86l-1,.37,9.5,21Z"/><path class="cls-3" d="M62.08,31.65l-.09.06.4.88.08.08.07,0,.23-.2Z"/><path class="cls-3" d="M63.41,32.35v-.12l-.8-1.76.4,2.07.48-.13,0-.06Z"/><path class="cls-3" d="M64.05,32l.17-3.4-2-24.89c-.18,0-.36,0-.54,0l-.56.07,1.76,22.31Z"/><path class="cls-3" d="M64.05,32l-1.13-5.88.48,6.08.05.12.31,0,.28-.1Z"/><polygon class="cls-3" points="63.45 32.35 63.4 32.23 63.41 32.35 63.45 32.35"/><path class="cls-3" d="M64.44,31.39l1-4.74L66.57,3.91c-.35-.06-.71-.1-1.06-.14L64.22,28.63Z"/><path class="cls-3" d="M64.29,32.14l.15-.75-.22-2.76L64.05,32l0,.18Z"/><path class="cls-3" d="M64.08,32.21l0-.18v.2Z"/><path class="cls-3" d="M65.74,30.56l1.58-3.13L74.49,6.48c-.32-.16-.64-.33-1-.48L66.63,26.14Z"/><path class="cls-3" d="M66.47,29.92l.92-.83L67,28.78l2.43-3.12L78.12,8.57c-.3-.2-.6-.4-.91-.59L67.32,27.43Z"/><polygon class="cls-3" points="66.47 29.92 67.32 27.43 65.73 30.56 65.73 30.61 66.47 29.92"/><path class="cls-3" d="M84.32,13.59,70.24,26.47l-2.35,3-.28-.24L66.7,31l.54-.31L85.1,14.38C84.86,14.13,84.6,13.86,84.32,13.59Z"/><path class="cls-3" d="M65.57,31.62l0,0v.05Z"/><path class="cls-3" d="M66.47,29.92,66,31.42c.25-.12.49-.24.74-.38l.91-1.78-.22-.17Z"/><path class="cls-3" d="M65.73,30.61l-.2,1,0,0,.39-.2.51-1.5Z"/><path class="cls-3" d="M61.84,31.38,60,27.25,47.43,7.6c-.32.16-.64.33-1,.51L60,29.25Z"/><polygon class="cls-3" points="59.98 29.25 61.68 31.92 61.99 31.71 61.84 31.38 59.98 29.25"/><polygon class="cls-3" points="62.57 31.32 62.05 30.51 62.01 30.52 61.97 30.37 59.97 27.25 61.84 31.38 62.08 31.65 62.57 31.32"/><polygon class="cls-3" points="61.84 31.38 61.99 31.71 62.08 31.65 61.84 31.38"/><path class="cls-3" d="M61.55,32.82h.12l-.07-.07Z"/><path class="cls-3" d="M60.7,31.7,58,28.61,40.57,12.82c-.25.25-.5.51-.74.78L56.89,29.06Z"/><polygon class="cls-3" points="61.55 32.83 61.56 32.83 61.55 32.82 61.55 32.83"/><polygon class="cls-3" points="61.6 32.74 60.7 31.7 56.89 29.06 60.58 32.4 61.55 32.82 61.6 32.74"/><path class="cls-3" d="M60.57,32.4l.53.48.45-.05h0Z"/><path class="cls-3" d="M62.39,32.59l-4.4-4L60.7,31.7l1.09.76-.19.28.07.07c.24,0,.49-.08.76-.13Z"/><polygon class="cls-3" points="61.79 32.46 60.7 31.7 61.6 32.74 61.79 32.46"/><path class="cls-3" d="M62.47,32.67l-.08-.08,0,.09Z"/><path class="cls-3" d="M53,29.14l5.56,2.4-3.79-2.63L36.15,18.3l-.6.88v0Z"/><polygon class="cls-3" points="53.02 29.14 58.52 32.28 58.83 31.72 58.57 31.54 53.02 29.14"/><polygon class="cls-3" points="59.04 31.33 54.78 28.91 58.57 31.54 58.86 31.66 59.04 31.33"/><polygon class="cls-3" points="58.57 31.54 58.83 31.72 58.86 31.66 58.57 31.54"/><path class="cls-3" d="M62.55,30.35h0l-.79-4.13L55.1,4.85c-.35.08-.71.15-1.05.24l6.58,21Z"/><polygon class="cls-3" points="61.79 26.22 62.58 30.35 63.03 30.2 61.79 26.22"/><polygon class="cls-3" points="62.55 30.36 60.63 26.11 61.97 30.37 62.05 30.51 62.55 30.36"/><polygon class="cls-3" points="62.05 30.51 61.97 30.37 62.01 30.52 62.05 30.51"/><path class="cls-3" d="M65.13,31.8l.08,0-.08,0Z"/><path class="cls-3" d="M65.21,30.28l1.42-4.14L70.9,5c-.35-.12-.7-.25-1.05-.36l-4.45,22Z"/><path class="cls-3" d="M64.76,31.6l.45-1.32.19-3.63-1,4.74,0,.68c.21-.08.43-.17.64-.27v-.06Z"/><path class="cls-3" d="M64.49,32.07l0-.68-.15.75Z"/><path class="cls-3" d="M65.14,31.64v.1l.08,0h0Z"/><polygon class="cls-3" points="65.7 30.63 65.73 30.56 66.63 26.14 65.21 30.29 65.17 31.12 65.7 30.63"/><polygon class="cls-3" points="65.14 31.74 65.14 31.64 64.9 31.36 65.17 31.12 65.21 30.29 64.76 31.61 65.14 31.74"/><polygon class="cls-3" points="65.73 30.61 65.73 30.56 65.7 30.63 65.73 30.61"/><path class="cls-3" d="M65.7,30.63l-.53.49,0,.52.11.12.27-.12v-.05l-.25-.13Z"/><polygon class="cls-3" points="64.9 31.36 65.14 31.64 65.17 31.12 64.9 31.36"/><polygon class="cls-3" points="65.28 31.46 65.53 31.59 65.73 30.61 65.7 30.63 65.28 31.46"/><path class="cls-3" d="M68,28.56l2.27-2.09,11.7-15-.87-.72-11.63,15Z"/><polygon class="cls-3" points="69.44 25.66 67.01 28.78 67.39 29.09 67.97 28.56 69.44 25.66"/><polygon class="cls-3" points="67.61 29.26 67.89 29.5 70.24 26.47 67.97 28.56 67.61 29.26"/><polygon class="cls-3" points="67.39 29.09 67.61 29.26 67.97 28.56 67.39 29.09"/><path class="cls-2" d="M138,0c-.91,0-1.79,0-2.65,0L138,21.32Z"/><path class="cls-2" d="M141.56.39c-.85-.11-1.68-.2-2.49-.26L139,21.75Z"/><path class="cls-2" d="M118.77,5.9c-.49.35-1,.73-1.5,1.11l14.36,15.18Z"/><path class="cls-2" d="M145.07,1c-.82-.16-1.63-.3-2.41-.42L140.1,22Z"/><path class="cls-2" d="M122.13,3.75c-.82.47-1.65,1-2.48,1.56l13.91,17.63Z"/><path class="cls-2" d="M125.46,2.09c-.8.34-1.61.73-2.41,1.16l11.68,19.59Z"/><path class="cls-2" d="M130,.63a26.16,26.16,0,0,0-3.57,1.07l10,22.31Z"/><path class="cls-2" d="M158.93,9.44c-.66-.75-1.37-1.47-2.11-2.18l-13,17.22Z"/><path class="cls-2" d="M161.74,13.06c-.63-.92-1.35-1.87-2.13-2.81L146.37,23.46Z"/><polygon class="cls-2" points="138.53 25.78 138.5 25.78 138.51 25.9 138.53 25.78"/><path class="cls-2" d="M149.18,2.16a19.57,19.57,0,0,0-3-1l-5.55,23.48Z"/><path class="cls-2" d="M112.74,10.72a.43.43,0,0,0,0,.67l21.15,15.29.07.05-20.08-17C113.51,10.06,113.13,10.37,112.74,10.72Z"/><path class="cls-2" d="M164,16.67c-.45-.83-1-1.74-1.59-2.7L146.88,24.44Z"/><path class="cls-2" d="M153,4.2a21.76,21.76,0,0,0-2.87-1.61L142.28,23.2Z"/><path class="cls-2" d="M156,6.54c-.68-.6-1.4-1.17-2.15-1.71l-10.3,18.25Z"/><path class="cls-2" d="M116.43,7.66v0c-.57.45-1.14.91-1.73,1.4L129.9,21.89Z"/><path class="cls-2" d="M134.31.05a28.23,28.23,0,0,0-3.26.38L137,22.17Z"/><path class="cls-2" d="M165.18,19.32c-.18-.48-.43-1.06-.74-1.7l-21.65,9.86c.6-.13,1.23-.29,1.89-.5l19.53-6.57C165.06,20.16,165.5,20.16,165.18,19.32Z"/><path class="cls-3" d="M134.6,26l-.46.43-4.24-4.49L114.71,9l-.81.69,20.08,17a6.06,6.06,0,0,0,1.88.82Z"/><path class="cls-3" d="M134.91,25.66l-.27.25,1.4,1.18-2.48-4.15L119.65,5.31l-.88.59,12.86,16.29Z"/><path class="cls-3" d="M136,27.09l-1.4-1.18,0,0,1.26,1.6c.16.05.34.09.53.13Z"/><path class="cls-3" d="M126.42,1.66l-1,.43h0c.33-.14.65-.27,1-.39Z"/><path class="cls-3" d="M137.68,27.79l-.11-.92-.35.1-.81-3-10-22.31c-.33.12-.65.25-1,.39l9.27,20.75Z"/><path class="cls-3" d="M139,25.78h-.47l0,.12.23,1.85L140.1,22,142.66.54l-1.1-.15L139,21.75Z"/><path class="cls-3" d="M138.76,27.94h.29l-.3-.06Z"/><path class="cls-3" d="M138.5,25.78H138l.24.9-.56.16.42.93-.28.12.46,0,.24-2Z"/><path class="cls-3" d="M138,25.62v-4.3L135.37,0l-1.06,0L137,22.17Z"/><path class="cls-3" d="M137.67,26.84l-.1,0,.11.92.06.1h.07l.28-.12Z"/><path class="cls-3" d="M138.71,27.87l0-.12-.23-1.85-.24,2h.49v-.06Z"/><path class="cls-3" d="M139.41,27.76l1.18-3.09,5.55-23.48c-.18,0-.35-.1-.52-.13l-.55-.1L140.1,22Z"/><path class="cls-3" d="M139.41,27.76,140.1,22l-1.36,5.74v.13l.3.06h.29Z"/><polygon class="cls-3" points="138.75 27.88 138.74 27.75 138.71 27.87 138.75 27.88"/><path class="cls-3" d="M140,27.29l2.31-4.09,7.86-20.61-1-.43-8.59,22.51Z"/><path class="cls-3" d="M139.6,27.93l.37-.64.62-2.62-1.18,3.09,0,.18Z"/><path class="cls-3" d="M139.39,27.94l0-.18-.07.18Z"/><path class="cls-3" d="M141.43,26.89l2.42-2.41,13-17.22L156,6.54,143.59,23.08Z"/><path class="cls-3" d="M142.31,26.52l1.11-.5-.26-.39,3.21-2.17,13.24-13.21c-.23-.27-.45-.55-.68-.81l-15.08,15Z"/><polygon class="cls-3" points="142.31 26.52 143.85 24.48 141.43 26.89 141.41 26.93 142.31 26.52"/><path class="cls-3" d="M164,16.67l-17.07,7.77-3.1,2.1-.2-.3-1.38,1.37c.19,0,.39-.08.59-.13l21.65-9.86Z"/><path class="cls-3" d="M141,27.82l0,0,0,0Z"/><path class="cls-3" d="M142.31,26.52l-.92,1.23c.27,0,.53-.08.81-.14l1.38-1.37-.16-.22Z"/><path class="cls-3" d="M141.41,26.93l-.48.85,0,0,.43-.07.92-1.23Z"/><path class="cls-3" d="M137.53,26.51,137,22.17,131.05.43c-.35.06-.7.12-1,.2L136.41,24Z"/><polygon class="cls-3" points="136.41 24.01 137.22 26.96 137.57 26.86 137.53 26.51 136.41 24.01"/><polygon class="cls-3" points="138.23 26.68 137.99 25.78 137.94 25.78 137.94 25.63 137 22.17 137.53 26.51 137.67 26.84 138.23 26.68"/><polygon class="cls-3" points="137.53 26.51 137.57 26.86 137.67 26.84 137.53 26.51"/><path class="cls-3" d="M136.83,27.76h.11l0-.08Z"/><path class="cls-3" d="M136.36,26.48l-1.63-3.64L123.05,3.25c-.3.16-.61.32-.92.5l11.43,19.19Z"/><polygon class="cls-3" points="136.82 27.76 136.83 27.77 136.83 27.76 136.82 27.76"/><polygon class="cls-3" points="136.9 27.7 136.36 26.48 133.56 22.94 136.03 27.09 136.83 27.76 136.9 27.7"/><path class="cls-3" d="M136,27.09l.35.59.43.08h0Z"/><path class="cls-3" d="M137.68,27.79l-3-4.95,1.63,3.64.8,1-.26.2,0,.08c.24,0,.49.08.75.1Z"/><polygon class="cls-3" points="137.16 27.5 136.36 26.48 136.9 27.7 137.16 27.5"/><path class="cls-3" d="M137.74,27.89l-.06-.1v.09Z"/><path class="cls-3" d="M129.9,21.89l4.5,3.82-2.77-3.52L117.27,7l-.83.63v0Z"/><polygon class="cls-3" points="129.9 21.89 134.15 26.38 134.6 25.95 134.41 25.71 129.9 21.89"/><polygon class="cls-3" points="134.91 25.66 131.63 22.19 134.41 25.71 134.64 25.91 134.91 25.66"/><polygon class="cls-3" points="134.41 25.71 134.6 25.95 134.64 25.91 134.41 25.71"/><path class="cls-3" d="M138.5,25.78h0l.48-4L139.07.13,138,0,138,21.32Z"/><polygon class="cls-3" points="139.01 21.75 138.53 25.78 139 25.78 139.01 21.75"/><polygon class="cls-3" points="138.5 25.78 137.96 21.32 137.94 25.63 137.99 25.78 138.5 25.78"/><polygon class="cls-3" points="137.99 25.78 137.94 25.63 137.94 25.78 137.99 25.78"/><path class="cls-3" d="M140.5,27.86h.08l-.06-.05Z"/><path class="cls-3" d="M141,26.49l2.57-3.41,10.3-18.25c-.29-.21-.58-.43-.88-.63l-10.73,19Z"/><path class="cls-3" d="M140.2,27.57l.82-1.08,1.26-3.29L140,27.29l-.15.63.68-.06,0-.05Z"/><path class="cls-3" d="M139.82,27.92l.15-.63-.37.64Z"/><path class="cls-3" d="M140.55,27.71l0,.1.06.05h0Z"/><polygon class="cls-3" points="141.38 26.95 141.43 26.89 143.59 23.08 141.02 26.49 140.73 27.24 141.38 26.95"/><polygon class="cls-3" points="140.52 27.81 140.55 27.71 140.41 27.39 140.73 27.24 141.02 26.49 140.2 27.57 140.52 27.81"/><polygon class="cls-3" points="141.41 26.93 141.43 26.89 141.38 26.95 141.41 26.93"/><path class="cls-3" d="M141.38,27l-.65.29-.18.47.07.14.29,0,0,0-.19-.19Z"/><polygon class="cls-3" points="140.41 27.39 140.55 27.71 140.73 27.24 140.41 27.39"/><polygon class="cls-3" points="140.74 27.59 140.93 27.78 141.41 26.93 141.38 26.95 140.74 27.59"/><path class="cls-3" d="M144.12,25.7l2.76-1.26L162.36,14l-.62-.91-15.37,10.4Z"/><polygon class="cls-3" points="146.37 23.46 143.16 25.63 143.42 26.02 144.12 25.7 146.37 23.46"/><polygon class="cls-3" points="143.58 26.24 143.78 26.54 146.88 24.44 144.12 25.7 143.58 26.24"/><polygon class="cls-3" points="143.42 26.02 143.58 26.24 144.12 25.7 143.42 26.02"/><path class="cls-2" d="M18.31,88.69c-.76.16-1.47.36-2.17.57l6.91,16.82Z"/><path class="cls-2" d="M21.28,88.17c-.72.1-1.42.22-2.09.35L24,106.19Z"/><path class="cls-2" d="M3.91,97.81c-.33.4-.66.82-1,1.24l15.14,9.17Z"/><path class="cls-2" d="M24.28,87.85c-.71.05-1.4.12-2.07.2L25,106.16Z"/><path class="cls-2" d="M6.16,95.29c-.56.57-1.12,1.19-1.67,1.84l15.33,11.26Z"/><path class="cls-2" d="M8.51,93.19c-.58.46-1.15,1-1.71,1.48l14,13.38Z"/><path class="cls-2" d="M11.9,91a20.73,20.73,0,0,0-2.68,1.68l13.17,16Z"/><path class="cls-2" d="M37.5,91.65c-.7-.46-1.44-.89-2.21-1.3l-6.71,17Z"/><path class="cls-2" d="M40.62,94c-.73-.61-1.52-1.23-2.38-1.82L30.4,105.94Z"/><polygon class="cls-2" points="24.52 109.59 24.5 109.6 24.54 109.7 24.52 109.59"/><path class="cls-2" d="M27.9,87.9a16.18,16.18,0,0,0-2.7-.1L26,108.23Z"/><path class="cls-2" d="M.06,103.1a.37.37,0,0,0,.17.54L21,111.37l.07,0L.78,102Z"/><path class="cls-2" d="M43.23,96.43c-.55-.58-1.18-1.2-1.9-1.84L31,106.62Z"/><path class="cls-2" d="M31.49,88.7A20.6,20.6,0,0,0,28.78,88L27,106.64Z"/><path class="cls-2" d="M34.49,89.94c-.69-.34-1.4-.64-2.14-.92L28,106.25Z"/><path class="cls-2" d="M2.39,99.77v0c-.37.5-.74,1-1.11,1.53l15.31,7.09Z"/><path class="cls-2" d="M15.28,89.53a22.77,22.77,0,0,0-2.58,1L22.46,107Z"/><path class="cls-2" d="M44.84,98.32a15.3,15.3,0,0,0-1-1.22L28.39,110c.46-.25.93-.52,1.43-.84l14.47-9.76C44.93,99,45.29,98.93,44.84,98.32Z"/><path class="cls-3" d="M21.35,110.62l-.27.46-4.48-2.71L1.29,101.28.78,102,21,111.4a5.52,5.52,0,0,0,1.72.24Z"/><path class="cls-3" d="M21.54,110.31l-.16.27,1.4.65-3-2.84L4.49,97.13c-.2.22-.39.44-.58.68l14.16,10.41Z"/><path class="cls-3" d="M22.78,111.23l-1.4-.65,0,0,1.39,1h.46Z"/><path class="cls-3" d="M9.2,92.62l-.69.57h0c.24-.19.47-.37.71-.54Z"/><path class="cls-3" d="M24.28,111.43l-.3-.73-.26.16-1.33-2.23-13.17-16c-.24.17-.47.35-.71.54l12.25,14.86Z"/><path class="cls-3" d="M24.91,109.49l-.39.11,0,.1.6,1.46-.19-5L22.21,88.05l-.93.12,2.73,18Z"/><path class="cls-3" d="M25.2,111.31l.23-.06h-.25Z"/><path class="cls-3" d="M24.5,109.6l-.42.12.4.67-.42.26.55.67-.2.16.39-.07-.26-1.71Z"/><path class="cls-3" d="M24,109.6l-1-3.52L16.14,89.26c-.29.08-.58.17-.86.27L22.46,107Z"/><path class="cls-3" d="M24.06,110.65l-.08,0,.3.73.07.06h.06l.2-.16Z"/><path class="cls-3" d="M25.14,111.26v-.1l-.6-1.46.26,1.71.4-.1,0,0Z"/><path class="cls-3" d="M25.69,111l.26-2.78L25.2,87.8h-.46l-.46,0L25,106.16Z"/><path class="cls-3" d="M25.69,111,25,106.16l.19,5,0,.1h.25l.24-.08Z"/><polygon class="cls-3" points="25.18 111.26 25.14 111.16 25.14 111.26 25.18 111.26"/><path class="cls-3" d="M26,110.5l1-3.86L28.78,88l-.88-.14L26,108.23Z"/><path class="cls-3" d="M25.88,111.11l.16-.61L26,108.23,25.69,111l0,.15Z"/><path class="cls-3" d="M25.71,111.16l0-.15,0,.16Z"/><path class="cls-3" d="M27.14,109.85l1.44-2.52,6.71-17-.8-.41L28,106.25Z"/><path class="cls-3" d="M27.78,109.35l.79-.66-.3-.26,2.13-2.49,7.84-13.78-.74-.51-8.92,15.68Z"/><polygon class="cls-3" points="27.78 109.35 28.58 107.33 27.14 109.85 27.14 109.89 27.78 109.35"/><path class="cls-3" d="M43.23,96.43,31,106.62,29,109l-.23-.2-.81,1.43.45-.24L43.85,97.1C43.66,96.88,43.45,96.66,43.23,96.43Z"/><path class="cls-3" d="M27,110.71l0,0v0Z"/><path class="cls-3" d="M27.78,109.35l-.48,1.21c.21-.09.42-.18.64-.29l.81-1.43-.18-.15Z"/><path class="cls-3" d="M27.13,109.89l-.2.8,0,0c.11,0,.22-.1.33-.15l.48-1.21Z"/><path class="cls-3" d="M23.87,110.42,22.46,107,12.7,90.57c-.27.13-.54.26-.8.4l10.49,17.66Z"/><polygon class="cls-3" points="22.39 108.63 23.72 110.86 23.98 110.7 23.87 110.42 22.39 108.63"/><polygon class="cls-3" points="24.48 110.39 24.08 109.72 24.04 109.72 24.01 109.6 22.46 106.99 23.87 110.42 24.06 110.65 24.48 110.39"/><polygon class="cls-3" points="23.87 110.42 23.98 110.7 24.06 110.65 23.87 110.42"/><path class="cls-3" d="M23.58,111.6h.09l0-.06Z"/><path class="cls-3" d="M22.91,110.66l-2.15-2.61L6.8,94.67l-.64.62,13.66,13.1Z"/><polygon class="cls-3" points="23.57 111.6 23.58 111.6 23.58 111.6 23.57 111.6"/><polygon class="cls-3" points="23.63 111.53 22.91 110.66 19.82 108.39 22.78 111.23 23.58 111.6 23.63 111.53"/><path class="cls-3" d="M22.78,111.23l.42.4.37,0h0Z"/><path class="cls-3" d="M24.28,111.43l-3.52-3.38,2.15,2.61.88.65-.16.22,0,.06.64-.09Z"/><polygon class="cls-3" points="23.79 111.31 22.91 110.66 23.63 111.53 23.79 111.31"/><path class="cls-3" d="M24.35,111.49l-.07-.06,0,.07Z"/><path class="cls-3" d="M16.6,108.37l4.54,2.1-3.07-2.25L2.93,99.05c-.18.23-.36.46-.53.7v0Z"/><polygon class="cls-3" points="16.6 108.37 21.08 111.08 21.35 110.62 21.14 110.47 16.6 108.37"/><polygon class="cls-3" points="21.54 110.31 18.07 108.22 21.14 110.47 21.38 110.58 21.54 110.31"/><polygon class="cls-3" points="21.14 110.47 21.35 110.62 21.38 110.58 21.14 110.47"/><path class="cls-3" d="M24.5,109.6h0L24,106.19,19.19,88.52c-.29,0-.6.1-.88.17l4.74,17.39Z"/><polygon class="cls-3" points="24.01 106.19 24.52 109.59 24.91 109.49 24.01 106.19"/><polygon class="cls-3" points="24.5 109.6 23.05 106.08 24.01 109.6 24.08 109.72 24.5 109.6"/><polygon class="cls-3" points="24.08 109.72 24.01 109.6 24.04 109.72 24.08 109.72"/><path class="cls-3" d="M26.6,110.85l.06,0-.06,0Z"/><path class="cls-3" d="M26.72,109.61,28,106.25,32.35,89l-.86-.32L27,106.64Z"/><path class="cls-3" d="M26.29,110.68l.43-1.07.28-3-1,3.86,0,.56.54-.21v0Z"/><path class="cls-3" d="M26.06,111.06l0-.56-.16.61Z"/><path class="cls-3" d="M26.61,110.72v.08l.06,0h0Z"/><polygon class="cls-3" points="27.11 109.91 27.14 109.85 28.04 106.25 26.72 109.61 26.65 110.29 27.11 109.91"/><polygon class="cls-3" points="26.6 110.8 26.61 110.72 26.42 110.49 26.65 110.29 26.72 109.61 26.29 110.68 26.6 110.8"/><polygon class="cls-3" points="27.14 109.89 27.14 109.85 27.11 109.91 27.14 109.89"/><path class="cls-3" d="M27.11,109.91l-.46.38,0,.43.08.1.23-.09v0l-.2-.11Z"/><polygon class="cls-3" points="26.42 110.49 26.61 110.72 26.65 110.29 26.42 110.49"/><polygon class="cls-3" points="26.73 110.58 26.93 110.69 27.14 109.89 27.11 109.91 26.73 110.58"/><path class="cls-3" d="M29.07,108.27l2-1.65,10.29-12c-.23-.21-.47-.41-.71-.61l-10.22,12Z"/><polygon class="cls-3" points="30.4 105.94 28.27 108.43 28.57 108.69 29.07 108.27 30.4 105.94"/><polygon class="cls-3" points="28.75 108.84 28.98 109.03 31.04 106.62 29.07 108.27 28.75 108.84"/><polygon class="cls-3" points="28.57 108.69 28.75 108.84 29.07 108.27 28.57 108.69"/><path class="cls-4" d="M85.65,34.21c-.84-.08-1.64-.11-2.43-.12L84.9,53.66Z"/><path class="cls-4" d="M88.87,34.64c-.77-.13-1.53-.24-2.26-.32l-.77,19.77Z"/><path class="cls-4" d="M67.85,38.94c-.46.3-.93.63-1.41,1L79.08,54.25Z"/><path class="cls-4" d="M92.06,35.27c-.75-.17-1.48-.32-2.19-.46l-3,19.55Z"/><path class="cls-4" d="M71,37.08c-.76.4-1.54.86-2.32,1.34L80.82,55Z"/><path class="cls-4" d="M74.09,35.67c-.74.29-1.49.61-2.23,1L81.9,55Z"/><path class="cls-4" d="M78.3,34.48a25,25,0,0,0-3.3.86l8.39,20.73Z"/><path class="cls-4" d="M104.46,43.48c-.58-.7-1.2-1.39-1.86-2.06L90.18,56.74Z"/><path class="cls-4" d="M106.91,46.88c-.55-.86-1.17-1.75-1.86-2.64L92.51,55.89Z"/><polygon class="cls-2" points="85.27 57.76 85.25 57.76 85.25 57.87 85.27 57.76"/><path class="cls-4" d="M95.78,36.51a18.35,18.35,0,0,0-2.75-1L87.19,56.81Z"/><path class="cls-4" d="M62.18,43.14a.4.4,0,0,0,0,.62L81,58.43l.06,0L63.27,42.28Z"/><path class="cls-4" d="M108.81,50.25c-.38-.77-.83-1.62-1.37-2.51L93,56.8Z"/><path class="cls-4" d="M99.22,38.49a22.38,22.38,0,0,0-2.58-1.56L88.78,55.52Z"/><path class="cls-4" d="M101.91,40.73c-.6-.57-1.24-1.11-1.91-1.63L90,55.45Z"/><path class="cls-4" d="M65.65,40.47l0,0c-.54.39-1.08.8-1.63,1.22L77.51,53.92Z"/><path class="cls-4" d="M82.26,34.09a28.92,28.92,0,0,0-3,.24L84,54.41Z"/><path class="cls-4" d="M109.86,52.72c-.15-.44-.37-1-.63-1.58L89.12,59.45c.55-.1,1.12-.22,1.74-.39l18.07-5.37C109.72,53.48,110.12,53.5,109.86,52.72Z"/><path class="cls-3" d="M81.67,57.79l-.43.38-3.73-4.25L64,41.67l-.77.61,17.81,16.2a5.77,5.77,0,0,0,1.69.81Z"/><path class="cls-3" d="M82,57.53l-.26.22L83,58.87,80.82,55,68.67,38.42l-.82.52L79.08,54.25Z"/><path class="cls-3" d="M83,58.87l-1.24-1.12,0,0,1.1,1.5.48.13Z"/><path class="cls-3" d="M75,35.3l-.9.37h0l.91-.33Z"/><path class="cls-3" d="M84.43,59.57l-.07-.85L84,58.8l-.64-2.73L75,35.34l-.91.33L81.9,55Z"/><path class="cls-3" d="M85.7,57.77h-.43l0,.11.15,1.69,1.43-5.2,3-19.55-1-.17-3,19.45Z"/><path class="cls-3" d="M85.42,59.74h.26l-.27-.07Z"/><path class="cls-3" d="M85.25,57.76l-.47,0,.19.83-.52.13.35.86-.25.11.42,0,.28-1.84Z"/><path class="cls-3" d="M84.74,57.6l.16-3.94L83.22,34.09h-1L84,54.41Z"/><path class="cls-3" d="M84.45,58.7l-.09,0,.07.85,0,.09h.07l.25-.11Z"/><path class="cls-3" d="M85.37,59.67l0-.11-.15-1.69L85,59.71c.14,0,.29,0,.45,0v-.06Z"/><path class="cls-3" d="M86,59.59l1.18-2.78L93,35.52l-.47-.14-.5-.11L86.83,54.36Z"/><path class="cls-3" d="M86,59.59l.82-5.23-1.43,5.2v.12l.27.07h.26Z"/><polygon class="cls-3" points="85.41 59.68 85.4 59.56 85.37 59.67 85.41 59.68"/><path class="cls-3" d="M86.54,59.18l2.24-3.66,7.86-18.59c-.28-.15-.57-.29-.86-.42l-8.59,20.3Z"/><path class="cls-3" d="M86.19,59.76l.35-.58.65-2.37L86,59.59l0,.17Z"/><path class="cls-3" d="M86,59.76l0-.17-.07.17Z"/><path class="cls-3" d="M87.89,58.87l2.29-2.13L102.6,41.42c-.23-.23-.45-.46-.69-.69L90,55.45Z"/><path class="cls-3" d="M88.71,58.56l1-.43-.23-.36,3-1.88,12.54-11.65c-.19-.25-.38-.51-.59-.76L90.18,56.74Z"/><polygon class="cls-3" points="88.71 58.56 90.18 56.74 87.89 58.87 87.87 58.91 88.71 58.56"/><path class="cls-3" d="M108.81,50.25,93,56.8l-2.91,1.82-.18-.27-1.3,1.2c.18,0,.36-.06.55-.1l20.11-8.31Z"/><path class="cls-3" d="M87.43,59.7l0,0,0,0Z"/><path class="cls-3" d="M88.71,58.56l-.89,1.09c.25,0,.49,0,.75-.1l1.3-1.2-.13-.22Z"/><path class="cls-3" d="M87.87,58.91l-.47.76,0,0,.39-.05.89-1.09Z"/><path class="cls-3" d="M84.33,58.4l-.34-4L79.26,34.33l-1,.15,5.09,21.59Z"/><polygon class="cls-3" points="83.39 56.07 84.03 58.8 84.36 58.72 84.33 58.4 83.39 56.07"/><polygon class="cls-3" points="84.97 58.57 84.78 57.74 84.74 57.74 84.74 57.6 83.99 54.41 84.33 58.4 84.45 58.7 84.97 58.57"/><polygon class="cls-3" points="84.33 58.4 84.36 58.72 84.45 58.7 84.33 58.4"/><path class="cls-3" d="M83.65,59.51h0l.09,0,0-.08Z"/><path class="cls-3" d="M83.26,58.33,81.9,55l-10-18.3c-.29.14-.58.27-.87.43L80.82,55Z"/><polygon class="cls-3" points="83.65 59.52 83.66 59.52 83.65 59.51 83.65 59.52"/><polygon class="cls-3" points="83.72 59.46 83.26 58.33 80.82 55 82.95 58.87 83.65 59.51 83.72 59.46"/><path class="cls-3" d="M83,58.87l.3.55.4.1h0Z"/><path class="cls-3" d="M84.43,59.57,81.9,55l1.36,3.38.7,1-.24.18,0,.08.69.11Z"/><polygon class="cls-3" points="83.96 59.28 83.26 58.33 83.72 59.46 83.96 59.28"/><path class="cls-3" d="M84.48,59.66l0-.09v.08Z"/><path class="cls-3" d="M77.51,53.92l4,3.64-2.42-3.31L66.44,39.9l-.77.55,0,0Z"/><polygon class="cls-3" points="77.51 53.92 81.24 58.17 81.67 57.79 81.5 57.56 77.51 53.92"/><polygon class="cls-3" points="81.97 57.53 79.08 54.25 81.5 57.56 81.71 57.75 81.97 57.53"/><polygon class="cls-3" points="81.5 57.56 81.67 57.79 81.71 57.75 81.5 57.56"/><path class="cls-3" d="M85.25,57.76h0l.57-3.67.77-19.77-1-.11L84.9,53.66Z"/><polygon class="cls-3" points="85.84 54.09 85.27 57.76 85.7 57.77 85.84 54.09"/><polygon class="cls-3" points="85.25 57.76 84.89 53.66 84.74 57.6 84.78 57.74 85.25 57.76"/><polygon class="cls-3" points="84.78 57.74 84.74 57.6 84.74 57.74 84.78 57.74"/><path class="cls-3" d="M87,59.73h.08l-.06,0Z"/><path class="cls-3" d="M87.53,58.49l2.45-3L100,39.1c-.26-.2-.51-.41-.78-.61l-10.44,17Z"/><path class="cls-3" d="M86.75,59.45l.78-1,1.25-3-2.24,3.66-.16.58.62,0,0,0Z"/><path class="cls-3" d="M86.38,59.76l.16-.58-.35.58Z"/><path class="cls-3" d="M87.06,59.59l0,.09.06,0h0Z"/><polygon class="cls-3" points="87.84 58.92 87.89 58.87 89.98 55.45 87.53 58.48 87.24 59.17 87.84 58.92"/><polygon class="cls-3" points="87.02 59.68 87.06 59.59 86.94 59.29 87.24 59.17 87.53 58.48 86.75 59.45 87.02 59.68"/><polygon class="cls-3" points="87.87 58.91 87.89 58.87 87.84 58.92 87.87 58.91"/><path class="cls-3" d="M87.84,58.92l-.6.25-.18.42,0,.13.27,0,0,0-.17-.19Z"/><polygon class="cls-3" points="86.94 59.29 87.06 59.59 87.24 59.17 86.94 59.29"/><polygon class="cls-3" points="87.23 59.48 87.4 59.67 87.87 58.91 87.84 58.92 87.23 59.48"/><path class="cls-3" d="M90.39,57.86,93,56.8l14.48-9.06c-.16-.28-.34-.57-.53-.86l-14.4,9Z"/><polygon class="cls-3" points="92.51 55.89 89.51 57.77 89.74 58.13 90.39 57.86 92.51 55.89"/><polygon class="cls-3" points="89.87 58.34 90.05 58.62 92.95 56.8 90.39 57.86 89.87 58.34"/><polygon class="cls-3" points="89.74 58.13 89.87 58.34 90.39 57.86 89.74 58.13"/><path class="cls-4" d="M163.13,34.29c-.63-.43-1.27-.81-1.89-1.16L154,49.63Z"/><path class="cls-4" d="M165.54,36.06q-.84-.68-1.68-1.26l-9.33,15.6Z"/><path class="cls-4" d="M146.71,30.26l-1.56.15L149,47.54Z"/><path class="cls-4" d="M167.84,38c-.53-.47-1.05-.92-1.57-1.34L155.2,51.05Z"/><path class="cls-4" d="M150.06,30.14c-.79,0-1.62,0-2.46.06l2.48,18.72Z"/><path class="cls-4" d="M153.18,30.37c-.73-.1-1.47-.16-2.23-.2l0,19.18Z"/><path class="cls-4" d="M157.1,31.27a21.45,21.45,0,0,0-3-.76l-2.38,20.4Z"/><path class="cls-4" d="M174.21,50.05c-.16-.82-.36-1.65-.59-2.48l-16.76,6.88Z"/><path class="cls-4" d="M174.69,53.88c-.07-.94-.18-1.93-.34-3l-15.24,3.86Z"/><polygon class="cls-2" points="152.45 53.1 152.43 53.09 152.39 53.18 152.45 53.1"/><path class="cls-4" d="M170.29,40.61a16.84,16.84,0,0,0-1.78-2l-14.1,14.58Z"/><path class="cls-4" d="M140.29,31.14a.37.37,0,0,0-.28.5l8.72,20.13,0,.07-7.21-20.91Z"/><path class="cls-4" d="M174.73,57.43c0-.79,0-1.67,0-2.63l-15.68.92Z"/><path class="cls-4" d="M172.18,43.72a21.13,21.13,0,0,0-1.38-2.39L156.27,52.84Z"/><path class="cls-4" d="M173.37,46.72c-.24-.73-.52-1.45-.82-2.16l-15.29,8.76Z"/><path class="cls-4" d="M144.27,30.52h0l-1.85.27,5.45,15.81Z"/><path class="cls-4" d="M160.45,32.7a25.35,25.35,0,0,0-2.52-1.13l-5,18.27Z"/><path class="cls-4" d="M174.48,59.88c.08-.42.14-1,.19-1.55L154.8,56.16c.49.16,1,.32,1.58.45l16.93,3.64C174,60.43,174.35,60.62,174.48,59.88Z"/><path class="cls-3" d="M149.54,51.54l-.52.11-1.14-5.06-5.45-15.81-.88.15,7.21,20.91a5.33,5.33,0,0,0,1,1.39Z"/><path class="cls-3" d="M149.89,51.46l-.3.07.5,1.45V48.92L147.6,30.2l-.89.06L149,47.54Z"/><path class="cls-3" d="M150.09,53l-.5-1.45h-.05l.22,1.69c.1.11.21.21.33.32Z"/><path class="cls-3" d="M154.06,30.47l-.88-.1h0l.88.14Z"/><path class="cls-3" d="M151,54.19l.32-.72-.29-.08.68-2.48,2.38-20.4-.88-.14-2.21,19Z"/><path class="cls-3" d="M152.79,53.3l-.34-.2-.06.08-.63,1.43,3.44-3.56,11.07-14.41-.73-.58-11,14.34Z"/><path class="cls-3" d="M151.69,54.76l.21.13-.19-.18Z"/><path class="cls-3" d="M152.43,53.09l-.37-.22-.21.75-.47-.12-.1.85-.26,0c.11.07.21.15.33.22l1-1.36Z"/><path class="cls-3" d="M152.1,52.74,154,49.63l7.28-16.5-.79-.43L152.9,49.84Z"/><path class="cls-3" d="M151.38,53.5l-.09,0-.32.72v.09l.05,0,.26,0Z"/><path class="cls-3" d="M151.69,54.69l.07-.08.63-1.43-1,1.36.34.22,0,0Z"/><path class="cls-3" d="M152.24,54.91l2.17-1.73,14.1-14.58c-.11-.1-.21-.22-.32-.32l-.35-.3L155.2,51.05Z"/><path class="cls-3" d="M152.24,54.91l3-3.86-3.44,3.56,0,.1.19.18.21.12Z"/><polygon class="cls-3" points="151.71 54.71 151.76 54.61 151.69 54.69 151.71 54.71"/><path class="cls-3" d="M152.84,54.81l3.43-2L170.8,41.33c-.17-.24-.34-.49-.51-.72L154.41,53.18Z"/><path class="cls-3" d="M152.31,55.12l.53-.31,1.57-1.63-2.17,1.73-.09.12Z"/><path class="cls-3" d="M152.15,55l.09-.12-.13.1Z"/><path class="cls-3" d="M154.07,55.15l2.79-.7,16.76-6.88c-.09-.28-.16-.57-.25-.85l-16.11,6.6Z"/><path class="cls-3" d="M154.87,55.26l1,.11,0-.39,3.25-.19,15.24-3.86c0-.29-.09-.58-.14-.88l-17.35,4.4Z"/><polygon class="cls-3" points="154.87 55.26 156.86 54.45 154.07 55.15 154.04 55.17 154.87 55.26"/><path class="cls-3" d="M174.73,57.43l-15.67-1.71-3.14.18,0-.3-1.58.4c.15.06.32.11.48.16l19.87,2.17C174.7,58.05,174.71,57.75,174.73,57.43Z"/><path class="cls-3" d="M153.34,55.62v0l0,0Z"/><path class="cls-3" d="M154.87,55.26l-1.2.49.65.25,1.58-.4v-.23Z"/><path class="cls-3" d="M154,55.17l-.71.41v0l.33.13,1.2-.49Z"/><path class="cls-3" d="M151.41,53.2l1.49-3.36,5-18.27-.83-.3-5.42,19.64Z"/><polygon class="cls-3" points="151.68 50.91 151 53.39 151.29 53.47 151.41 53.2 151.68 50.91"/><polygon class="cls-3" points="151.85 53.62 152.06 52.87 152.03 52.85 152.1 52.74 152.9 49.84 151.41 53.2 151.38 53.5 151.85 53.62"/><polygon class="cls-3" points="151.41 53.2 151.29 53.47 151.38 53.5 151.41 53.2"/><path class="cls-3" d="M150.37,53.8h0l.07.06v-.08Z"/><path class="cls-3" d="M150.58,52.68l.39-3.33,0-19.18c-.3,0-.59,0-.89,0l0,18.78Z"/><polygon class="cls-3" points="150.37 53.8 150.37 53.81 150.37 53.8 150.37 53.8"/><polygon class="cls-3" points="150.45 53.79 150.58 52.68 150.08 48.92 150.09 52.98 150.37 53.8 150.45 53.79"/><path class="cls-3" d="M150.09,53v.57a2.26,2.26,0,0,0,.28.25h0Z"/><path class="cls-3" d="M151,54.19V49.35l-.39,3.33.14,1.07-.27,0v.08c.16.13.32.26.5.39Z"/><polygon class="cls-3" points="150.72 53.75 150.58 52.68 150.45 53.79 150.72 53.75"/><path class="cls-3" d="M151,54.28v-.09l0,.07Z"/><path class="cls-3" d="M147.88,46.59l1.62,4.69L149,47.54l-3.86-17.13-.87.1h0Z"/><polygon class="cls-3" points="147.88 46.59 149.02 51.66 149.54 51.54 149.5 51.28 147.88 46.59"/><polygon class="cls-3" points="149.89 51.46 149.01 47.54 149.5 51.28 149.59 51.53 149.89 51.46"/><polygon class="cls-3" points="149.5 51.28 149.54 51.54 149.59 51.53 149.5 51.28"/><path class="cls-3" d="M152.43,53.09h0l2.08-2.7,9.33-15.6-.73-.51L154,49.63Z"/><polygon class="cls-3" points="154.53 50.4 152.45 53.1 152.79 53.3 154.53 50.4"/><polygon class="cls-3" points="152.43 53.09 153.96 49.63 152.1 52.74 152.06 52.87 152.43 53.09"/><polygon class="cls-3" points="152.06 52.87 152.1 52.74 152.03 52.85 152.06 52.87"/><path class="cls-3" d="M153,55.45l.06,0,0-.06Z"/><path class="cls-3" d="M154,54.68l3.31-1.36,15.29-8.76c-.12-.28-.24-.56-.37-.84l-15.91,9.12Z"/><path class="cls-3" d="M152.89,55.11l1.06-.43,2.32-1.84-3.43,2-.38.39c.16.09.34.17.52.25l0,0Z"/><path class="cls-3" d="M152.46,55.2l.38-.39-.53.31Z"/><path class="cls-3" d="M153.08,55.37l-.06.05,0,.06h0Z"/><polygon class="cls-3" points="154.01 55.17 154.07 55.15 157.26 53.32 153.95 54.68 153.42 55.1 154.01 55.17"/><polygon class="cls-3" points="153.02 55.42 153.08 55.37 153.12 55.07 153.42 55.1 153.95 54.68 152.89 55.12 153.02 55.42"/><polygon class="cls-3" points="154.04 55.17 154.07 55.15 154.01 55.17 154.04 55.17"/><path class="cls-3" d="M154,55.17l-.59-.07-.34.27v.12l.22.11,0,0-.06-.22Z"/><polygon class="cls-3" points="153.12 55.07 153.08 55.37 153.42 55.1 153.12 55.07"/><polygon class="cls-3" points="153.27 55.35 153.33 55.58 154.04 55.17 154.01 55.17 153.27 55.35"/><path class="cls-3" d="M156.53,55.44l2.53.28,15.68-.92c0-.3,0-.61-.05-.92l-15.58.91Z"/><polygon class="cls-3" points="159.11 54.79 155.86 54.98 155.89 55.37 156.53 55.44 159.11 54.79"/><polygon class="cls-3" points="155.9 55.6 155.92 55.9 159.06 55.72 156.53 55.44 155.9 55.6"/><polygon class="cls-3" points="155.89 55.37 155.9 55.6 156.53 55.44 155.89 55.37"/><path class="cls-4" d="M54.46,70.12c-.86.14-1.67.32-2.46.51l6.74,19.21Z"/><path class="cls-4" d="M57.81,69.72c-.81.07-1.6.16-2.36.27L59.8,90Z"/><path class="cls-4" d="M37.82,79.47l-1.16,1.34L53.05,91.94Z"/><path class="cls-4" d="M61.18,69.53c-.8,0-1.57.06-2.32.11l2,20.41Z"/><path class="cls-4" d="M40.49,76.79q-1,.92-2,1.95L55,92.24Z"/><path class="cls-4" d="M43.24,74.58c-.68.48-1.34,1-2,1.56L56.06,91.92Z"/><path class="cls-4" d="M47.16,72.3A23.81,23.81,0,0,0,44.07,74L57.85,92.66Z"/><path class="cls-4" d="M75.74,74.56C75,74,74.18,73.48,73.34,73l-8.5,18.59Z"/><path class="cls-4" d="M79.09,77.35c-.78-.73-1.63-1.46-2.55-2.17L67,90.12Z"/><polygon class="cls-2" points="60.18 93.86 60.15 93.87 60.19 93.98 60.18 93.86"/><path class="cls-4" d="M65.23,69.81a18.84,18.84,0,0,0-3-.28l-.35,22.89Z"/><path class="cls-4" d="M33.21,85.16a.42.42,0,0,0,.16.62l22.71,9.86.08,0L34.08,84Z"/><path class="cls-4" d="M81.87,80.24c-.58-.68-1.26-1.41-2-2.17L67.64,90.92Z"/><path class="cls-4" d="M69.19,70.92a21.4,21.4,0,0,0-3-.91l-3.09,20.7Z"/><path class="cls-4" d="M72.48,72.47c-.75-.42-1.54-.8-2.34-1.15l-5.83,19Z"/><path class="cls-4" d="M36,81.58v0c-.44.53-.88,1.07-1.32,1.65L51.39,92Z"/><path class="cls-4" d="M51,70.89a24.35,24.35,0,0,0-3,1L58,90.83Z"/><path class="cls-4" d="M83.55,82.45c-.26-.41-.62-.89-1-1.42l-18,13.54c.53-.25,1.08-.52,1.65-.85L82.87,83.66C83.61,83.25,84,83.16,83.55,82.45Z"/><path class="cls-3" d="M56.57,94.83l-.33.49L51.39,92,34.7,83.21c-.2.26-.41.54-.62.8L56.16,95.67a6,6,0,0,0,1.9.38Z"/><path class="cls-3" d="M56.8,94.49l-.2.29,1.53.8L55,92.24,38.51,78.74l-.69.73L53.05,91.94Z"/><path class="cls-3" d="M58.13,95.58l-1.53-.8,0,0,1.49,1.22h.52Z"/><path class="cls-3" d="M44,74l-.8.6h0l.83-.57Z"/><path class="cls-3" d="M59.8,95.9l-.29-.84-.31.17-1.35-2.57L44.07,74l-.83.57L56.06,91.92Z"/><path class="cls-3" d="M60.61,93.77l-.43.09V94l.58,1.66.09-5.59-2-20.41-1,.08L59.8,90Z"/><path class="cls-3" d="M60.83,95.82l.27-.06h-.29Z"/><path class="cls-3" d="M60.15,93.87l-.48.1.41.78L59.6,95l.57.78-.23.17.44-.07L60.19,94Z"/><path class="cls-3" d="M59.6,93.84l-.86-4L52,70.63l-1,.26,7,19.94Z"/><path class="cls-3" d="M59.6,95l-.09,0,.29.84.07.08h.07l.23-.17Z"/><path class="cls-3" d="M60.77,95.76v-.12L60.19,94l.19,1.92.45-.08,0-.06Z"/><path class="cls-3" d="M61.39,95.51l.47-3.09.35-22.89-.51,0-.52,0-.32,20.52Z"/><path class="cls-3" d="M61.39,95.51l-.53-5.46-.09,5.59,0,.12h.29l.27-.06Z"/><polygon class="cls-3" points="60.81 95.76 60.77 95.64 60.77 95.76 60.81 95.76"/><path class="cls-3" d="M61.82,95l1.3-4.25L66.21,70l-1-.2L61.86,92.42Z"/><path class="cls-3" d="M61.61,95.63l.21-.67,0-2.54-.47,3.09,0,.17Z"/><path class="cls-3" d="M61.41,95.68l0-.17,0,.19Z"/><path class="cls-3" d="M63.09,94.3l1.75-2.73L73.34,73c-.28-.17-.57-.35-.86-.51L64.31,90.33Z"/><path class="cls-3" d="M63.83,93.78l.93-.7-.32-.3L67,90.12l9.58-14.94c-.26-.21-.52-.42-.8-.62l-10.9,17Z"/><polygon class="cls-3" points="63.84 93.78 64.84 91.57 63.09 94.3 63.08 94.34 63.84 93.78"/><path class="cls-3" d="M81.87,80.24,67.64,90.92,65.19,93.5,65,93.26l-1,1.55.52-.24L82.52,81Z"/><path class="cls-3" d="M62.85,95.25l0,0v0Z"/><path class="cls-3" d="M63.83,93.78l-.6,1.33.72-.3,1-1.55-.19-.18Z"/><path class="cls-3" d="M63.08,94.34l-.27.89,0,0,.38-.14.6-1.33Z"/><path class="cls-3" d="M59.4,94.75,58,90.83,48.08,71.9l-.92.4L57.85,92.66Z"/><polygon class="cls-3" points="57.85 92.66 59.2 95.23 59.51 95.06 59.4 94.75 57.85 92.66"/><polygon class="cls-3" points="60.08 94.75 59.67 93.97 59.63 93.98 59.6 93.84 58.02 90.83 59.4 94.75 59.6 95.02 60.08 94.75"/><polygon class="cls-3" points="59.4 94.75 59.51 95.06 59.6 95.02 59.4 94.75"/><path class="cls-3" d="M59,96h.11l0-.07Z"/><path class="cls-3" d="M58.31,95l-2.25-3L41.25,76.14c-.26.21-.51.43-.76.65L55,92.24Z"/><polygon class="cls-3" points="59 96.05 59.01 96.05 59 96.04 59 96.05"/><polygon class="cls-3" points="59.06 95.97 58.31 94.96 55 92.24 58.13 95.58 59 96.04 59.06 95.97"/><path class="cls-3" d="M58.13,95.58l.45.48H59Z"/><path class="cls-3" d="M59.8,95.9l-3.74-4,2.25,3,.95.77-.2.24,0,.07.72-.06Z"/><polygon class="cls-3" points="59.26 95.73 58.31 94.96 59.06 95.97 59.26 95.73"/><path class="cls-3" d="M59.87,96l-.07-.08,0,.08Z"/><path class="cls-3" d="M51.39,92l5,2.62-3.29-2.7L36.66,80.81c-.22.25-.43.49-.64.75v0Z"/><polygon class="cls-3" points="51.39 92.02 56.24 95.32 56.57 94.83 56.34 94.64 51.39 92.02"/><polygon class="cls-3" points="56.8 94.49 53.05 91.94 56.34 94.64 56.6 94.78 56.8 94.49"/><polygon class="cls-3" points="56.34 94.64 56.57 94.83 56.6 94.78 56.34 94.64"/><path class="cls-3" d="M60.15,93.87h0L59.8,90,55.45,70l-1,.13,4.28,19.72Z"/><polygon class="cls-3" points="59.8 90.03 60.18 93.86 60.61 93.77 59.8 90.03"/><polygon class="cls-3" points="60.15 93.87 58.74 89.84 59.6 93.84 59.67 93.97 60.15 93.87"/><polygon class="cls-3" points="59.67 93.97 59.6 93.84 59.63 93.98 59.67 93.97"/><path class="cls-3" d="M62.42,95.39l.08,0-.07,0Z"/><path class="cls-3" d="M62.63,94l1.68-3.68,5.83-19c-.31-.13-.63-.28-1-.4L63.12,90.71Z"/><path class="cls-3" d="M62.09,95.18,62.63,94l.49-3.3L61.82,95v.63l.61-.2v0Z"/><path class="cls-3" d="M61.81,95.59V95l-.21.67Z"/><path class="cls-3" d="M62.45,95.24l0,.1.07,0h0Z"/><polygon class="cls-3" points="63.05 94.36 63.09 94.3 64.31 90.33 62.63 94.01 62.52 94.77 63.05 94.36"/><polygon class="cls-3" points="62.43 95.34 62.45 95.24 62.24 94.97 62.52 94.77 62.63 94.01 62.09 95.18 62.43 95.34"/><polygon class="cls-3" points="63.08 94.34 63.09 94.3 63.05 94.36 63.08 94.34"/><path class="cls-3" d="M63.05,94.36l-.53.41-.07.47.08.12.27-.09v0l-.22-.14Z"/><polygon class="cls-3" points="62.24 94.97 62.45 95.24 62.52 94.77 62.24 94.97"/><polygon class="cls-3" points="62.59 95.09 62.81 95.23 63.08 94.34 63.05 94.36 62.59 95.09"/><path class="cls-3" d="M65.34,92.65l2.3-1.73L79.85,78.07l-.76-.72L67,90.12Z"/><polygon class="cls-3" points="66.96 90.12 64.44 92.78 64.76 93.08 65.34 92.64 66.96 90.12"/><polygon class="cls-3" points="64.95 93.26 65.19 93.5 67.64 90.92 65.34 92.64 64.95 93.26"/><polygon class="cls-3" points="64.76 93.08 64.95 93.26 65.34 92.64 64.76 93.08"/></g></g></svg>